<svg width="451" height="385" viewBox="0 0 451 385" fill="none" xmlns="http://www.w3.org/2000/svg">
<rect x="57.5" y="1.5" width="392" height="328" rx="23.5" fill="white" stroke="#EEEEEE" stroke-width="3"/>
<rect x="87" y="28" width="334" height="130" rx="10" fill="url(#paint0_radial_2930_3648)"/>
<rect x="366.5" y="19.5" width="62" height="26" rx="4.5" fill="white" stroke="#DADADA"/>
<g clip-path="url(#clip0_2930_3648)">
<path d="M383.209 27.625C383.351 27.4827 383.52 27.3699 383.706 27.2929C383.892 27.2159 384.091 27.1763 384.292 27.1763C384.494 27.1763 384.693 27.2159 384.879 27.2929C385.064 27.3699 385.233 27.4827 385.376 27.625C385.518 27.7673 385.631 27.9362 385.708 28.122C385.785 28.3079 385.824 28.5071 385.824 28.7083C385.824 28.9095 385.785 29.1088 385.708 29.2946C385.631 29.4805 385.518 29.6494 385.376 29.7917L378.063 37.1042L375.084 37.9167L375.896 34.9375L383.209 27.625Z" stroke="black" stroke-linecap="round" stroke-linejoin="round"/>
</g>
<path d="M393.962 38V28.64H395.34V38H393.962ZM394.638 38V36.869H400.462V38H394.638ZM394.638 33.723V32.592H399.994V33.723H394.638ZM394.638 29.771V28.64H400.345V29.771H394.638ZM406.503 38V36.479L406.633 36.518C406.494 37.012 406.208 37.4063 405.775 37.701C405.341 37.987 404.821 38.13 404.215 38.13C403.617 38.13 403.092 37.987 402.642 37.701C402.2 37.415 401.853 37.0163 401.602 36.505C401.359 35.9937 401.238 35.3957 401.238 34.711C401.238 34.0177 401.363 33.411 401.615 32.891C401.866 32.371 402.217 31.968 402.668 31.682C403.118 31.396 403.647 31.253 404.254 31.253C404.886 31.253 405.406 31.4047 405.814 31.708C406.23 32.0027 406.503 32.4187 406.633 32.956L406.451 32.982V28.64H407.79V38H406.503ZM404.553 36.999C405.151 36.999 405.623 36.7953 405.97 36.388C406.316 35.972 406.49 35.4 406.49 34.672C406.49 33.9613 406.312 33.4023 405.957 32.995C405.61 32.579 405.138 32.371 404.54 32.371C403.95 32.371 403.482 32.579 403.136 32.995C402.798 33.4023 402.629 33.9743 402.629 34.711C402.629 35.4303 402.798 35.9937 403.136 36.401C403.482 36.7997 403.955 36.999 404.553 36.999ZM409.691 38V31.37H411.043V38H409.691ZM409.626 30.07V28.549H411.121V30.07H409.626ZM415.711 38.13C414.94 38.13 414.372 37.9523 414.008 37.597C413.653 37.233 413.475 36.7 413.475 35.998V29.849L414.814 29.342V36.011C414.814 36.3577 414.905 36.6133 415.087 36.778C415.269 36.9427 415.564 37.025 415.971 37.025C416.127 37.025 416.266 37.012 416.387 36.986C416.509 36.96 416.613 36.9297 416.699 36.895V37.987C416.604 38.0303 416.47 38.065 416.296 38.091C416.123 38.117 415.928 38.13 415.711 38.13ZM412.149 32.449V31.37H416.699V32.449H412.149Z" fill="black"/>
<rect x="87" y="185" width="255" height="16" rx="2" fill="#EEEEEE"/>
<path d="M92.8438 225.5C92.8438 225.69 92.6898 225.844 92.5 225.844C92.3102 225.844 92.1563 225.69 92.1563 225.5C92.1563 225.31 92.3102 225.156 92.5 225.156C92.6898 225.156 92.8438 225.31 92.8438 225.5Z" fill="#1C1D1D"/>
<path d="M92.8438 225.5C92.8438 225.69 92.6898 225.844 92.5 225.844C92.3102 225.844 92.1563 225.69 92.1563 225.5C92.1563 225.31 92.3102 225.156 92.5 225.156M92.8438 225.5C92.8438 225.31 92.6898 225.156 92.5 225.156M92.8438 225.5H94.5625M92.5 225.156V222.979M96.625 225.5C96.625 227.778 94.7782 229.625 92.5 229.625C90.2218 229.625 88.375 227.778 88.375 225.5C88.375 223.222 90.2218 221.375 92.5 221.375C94.7782 221.375 96.625 223.222 96.625 225.5Z" stroke="#1C1D1D" stroke-width="0.501194" stroke-linecap="round" stroke-linejoin="round"/>
<path d="M105.543 229.5V221.998L106.027 222.372H103.761V221.47H106.599V229.5H105.543ZM108.721 229.5V228.158H109.997V229.5H108.721ZM108.721 225.43V224.088H109.997V225.43H108.721ZM114.086 229.698C113.485 229.698 112.975 229.581 112.557 229.346C112.139 229.111 111.82 228.8 111.6 228.411C111.387 228.022 111.281 227.601 111.281 227.146H112.315C112.315 227.645 112.473 228.041 112.788 228.334C113.111 228.627 113.543 228.774 114.086 228.774C114.445 228.774 114.757 228.708 115.021 228.576C115.285 228.444 115.49 228.257 115.637 228.015C115.784 227.766 115.857 227.476 115.857 227.146C115.857 226.647 115.696 226.244 115.373 225.936C115.058 225.628 114.632 225.474 114.097 225.474C113.87 225.474 113.672 225.503 113.503 225.562C113.342 225.613 113.199 225.679 113.074 225.76L112.546 224.814L115.615 222.57L115.505 222.372H111.6V221.47H116.495V222.933L113.954 224.781L113.184 224.814C113.309 224.77 113.444 224.733 113.591 224.704C113.745 224.675 113.925 224.66 114.13 224.66C114.717 224.66 115.215 224.77 115.626 224.99C116.037 225.21 116.348 225.503 116.561 225.87C116.781 226.237 116.891 226.636 116.891 227.069V227.223C116.891 227.648 116.781 228.052 116.561 228.433C116.348 228.807 116.033 229.111 115.615 229.346C115.204 229.581 114.695 229.698 114.086 229.698ZM121.646 229.698C121.044 229.698 120.531 229.595 120.106 229.39C119.688 229.177 119.347 228.891 119.083 228.532C118.826 228.173 118.639 227.758 118.522 227.289C118.404 226.812 118.346 226.31 118.346 225.782V225.188C118.346 224.447 118.459 223.78 118.687 223.186C118.921 222.592 119.281 222.123 119.765 221.778C120.256 221.426 120.883 221.25 121.646 221.25C122.408 221.25 123.032 221.426 123.516 221.778C124 222.123 124.355 222.592 124.583 223.186C124.817 223.78 124.935 224.447 124.935 225.188V225.782C124.935 226.31 124.876 226.812 124.759 227.289C124.641 227.758 124.451 228.173 124.187 228.532C123.93 228.891 123.593 229.177 123.175 229.39C122.757 229.595 122.247 229.698 121.646 229.698ZM121.646 228.73C122.408 228.73 122.966 228.473 123.318 227.96C123.677 227.439 123.857 226.618 123.857 225.496C123.857 224.323 123.673 223.483 123.307 222.977C122.947 222.471 122.394 222.218 121.646 222.218C120.89 222.218 120.329 222.471 119.963 222.977C119.603 223.483 119.424 224.315 119.424 225.474C119.424 226.603 119.603 227.428 119.963 227.949C120.322 228.47 120.883 228.73 121.646 228.73ZM126.741 229.5V221.47H127.797V226.266H127.533C127.533 225.687 127.606 225.188 127.753 224.77C127.907 224.345 128.141 224.018 128.457 223.791C128.772 223.564 129.175 223.45 129.667 223.45H129.711C130.415 223.45 130.946 223.685 131.306 224.154C131.665 224.616 131.845 225.28 131.845 226.145V229.5H130.789V225.925C130.789 225.448 130.653 225.078 130.382 224.814C130.118 224.55 129.773 224.418 129.348 224.418C128.878 224.418 128.501 224.576 128.215 224.891C127.936 225.199 127.797 225.606 127.797 226.112V229.5H126.741ZM133.777 229.5V223.626H134.613V226.046H134.569C134.569 225.188 134.756 224.561 135.13 224.165C135.511 223.762 136.079 223.56 136.835 223.56H137.033V224.506H136.659C136.072 224.506 135.621 224.664 135.306 224.979C134.99 225.287 134.833 225.734 134.833 226.321V229.5H133.777ZM140.213 229.676C139.443 229.676 138.846 229.511 138.42 229.181C138.002 228.851 137.786 228.4 137.771 227.828H138.761C138.776 228.055 138.89 228.272 139.102 228.477C139.322 228.675 139.693 228.774 140.213 228.774C140.683 228.774 141.042 228.682 141.291 228.499C141.541 228.308 141.665 228.077 141.665 227.806C141.665 227.564 141.574 227.377 141.39 227.245C141.207 227.106 140.91 227.014 140.499 226.97L139.861 226.904C139.304 226.845 138.849 226.68 138.497 226.409C138.145 226.13 137.969 225.742 137.969 225.243C137.969 224.869 138.065 224.55 138.255 224.286C138.446 224.015 138.71 223.809 139.047 223.67C139.385 223.523 139.773 223.45 140.213 223.45C140.873 223.45 141.409 223.597 141.819 223.89C142.23 224.183 142.443 224.62 142.457 225.199H141.467C141.46 224.964 141.35 224.766 141.137 224.605C140.932 224.436 140.624 224.352 140.213 224.352C139.803 224.352 139.491 224.436 139.278 224.605C139.066 224.774 138.959 224.986 138.959 225.243C138.959 225.463 139.033 225.639 139.179 225.771C139.333 225.903 139.583 225.987 139.927 226.024L140.565 226.09C141.196 226.156 141.702 226.332 142.083 226.618C142.465 226.897 142.655 227.293 142.655 227.806C142.655 228.173 142.549 228.499 142.336 228.785C142.131 229.064 141.845 229.284 141.478 229.445C141.112 229.599 140.69 229.676 140.213 229.676Z" fill="#1C1D1D"/>
<path d="M163.192 223.667C163.192 223.92 162.987 224.125 162.734 224.125C162.481 224.125 162.275 223.92 162.275 223.667C162.275 223.413 162.481 223.208 162.734 223.208C162.987 223.208 163.192 223.413 163.192 223.667Z" fill="#1C1D1D"/>
<path d="M164.222 223.667H165.826M162.618 225.5H165.826M162.618 227.333H165.826M162.818 229.625H165.626C166.378 229.625 166.754 229.625 167.017 229.434C167.102 229.372 167.177 229.297 167.239 229.212C167.43 228.948 167.43 228.572 167.43 227.821V223.179C167.43 222.428 167.43 222.052 167.239 221.788C167.177 221.703 167.102 221.628 167.017 221.566C166.754 221.375 166.378 221.375 165.626 221.375H162.818C162.066 221.375 161.69 221.375 161.427 221.566C161.342 221.628 161.267 221.703 161.205 221.788C161.014 222.052 161.014 222.428 161.014 223.179V227.821C161.014 228.572 161.014 228.948 161.205 229.212C161.267 229.297 161.342 229.372 161.427 229.434C161.69 229.625 162.066 229.625 162.818 229.625Z" stroke="#1C1D1D" stroke-width="0.501194" stroke-linecap="round" stroke-linejoin="round"/>
<path d="M179.113 229.698C178.512 229.698 177.999 229.595 177.573 229.39C177.155 229.177 176.814 228.891 176.55 228.532C176.294 228.173 176.107 227.758 175.989 227.289C175.872 226.812 175.813 226.31 175.813 225.782V225.188C175.813 224.447 175.927 223.78 176.154 223.186C176.389 222.592 176.748 222.123 177.232 221.778C177.724 221.426 178.351 221.25 179.113 221.25C179.876 221.25 180.499 221.426 180.983 221.778C181.467 222.123 181.823 222.592 182.05 223.186C182.285 223.78 182.402 224.447 182.402 225.188V225.782C182.402 226.31 182.344 226.812 182.226 227.289C182.109 227.758 181.918 228.173 181.654 228.532C181.398 228.891 181.06 229.177 180.642 229.39C180.224 229.595 179.715 229.698 179.113 229.698ZM179.113 228.73C179.876 228.73 180.433 228.473 180.785 227.96C181.145 227.439 181.324 226.618 181.324 225.496C181.324 224.323 181.141 223.483 180.774 222.977C180.415 222.471 179.861 222.218 179.113 222.218C178.358 222.218 177.797 222.471 177.43 222.977C177.071 223.483 176.891 224.315 176.891 225.474C176.891 226.603 177.071 227.428 177.43 227.949C177.79 228.47 178.351 228.73 179.113 228.73ZM186.485 229.698C185.884 229.698 185.374 229.581 184.956 229.346C184.538 229.111 184.219 228.8 183.999 228.411C183.787 228.022 183.68 227.601 183.68 227.146H184.714C184.714 227.645 184.872 228.041 185.187 228.334C185.51 228.627 185.943 228.774 186.485 228.774C186.845 228.774 187.156 228.708 187.42 228.576C187.684 228.444 187.89 228.257 188.036 228.015C188.183 227.766 188.256 227.476 188.256 227.146C188.256 226.647 188.095 226.244 187.772 225.936C187.457 225.628 187.032 225.474 186.496 225.474C186.269 225.474 186.071 225.503 185.902 225.562C185.741 225.613 185.598 225.679 185.473 225.76L184.945 224.814L188.014 222.57L187.904 222.372H183.999V221.47H188.894V222.933L186.353 224.781L185.583 224.814C185.708 224.77 185.844 224.733 185.99 224.704C186.144 224.675 186.324 224.66 186.529 224.66C187.116 224.66 187.615 224.77 188.025 224.99C188.436 225.21 188.748 225.503 188.96 225.87C189.18 226.237 189.29 226.636 189.29 227.069V227.223C189.29 227.648 189.18 228.052 188.96 228.433C188.748 228.807 188.432 229.111 188.014 229.346C187.604 229.581 187.094 229.698 186.485 229.698ZM193.622 229.5V221.47H194.7V229.5H193.622ZM194.48 229.5V228.532H198.154V229.5H194.48ZM201.905 229.698C201.392 229.698 200.948 229.61 200.574 229.434C200.2 229.258 199.896 229.027 199.661 228.741C199.427 228.448 199.251 228.121 199.133 227.762C199.023 227.403 198.968 227.036 198.968 226.662V226.464C198.968 226.083 199.023 225.712 199.133 225.353C199.251 224.994 199.427 224.671 199.661 224.385C199.896 224.092 200.193 223.861 200.552 223.692C200.919 223.516 201.348 223.428 201.839 223.428C202.477 223.428 203.002 223.567 203.412 223.846C203.83 224.117 204.138 224.469 204.336 224.902C204.542 225.335 204.644 225.797 204.644 226.288V226.761H199.43V225.969H203.874L203.632 226.398C203.632 225.98 203.566 225.621 203.434 225.32C203.302 225.012 203.104 224.774 202.84 224.605C202.576 224.436 202.243 224.352 201.839 224.352C201.421 224.352 201.073 224.447 200.794 224.638C200.523 224.829 200.318 225.089 200.178 225.419C200.046 225.749 199.98 226.13 199.98 226.563C199.98 226.981 200.046 227.359 200.178 227.696C200.318 228.026 200.53 228.29 200.816 228.488C201.102 228.679 201.465 228.774 201.905 228.774C202.367 228.774 202.741 228.671 203.027 228.466C203.321 228.261 203.497 228.022 203.555 227.751H204.545C204.465 228.154 204.303 228.503 204.061 228.796C203.819 229.089 203.515 229.313 203.148 229.467C202.782 229.621 202.367 229.698 201.905 229.698ZM208.069 229.676C207.299 229.676 206.701 229.511 206.276 229.181C205.858 228.851 205.642 228.4 205.627 227.828H206.617C206.632 228.055 206.745 228.272 206.958 228.477C207.178 228.675 207.548 228.774 208.069 228.774C208.538 228.774 208.898 228.682 209.147 228.499C209.396 228.308 209.521 228.077 209.521 227.806C209.521 227.564 209.429 227.377 209.246 227.245C209.063 227.106 208.766 227.014 208.355 226.97L207.717 226.904C207.16 226.845 206.705 226.68 206.353 226.409C206.001 226.13 205.825 225.742 205.825 225.243C205.825 224.869 205.92 224.55 206.111 224.286C206.302 224.015 206.566 223.809 206.903 223.67C207.24 223.523 207.629 223.45 208.069 223.45C208.729 223.45 209.264 223.597 209.675 223.89C210.086 224.183 210.298 224.62 210.313 225.199H209.323C209.316 224.964 209.206 224.766 208.993 224.605C208.788 224.436 208.48 224.352 208.069 224.352C207.658 224.352 207.347 224.436 207.134 224.605C206.921 224.774 206.815 224.986 206.815 225.243C206.815 225.463 206.888 225.639 207.035 225.771C207.189 225.903 207.438 225.987 207.783 226.024L208.421 226.09C209.052 226.156 209.558 226.332 209.939 226.618C210.32 226.897 210.511 227.293 210.511 227.806C210.511 228.173 210.405 228.499 210.192 228.785C209.987 229.064 209.701 229.284 209.334 229.445C208.967 229.599 208.546 229.676 208.069 229.676ZM213.966 229.676C213.196 229.676 212.599 229.511 212.173 229.181C211.755 228.851 211.539 228.4 211.524 227.828H212.514C212.529 228.055 212.643 228.272 212.855 228.477C213.075 228.675 213.446 228.774 213.966 228.774C214.436 228.774 214.795 228.682 215.044 228.499C215.294 228.308 215.418 228.077 215.418 227.806C215.418 227.564 215.327 227.377 215.143 227.245C214.96 227.106 214.663 227.014 214.252 226.97L213.614 226.904C213.057 226.845 212.602 226.68 212.25 226.409C211.898 226.13 211.722 225.742 211.722 225.243C211.722 224.869 211.818 224.55 212.008 224.286C212.199 224.015 212.463 223.809 212.8 223.67C213.138 223.523 213.526 223.45 213.966 223.45C214.626 223.45 215.162 223.597 215.572 223.89C215.983 224.183 216.196 224.62 216.21 225.199H215.22C215.213 224.964 215.103 224.766 214.89 224.605C214.685 224.436 214.377 224.352 213.966 224.352C213.556 224.352 213.244 224.436 213.031 224.605C212.819 224.774 212.712 224.986 212.712 225.243C212.712 225.463 212.786 225.639 212.932 225.771C213.086 225.903 213.336 225.987 213.68 226.024L214.318 226.09C214.949 226.156 215.455 226.332 215.836 226.618C216.218 226.897 216.408 227.293 216.408 227.806C216.408 228.173 216.302 228.499 216.089 228.785C215.884 229.064 215.598 229.284 215.231 229.445C214.865 229.599 214.443 229.676 213.966 229.676ZM220.645 229.698C220.131 229.698 219.68 229.61 219.292 229.434C218.903 229.258 218.573 229.027 218.302 228.741C218.038 228.448 217.836 228.121 217.697 227.762C217.565 227.403 217.499 227.036 217.499 226.662V226.464C217.499 226.09 217.568 225.723 217.708 225.364C217.847 224.997 218.052 224.671 218.324 224.385C218.595 224.092 218.925 223.861 219.314 223.692C219.702 223.516 220.146 223.428 220.645 223.428C221.143 223.428 221.587 223.516 221.976 223.692C222.364 223.861 222.694 224.092 222.966 224.385C223.237 224.671 223.442 224.997 223.582 225.364C223.721 225.723 223.791 226.09 223.791 226.464V226.662C223.791 227.036 223.721 227.403 223.582 227.762C223.45 228.121 223.248 228.448 222.977 228.741C222.713 229.027 222.386 229.258 221.998 229.434C221.609 229.61 221.158 229.698 220.645 229.698ZM220.645 228.752C221.085 228.752 221.459 228.657 221.767 228.466C222.082 228.268 222.32 228.004 222.482 227.674C222.65 227.344 222.735 226.974 222.735 226.563C222.735 226.145 222.65 225.771 222.482 225.441C222.313 225.111 222.071 224.851 221.756 224.66C221.448 224.469 221.077 224.374 220.645 224.374C220.219 224.374 219.849 224.469 219.534 224.66C219.218 224.851 218.976 225.111 218.808 225.441C218.639 225.771 218.555 226.145 218.555 226.563C218.555 226.974 218.635 227.344 218.797 227.674C218.965 228.004 219.204 228.268 219.512 228.466C219.827 228.657 220.205 228.752 220.645 228.752ZM225.372 229.5V223.626H226.208V226.145H226.076C226.076 225.566 226.153 225.078 226.307 224.682C226.469 224.279 226.711 223.974 227.033 223.769C227.356 223.556 227.763 223.45 228.254 223.45H228.298C229.039 223.45 229.585 223.681 229.937 224.143C230.297 224.605 230.476 225.272 230.476 226.145V229.5H229.42V225.925C229.42 225.47 229.292 225.107 229.035 224.836C228.779 224.557 228.427 224.418 227.979 224.418C227.517 224.418 227.143 224.561 226.857 224.847C226.571 225.133 226.428 225.514 226.428 225.991V229.5H225.372ZM234.333 229.676C233.563 229.676 232.966 229.511 232.54 229.181C232.122 228.851 231.906 228.4 231.891 227.828H232.881C232.896 228.055 233.01 228.272 233.222 228.477C233.442 228.675 233.813 228.774 234.333 228.774C234.803 228.774 235.162 228.682 235.411 228.499C235.661 228.308 235.785 228.077 235.785 227.806C235.785 227.564 235.694 227.377 235.51 227.245C235.327 227.106 235.03 227.014 234.619 226.97L233.981 226.904C233.424 226.845 232.969 226.68 232.617 226.409C232.265 226.13 232.089 225.742 232.089 225.243C232.089 224.869 232.185 224.55 232.375 224.286C232.566 224.015 232.83 223.809 233.167 223.67C233.505 223.523 233.893 223.45 234.333 223.45C234.993 223.45 235.529 223.597 235.939 223.89C236.35 224.183 236.563 224.62 236.577 225.199H235.587C235.58 224.964 235.47 224.766 235.257 224.605C235.052 224.436 234.744 224.352 234.333 224.352C233.923 224.352 233.611 224.436 233.398 224.605C233.186 224.774 233.079 224.986 233.079 225.243C233.079 225.463 233.153 225.639 233.299 225.771C233.453 225.903 233.703 225.987 234.047 226.024L234.685 226.09C235.316 226.156 235.822 226.332 236.203 226.618C236.585 226.897 236.775 227.293 236.775 227.806C236.775 228.173 236.669 228.499 236.456 228.785C236.251 229.064 235.965 229.284 235.598 229.445C235.232 229.599 234.81 229.676 234.333 229.676Z" fill="#1C1D1D"/>
<rect x="87" y="266" width="112" height="33" rx="10" fill="#FF4B00"/>
<path d="M130.974 288V286.544H133.578C134.343 286.544 134.997 286.39 135.538 286.082C136.079 285.774 136.49 285.345 136.77 284.794C137.059 284.243 137.204 283.613 137.204 282.904C137.204 282.204 137.059 281.588 136.77 281.056C136.49 280.524 136.079 280.113 135.538 279.824C135.006 279.525 134.353 279.376 133.578 279.376H131.002V277.92H133.578C134.679 277.92 135.641 278.125 136.462 278.536C137.283 278.947 137.918 279.53 138.366 280.286C138.823 281.033 139.052 281.915 139.052 282.932C139.052 283.949 138.823 284.841 138.366 285.606C137.909 286.362 137.269 286.95 136.448 287.37C135.636 287.79 134.684 288 133.592 288H130.974ZM129.868 288V277.92H131.688V288H129.868ZM143.671 288.14C142.915 288.14 142.253 287.981 141.683 287.664C141.123 287.347 140.685 286.908 140.367 286.348C140.059 285.788 139.905 285.144 139.905 284.416C139.905 283.688 140.059 283.049 140.367 282.498C140.685 281.938 141.123 281.504 141.683 281.196C142.243 280.879 142.897 280.72 143.643 280.72C144.353 280.72 144.969 280.869 145.491 281.168C146.014 281.457 146.42 281.868 146.709 282.4C146.999 282.932 147.143 283.553 147.143 284.262C147.143 284.393 147.139 284.514 147.129 284.626C147.12 284.738 147.106 284.85 147.087 284.962H140.997V283.73H145.729L145.365 284.066C145.365 283.394 145.211 282.89 144.903 282.554C144.595 282.218 144.166 282.05 143.615 282.05C143.018 282.05 142.542 282.255 142.187 282.666C141.842 283.077 141.669 283.669 141.669 284.444C141.669 285.209 141.842 285.797 142.187 286.208C142.542 286.609 143.041 286.81 143.685 286.81C144.059 286.81 144.385 286.74 144.665 286.6C144.945 286.46 145.151 286.245 145.281 285.956H146.947C146.714 286.628 146.317 287.16 145.757 287.552C145.207 287.944 144.511 288.14 143.671 288.14ZM152.537 288.14C151.856 288.14 151.301 287.981 150.871 287.664C150.451 287.337 150.19 286.889 150.087 286.32L150.227 286.306V290.87H148.463V280.86H150.185V282.47L150.045 282.442C150.176 281.91 150.475 281.49 150.941 281.182C151.408 280.874 151.977 280.72 152.649 280.72C153.284 280.72 153.835 280.874 154.301 281.182C154.777 281.481 155.146 281.905 155.407 282.456C155.669 283.007 155.799 283.655 155.799 284.402C155.799 285.158 155.664 285.816 155.393 286.376C155.123 286.936 154.745 287.37 154.259 287.678C153.774 287.986 153.2 288.14 152.537 288.14ZM152.089 286.684C152.659 286.684 153.111 286.488 153.447 286.096C153.783 285.695 153.951 285.135 153.951 284.416C153.951 283.697 153.779 283.142 153.433 282.75C153.097 282.358 152.645 282.162 152.075 282.162C151.515 282.162 151.063 282.363 150.717 282.764C150.372 283.156 150.199 283.711 150.199 284.43C150.199 285.149 150.372 285.704 150.717 286.096C151.063 286.488 151.52 286.684 152.089 286.684ZM157.159 288V277.92H158.923V288H157.159ZM164.043 288.14C163.287 288.14 162.62 287.981 162.041 287.664C161.472 287.347 161.029 286.908 160.711 286.348C160.394 285.779 160.235 285.13 160.235 284.402C160.235 283.674 160.394 283.035 160.711 282.484C161.029 281.933 161.472 281.504 162.041 281.196C162.62 280.879 163.287 280.72 164.043 280.72C164.809 280.72 165.476 280.879 166.045 281.196C166.615 281.504 167.058 281.933 167.375 282.484C167.693 283.035 167.851 283.674 167.851 284.402C167.851 285.13 167.688 285.779 167.361 286.348C167.044 286.908 166.601 287.347 166.031 287.664C165.462 287.981 164.799 288.14 164.043 288.14ZM164.043 286.726C164.417 286.726 164.753 286.633 165.051 286.446C165.35 286.25 165.583 285.979 165.751 285.634C165.919 285.279 166.003 284.864 166.003 284.388C166.003 283.688 165.817 283.137 165.443 282.736C165.079 282.335 164.613 282.134 164.043 282.134C163.474 282.134 163.003 282.335 162.629 282.736C162.256 283.137 162.069 283.688 162.069 284.388C162.069 284.864 162.153 285.279 162.321 285.634C162.499 285.979 162.732 286.25 163.021 286.446C163.32 286.633 163.661 286.726 164.043 286.726ZM169.378 290.87L171.226 286.726L171.548 286.194L173.564 280.86H175.44L171.17 290.87H169.378ZM170.96 287.93L168.062 280.86H169.98L172.402 287.272L170.96 287.93Z" fill="white"/>
<path fill-rule="evenodd" clip-rule="evenodd" d="M110.495 277.334C113.378 274.849 118.538 274.021 120.228 274.067C120.52 274.075 120.708 274.109 120.764 274.165C121.16 274.561 120.453 281.606 117.22 284.839C114.94 287.119 113.26 288.001 111.966 288.149L109.097 288.425L106.504 285.833C106.504 285.833 106.543 284.327 106.773 283.215C106.796 283.104 106.821 282.997 106.848 282.896C107.461 280.587 107.881 279.918 110.09 277.709C110.219 277.58 110.354 277.455 110.495 277.334ZM116.551 280.323C116.014 280.86 115.143 280.86 114.606 280.323C114.069 279.786 114.069 278.915 114.606 278.378C115.143 277.841 116.014 277.841 116.551 278.378C117.088 278.915 117.088 279.786 116.551 280.323Z" fill="white"/>
<path d="M111.844 289.542L112.11 289.516L112.122 289.515C113.745 289.33 115.536 288.337 117.651 286.339C117.47 288.718 115.979 291.353 112.266 292.164L111.844 289.542Z" fill="white"/>
<path d="M102.652 282.551C103.489 278.72 106.268 277.254 108.705 277.153C107.822 278.052 107.183 278.771 106.705 279.536C106.135 280.446 105.835 281.352 105.519 282.543C105.48 282.688 105.446 282.84 105.415 282.996L102.652 282.551Z" fill="white"/>
<path d="M103.369 288.546C103.543 287.213 104.774 286.469 106.017 286.728C105.659 287.343 105.743 288.144 106.269 288.67C106.817 289.218 107.663 289.286 108.286 288.876C108.647 290.171 107.898 291.503 106.507 291.684L102.9 292.153L103.369 288.546Z" fill="white"/>
<rect x="30.5" y="24.5" width="392" height="328" rx="23.5" fill="white" stroke="#EEEEEE" stroke-width="3"/>
<rect x="60" y="51" width="334" height="130" rx="10" fill="url(#paint1_radial_2930_3648)"/>
<rect x="339.5" y="42.5" width="62" height="26" rx="4.5" fill="white" stroke="#DADADA"/>
<g clip-path="url(#clip1_2930_3648)">
<path d="M356.209 50.625C356.351 50.4827 356.52 50.3699 356.706 50.2929C356.892 50.2159 357.091 50.1763 357.292 50.1763C357.494 50.1763 357.693 50.2159 357.879 50.2929C358.064 50.3699 358.233 50.4827 358.376 50.625C358.518 50.7673 358.631 50.9362 358.708 51.122C358.785 51.3079 358.824 51.5071 358.824 51.7083C358.824 51.9095 358.785 52.1088 358.708 52.2946C358.631 52.4805 358.518 52.6494 358.376 52.7917L351.063 60.1042L348.084 60.9167L348.896 57.9375L356.209 50.625Z" stroke="black" stroke-linecap="round" stroke-linejoin="round"/>
</g>
<path d="M366.962 61V51.64H368.34V61H366.962ZM367.638 61V59.869H373.462V61H367.638ZM367.638 56.723V55.592H372.994V56.723H367.638ZM367.638 52.771V51.64H373.345V52.771H367.638ZM379.503 61V59.479L379.633 59.518C379.494 60.012 379.208 60.4063 378.775 60.701C378.341 60.987 377.821 61.13 377.215 61.13C376.617 61.13 376.092 60.987 375.642 60.701C375.2 60.415 374.853 60.0163 374.602 59.505C374.359 58.9937 374.238 58.3957 374.238 57.711C374.238 57.0177 374.363 56.411 374.615 55.891C374.866 55.371 375.217 54.968 375.668 54.682C376.118 54.396 376.647 54.253 377.254 54.253C377.886 54.253 378.406 54.4047 378.814 54.708C379.23 55.0027 379.503 55.4187 379.633 55.956L379.451 55.982V51.64H380.79V61H379.503ZM377.553 59.999C378.151 59.999 378.623 59.7953 378.97 59.388C379.316 58.972 379.49 58.4 379.49 57.672C379.49 56.9613 379.312 56.4023 378.957 55.995C378.61 55.579 378.138 55.371 377.54 55.371C376.95 55.371 376.482 55.579 376.136 55.995C375.798 56.4023 375.629 56.9743 375.629 57.711C375.629 58.4303 375.798 58.9937 376.136 59.401C376.482 59.7997 376.955 59.999 377.553 59.999ZM382.691 61V54.37H384.043V61H382.691ZM382.626 53.07V51.549H384.121V53.07H382.626ZM388.711 61.13C387.94 61.13 387.372 60.9523 387.008 60.597C386.653 60.233 386.475 59.7 386.475 58.998V52.849L387.814 52.342V59.011C387.814 59.3577 387.905 59.6133 388.087 59.778C388.269 59.9427 388.564 60.025 388.971 60.025C389.127 60.025 389.266 60.012 389.387 59.986C389.509 59.96 389.613 59.9297 389.699 59.895V60.987C389.604 61.0303 389.47 61.065 389.296 61.091C389.123 61.117 388.928 61.13 388.711 61.13ZM385.149 55.449V54.37H389.699V55.449H385.149Z" fill="black"/>
<rect x="60" y="208" width="255" height="16" rx="2" fill="#EEEEEE"/>
<path d="M65.8438 248.5C65.8438 248.69 65.6898 248.844 65.5 248.844C65.3102 248.844 65.1563 248.69 65.1563 248.5C65.1563 248.31 65.3102 248.156 65.5 248.156C65.6898 248.156 65.8438 248.31 65.8438 248.5Z" fill="#1C1D1D"/>
<path d="M65.8438 248.5C65.8438 248.69 65.6898 248.844 65.5 248.844C65.3102 248.844 65.1563 248.69 65.1563 248.5C65.1563 248.31 65.3102 248.156 65.5 248.156M65.8438 248.5C65.8438 248.31 65.6898 248.156 65.5 248.156M65.8438 248.5H67.5625M65.5 248.156V245.979M69.625 248.5C69.625 250.778 67.7782 252.625 65.5 252.625C63.2218 252.625 61.375 250.778 61.375 248.5C61.375 246.222 63.2218 244.375 65.5 244.375C67.7782 244.375 69.625 246.222 69.625 248.5Z" stroke="#1C1D1D" stroke-width="0.501194" stroke-linecap="round" stroke-linejoin="round"/>
<path d="M78.5428 252.5V244.998L79.0268 245.372H76.7608V244.47H79.5988V252.5H78.5428ZM81.721 252.5V251.158H82.997V252.5H81.721ZM81.721 248.43V247.088H82.997V248.43H81.721ZM87.0859 252.698C86.4845 252.698 85.9749 252.581 85.5569 252.346C85.1389 252.111 84.8199 251.8 84.5999 251.411C84.3872 251.022 84.2809 250.601 84.2809 250.146H85.3149C85.3149 250.645 85.4725 251.041 85.7879 251.334C86.1105 251.627 86.5432 251.774 87.0859 251.774C87.4452 251.774 87.7569 251.708 88.0209 251.576C88.2849 251.444 88.4902 251.257 88.6369 251.015C88.7835 250.766 88.8569 250.476 88.8569 250.146C88.8569 249.647 88.6955 249.244 88.3729 248.936C88.0575 248.628 87.6322 248.474 87.0969 248.474C86.8695 248.474 86.6715 248.503 86.5029 248.562C86.3415 248.613 86.1985 248.679 86.0739 248.76L85.5459 247.814L88.6149 245.57L88.5049 245.372H84.5999V244.47H89.4949V245.933L86.9539 247.781L86.1839 247.814C86.3085 247.77 86.4442 247.733 86.5909 247.704C86.7449 247.675 86.9245 247.66 87.1299 247.66C87.7165 247.66 88.2152 247.77 88.6259 247.99C89.0365 248.21 89.3482 248.503 89.5609 248.87C89.7809 249.237 89.8909 249.636 89.8909 250.069V250.223C89.8909 250.648 89.7809 251.052 89.5609 251.433C89.3482 251.807 89.0329 252.111 88.6149 252.346C88.2042 252.581 87.6945 252.698 87.0859 252.698ZM94.6457 252.698C94.0444 252.698 93.531 252.595 93.1057 252.39C92.6877 252.177 92.3467 251.891 92.0827 251.532C91.826 251.173 91.639 250.758 91.5217 250.289C91.4044 249.812 91.3457 249.31 91.3457 248.782V248.188C91.3457 247.447 91.4594 246.78 91.6867 246.186C91.9214 245.592 92.2807 245.123 92.7647 244.778C93.256 244.426 93.883 244.25 94.6457 244.25C95.4084 244.25 96.0317 244.426 96.5157 244.778C96.9997 245.123 97.3554 245.592 97.5827 246.186C97.8174 246.78 97.9347 247.447 97.9347 248.188V248.782C97.9347 249.31 97.876 249.812 97.7587 250.289C97.6414 250.758 97.4507 251.173 97.1867 251.532C96.93 251.891 96.5927 252.177 96.1747 252.39C95.7567 252.595 95.247 252.698 94.6457 252.698ZM94.6457 251.73C95.4084 251.73 95.9657 251.473 96.3177 250.96C96.677 250.439 96.8567 249.618 96.8567 248.496C96.8567 247.323 96.6734 246.483 96.3067 245.977C95.9474 245.471 95.3937 245.218 94.6457 245.218C93.8904 245.218 93.3294 245.471 92.9627 245.977C92.6034 246.483 92.4237 247.315 92.4237 248.474C92.4237 249.603 92.6034 250.428 92.9627 250.949C93.322 251.47 93.883 251.73 94.6457 251.73ZM99.7405 252.5V244.47H100.797V249.266H100.533C100.533 248.687 100.606 248.188 100.753 247.77C100.907 247.345 101.141 247.018 101.457 246.791C101.772 246.564 102.175 246.45 102.667 246.45H102.711C103.415 246.45 103.946 246.685 104.306 247.154C104.665 247.616 104.845 248.28 104.845 249.145V252.5H103.789V248.925C103.789 248.448 103.653 248.078 103.382 247.814C103.118 247.55 102.773 247.418 102.348 247.418C101.878 247.418 101.501 247.576 101.215 247.891C100.936 248.199 100.797 248.606 100.797 249.112V252.5H99.7405ZM106.777 252.5V246.626H107.613V249.046H107.569C107.569 248.188 107.756 247.561 108.13 247.165C108.511 246.762 109.079 246.56 109.835 246.56H110.033V247.506H109.659C109.072 247.506 108.621 247.664 108.306 247.979C107.99 248.287 107.833 248.734 107.833 249.321V252.5H106.777ZM113.213 252.676C112.443 252.676 111.846 252.511 111.42 252.181C111.002 251.851 110.786 251.4 110.771 250.828H111.761C111.776 251.055 111.89 251.272 112.102 251.477C112.322 251.675 112.693 251.774 113.213 251.774C113.683 251.774 114.042 251.682 114.291 251.499C114.541 251.308 114.665 251.077 114.665 250.806C114.665 250.564 114.574 250.377 114.39 250.245C114.207 250.106 113.91 250.014 113.499 249.97L112.861 249.904C112.304 249.845 111.849 249.68 111.497 249.409C111.145 249.13 110.969 248.742 110.969 248.243C110.969 247.869 111.065 247.55 111.255 247.286C111.446 247.015 111.71 246.809 112.047 246.67C112.385 246.523 112.773 246.45 113.213 246.45C113.873 246.45 114.409 246.597 114.819 246.89C115.23 247.183 115.443 247.62 115.457 248.199H114.467C114.46 247.964 114.35 247.766 114.137 247.605C113.932 247.436 113.624 247.352 113.213 247.352C112.803 247.352 112.491 247.436 112.278 247.605C112.066 247.774 111.959 247.986 111.959 248.243C111.959 248.463 112.033 248.639 112.179 248.771C112.333 248.903 112.583 248.987 112.927 249.024L113.565 249.09C114.196 249.156 114.702 249.332 115.083 249.618C115.465 249.897 115.655 250.293 115.655 250.806C115.655 251.173 115.549 251.499 115.336 251.785C115.131 252.064 114.845 252.284 114.478 252.445C114.112 252.599 113.69 252.676 113.213 252.676Z" fill="#1C1D1D"/>
<path d="M136.192 246.667C136.192 246.92 135.987 247.125 135.734 247.125C135.481 247.125 135.275 246.92 135.275 246.667C135.275 246.413 135.481 246.208 135.734 246.208C135.987 246.208 136.192 246.413 136.192 246.667Z" fill="#1C1D1D"/>
<path d="M137.222 246.667H138.826M135.618 248.5H138.826M135.618 250.333H138.826M135.818 252.625H138.626C139.378 252.625 139.754 252.625 140.017 252.434C140.102 252.372 140.177 252.297 140.239 252.212C140.43 251.948 140.43 251.572 140.43 250.821V246.179C140.43 245.428 140.43 245.052 140.239 244.788C140.177 244.703 140.102 244.628 140.017 244.566C139.754 244.375 139.378 244.375 138.626 244.375H135.818C135.066 244.375 134.69 244.375 134.427 244.566C134.342 244.628 134.267 244.703 134.205 244.788C134.014 245.052 134.014 245.428 134.014 246.179V250.821C134.014 251.572 134.014 251.948 134.205 252.212C134.267 252.297 134.342 252.372 134.427 252.434C134.69 252.625 135.066 252.625 135.818 252.625Z" stroke="#1C1D1D" stroke-width="0.501194" stroke-linecap="round" stroke-linejoin="round"/>
<path d="M152.113 252.698C151.512 252.698 150.999 252.595 150.573 252.39C150.155 252.177 149.814 251.891 149.55 251.532C149.294 251.173 149.107 250.758 148.989 250.289C148.872 249.812 148.813 249.31 148.813 248.782V248.188C148.813 247.447 148.927 246.78 149.154 246.186C149.389 245.592 149.748 245.123 150.232 244.778C150.724 244.426 151.351 244.25 152.113 244.25C152.876 244.25 153.499 244.426 153.983 244.778C154.467 245.123 154.823 245.592 155.05 246.186C155.285 246.78 155.402 247.447 155.402 248.188V248.782C155.402 249.31 155.344 249.812 155.226 250.289C155.109 250.758 154.918 251.173 154.654 251.532C154.398 251.891 154.06 252.177 153.642 252.39C153.224 252.595 152.715 252.698 152.113 252.698ZM152.113 251.73C152.876 251.73 153.433 251.473 153.785 250.96C154.145 250.439 154.324 249.618 154.324 248.496C154.324 247.323 154.141 246.483 153.774 245.977C153.415 245.471 152.861 245.218 152.113 245.218C151.358 245.218 150.797 245.471 150.43 245.977C150.071 246.483 149.891 247.315 149.891 248.474C149.891 249.603 150.071 250.428 150.43 250.949C150.79 251.47 151.351 251.73 152.113 251.73ZM159.485 252.698C158.884 252.698 158.374 252.581 157.956 252.346C157.538 252.111 157.219 251.8 156.999 251.411C156.787 251.022 156.68 250.601 156.68 250.146H157.714C157.714 250.645 157.872 251.041 158.187 251.334C158.51 251.627 158.943 251.774 159.485 251.774C159.845 251.774 160.156 251.708 160.42 251.576C160.684 251.444 160.89 251.257 161.036 251.015C161.183 250.766 161.256 250.476 161.256 250.146C161.256 249.647 161.095 249.244 160.772 248.936C160.457 248.628 160.032 248.474 159.496 248.474C159.269 248.474 159.071 248.503 158.902 248.562C158.741 248.613 158.598 248.679 158.473 248.76L157.945 247.814L161.014 245.57L160.904 245.372H156.999V244.47H161.894V245.933L159.353 247.781L158.583 247.814C158.708 247.77 158.844 247.733 158.99 247.704C159.144 247.675 159.324 247.66 159.529 247.66C160.116 247.66 160.615 247.77 161.025 247.99C161.436 248.21 161.748 248.503 161.96 248.87C162.18 249.237 162.29 249.636 162.29 250.069V250.223C162.29 250.648 162.18 251.052 161.96 251.433C161.748 251.807 161.432 252.111 161.014 252.346C160.604 252.581 160.094 252.698 159.485 252.698ZM166.622 252.5V244.47H167.7V252.5H166.622ZM167.48 252.5V251.532H171.154V252.5H167.48ZM174.905 252.698C174.392 252.698 173.948 252.61 173.574 252.434C173.2 252.258 172.896 252.027 172.661 251.741C172.427 251.448 172.251 251.121 172.133 250.762C172.023 250.403 171.968 250.036 171.968 249.662V249.464C171.968 249.083 172.023 248.712 172.133 248.353C172.251 247.994 172.427 247.671 172.661 247.385C172.896 247.092 173.193 246.861 173.552 246.692C173.919 246.516 174.348 246.428 174.839 246.428C175.477 246.428 176.002 246.567 176.412 246.846C176.83 247.117 177.138 247.469 177.336 247.902C177.542 248.335 177.644 248.797 177.644 249.288V249.761H172.43V248.969H176.874L176.632 249.398C176.632 248.98 176.566 248.621 176.434 248.32C176.302 248.012 176.104 247.774 175.84 247.605C175.576 247.436 175.243 247.352 174.839 247.352C174.421 247.352 174.073 247.447 173.794 247.638C173.523 247.829 173.318 248.089 173.178 248.419C173.046 248.749 172.98 249.13 172.98 249.563C172.98 249.981 173.046 250.359 173.178 250.696C173.318 251.026 173.53 251.29 173.816 251.488C174.102 251.679 174.465 251.774 174.905 251.774C175.367 251.774 175.741 251.671 176.027 251.466C176.321 251.261 176.497 251.022 176.555 250.751H177.545C177.465 251.154 177.303 251.503 177.061 251.796C176.819 252.089 176.515 252.313 176.148 252.467C175.782 252.621 175.367 252.698 174.905 252.698ZM181.069 252.676C180.299 252.676 179.701 252.511 179.276 252.181C178.858 251.851 178.642 251.4 178.627 250.828H179.617C179.632 251.055 179.745 251.272 179.958 251.477C180.178 251.675 180.548 251.774 181.069 251.774C181.538 251.774 181.898 251.682 182.147 251.499C182.396 251.308 182.521 251.077 182.521 250.806C182.521 250.564 182.429 250.377 182.246 250.245C182.063 250.106 181.766 250.014 181.355 249.97L180.717 249.904C180.16 249.845 179.705 249.68 179.353 249.409C179.001 249.13 178.825 248.742 178.825 248.243C178.825 247.869 178.92 247.55 179.111 247.286C179.302 247.015 179.566 246.809 179.903 246.67C180.24 246.523 180.629 246.45 181.069 246.45C181.729 246.45 182.264 246.597 182.675 246.89C183.086 247.183 183.298 247.62 183.313 248.199H182.323C182.316 247.964 182.206 247.766 181.993 247.605C181.788 247.436 181.48 247.352 181.069 247.352C180.658 247.352 180.347 247.436 180.134 247.605C179.921 247.774 179.815 247.986 179.815 248.243C179.815 248.463 179.888 248.639 180.035 248.771C180.189 248.903 180.438 248.987 180.783 249.024L181.421 249.09C182.052 249.156 182.558 249.332 182.939 249.618C183.32 249.897 183.511 250.293 183.511 250.806C183.511 251.173 183.405 251.499 183.192 251.785C182.987 252.064 182.701 252.284 182.334 252.445C181.967 252.599 181.546 252.676 181.069 252.676ZM186.966 252.676C186.196 252.676 185.599 252.511 185.173 252.181C184.755 251.851 184.539 251.4 184.524 250.828H185.514C185.529 251.055 185.643 251.272 185.855 251.477C186.075 251.675 186.446 251.774 186.966 251.774C187.436 251.774 187.795 251.682 188.044 251.499C188.294 251.308 188.418 251.077 188.418 250.806C188.418 250.564 188.327 250.377 188.143 250.245C187.96 250.106 187.663 250.014 187.252 249.97L186.614 249.904C186.057 249.845 185.602 249.68 185.25 249.409C184.898 249.13 184.722 248.742 184.722 248.243C184.722 247.869 184.818 247.55 185.008 247.286C185.199 247.015 185.463 246.809 185.8 246.67C186.138 246.523 186.526 246.45 186.966 246.45C187.626 246.45 188.162 246.597 188.572 246.89C188.983 247.183 189.196 247.62 189.21 248.199H188.22C188.213 247.964 188.103 247.766 187.89 247.605C187.685 247.436 187.377 247.352 186.966 247.352C186.556 247.352 186.244 247.436 186.031 247.605C185.819 247.774 185.712 247.986 185.712 248.243C185.712 248.463 185.786 248.639 185.932 248.771C186.086 248.903 186.336 248.987 186.68 249.024L187.318 249.09C187.949 249.156 188.455 249.332 188.836 249.618C189.218 249.897 189.408 250.293 189.408 250.806C189.408 251.173 189.302 251.499 189.089 251.785C188.884 252.064 188.598 252.284 188.231 252.445C187.865 252.599 187.443 252.676 186.966 252.676ZM193.645 252.698C193.131 252.698 192.68 252.61 192.292 252.434C191.903 252.258 191.573 252.027 191.302 251.741C191.038 251.448 190.836 251.121 190.697 250.762C190.565 250.403 190.499 250.036 190.499 249.662V249.464C190.499 249.09 190.568 248.723 190.708 248.364C190.847 247.997 191.052 247.671 191.324 247.385C191.595 247.092 191.925 246.861 192.314 246.692C192.702 246.516 193.146 246.428 193.645 246.428C194.143 246.428 194.587 246.516 194.976 246.692C195.364 246.861 195.694 247.092 195.966 247.385C196.237 247.671 196.442 247.997 196.582 248.364C196.721 248.723 196.791 249.09 196.791 249.464V249.662C196.791 250.036 196.721 250.403 196.582 250.762C196.45 251.121 196.248 251.448 195.977 251.741C195.713 252.027 195.386 252.258 194.998 252.434C194.609 252.61 194.158 252.698 193.645 252.698ZM193.645 251.752C194.085 251.752 194.459 251.657 194.767 251.466C195.082 251.268 195.32 251.004 195.482 250.674C195.65 250.344 195.735 249.974 195.735 249.563C195.735 249.145 195.65 248.771 195.482 248.441C195.313 248.111 195.071 247.851 194.756 247.66C194.448 247.469 194.077 247.374 193.645 247.374C193.219 247.374 192.849 247.469 192.534 247.66C192.218 247.851 191.976 248.111 191.808 248.441C191.639 248.771 191.555 249.145 191.555 249.563C191.555 249.974 191.635 250.344 191.797 250.674C191.965 251.004 192.204 251.268 192.512 251.466C192.827 251.657 193.205 251.752 193.645 251.752ZM198.372 252.5V246.626H199.208V249.145H199.076C199.076 248.566 199.153 248.078 199.307 247.682C199.469 247.279 199.711 246.974 200.033 246.769C200.356 246.556 200.763 246.45 201.254 246.45H201.298C202.039 246.45 202.585 246.681 202.937 247.143C203.297 247.605 203.476 248.272 203.476 249.145V252.5H202.42V248.925C202.42 248.47 202.292 248.107 202.035 247.836C201.779 247.557 201.427 247.418 200.979 247.418C200.517 247.418 200.143 247.561 199.857 247.847C199.571 248.133 199.428 248.514 199.428 248.991V252.5H198.372ZM207.333 252.676C206.563 252.676 205.966 252.511 205.54 252.181C205.122 251.851 204.906 251.4 204.891 250.828H205.881C205.896 251.055 206.01 251.272 206.222 251.477C206.442 251.675 206.813 251.774 207.333 251.774C207.803 251.774 208.162 251.682 208.411 251.499C208.661 251.308 208.785 251.077 208.785 250.806C208.785 250.564 208.694 250.377 208.51 250.245C208.327 250.106 208.03 250.014 207.619 249.97L206.981 249.904C206.424 249.845 205.969 249.68 205.617 249.409C205.265 249.13 205.089 248.742 205.089 248.243C205.089 247.869 205.185 247.55 205.375 247.286C205.566 247.015 205.83 246.809 206.167 246.67C206.505 246.523 206.893 246.45 207.333 246.45C207.993 246.45 208.529 246.597 208.939 246.89C209.35 247.183 209.563 247.62 209.577 248.199H208.587C208.58 247.964 208.47 247.766 208.257 247.605C208.052 247.436 207.744 247.352 207.333 247.352C206.923 247.352 206.611 247.436 206.398 247.605C206.186 247.774 206.079 247.986 206.079 248.243C206.079 248.463 206.153 248.639 206.299 248.771C206.453 248.903 206.703 248.987 207.047 249.024L207.685 249.09C208.316 249.156 208.822 249.332 209.203 249.618C209.585 249.897 209.775 250.293 209.775 250.806C209.775 251.173 209.669 251.499 209.456 251.785C209.251 252.064 208.965 252.284 208.598 252.445C208.232 252.599 207.81 252.676 207.333 252.676Z" fill="#1C1D1D"/>
<rect x="60" y="289" width="112" height="33" rx="10" fill="#FF4B00"/>
<path d="M103.974 311V309.544H106.578C107.343 309.544 107.997 309.39 108.538 309.082C109.079 308.774 109.49 308.345 109.77 307.794C110.059 307.243 110.204 306.613 110.204 305.904C110.204 305.204 110.059 304.588 109.77 304.056C109.49 303.524 109.079 303.113 108.538 302.824C108.006 302.525 107.353 302.376 106.578 302.376H104.002V300.92H106.578C107.679 300.92 108.641 301.125 109.462 301.536C110.283 301.947 110.918 302.53 111.366 303.286C111.823 304.033 112.052 304.915 112.052 305.932C112.052 306.949 111.823 307.841 111.366 308.606C110.909 309.362 110.269 309.95 109.448 310.37C108.636 310.79 107.684 311 106.592 311H103.974ZM102.868 311V300.92H104.688V311H102.868ZM116.671 311.14C115.915 311.14 115.253 310.981 114.683 310.664C114.123 310.347 113.685 309.908 113.367 309.348C113.059 308.788 112.905 308.144 112.905 307.416C112.905 306.688 113.059 306.049 113.367 305.498C113.685 304.938 114.123 304.504 114.683 304.196C115.243 303.879 115.897 303.72 116.643 303.72C117.353 303.72 117.969 303.869 118.491 304.168C119.014 304.457 119.42 304.868 119.709 305.4C119.999 305.932 120.143 306.553 120.143 307.262C120.143 307.393 120.139 307.514 120.129 307.626C120.12 307.738 120.106 307.85 120.087 307.962H113.997V306.73H118.729L118.365 307.066C118.365 306.394 118.211 305.89 117.903 305.554C117.595 305.218 117.166 305.05 116.615 305.05C116.018 305.05 115.542 305.255 115.187 305.666C114.842 306.077 114.669 306.669 114.669 307.444C114.669 308.209 114.842 308.797 115.187 309.208C115.542 309.609 116.041 309.81 116.685 309.81C117.059 309.81 117.385 309.74 117.665 309.6C117.945 309.46 118.151 309.245 118.281 308.956H119.947C119.714 309.628 119.317 310.16 118.757 310.552C118.207 310.944 117.511 311.14 116.671 311.14ZM125.537 311.14C124.856 311.14 124.301 310.981 123.871 310.664C123.451 310.337 123.19 309.889 123.087 309.32L123.227 309.306V313.87H121.463V303.86H123.185V305.47L123.045 305.442C123.176 304.91 123.475 304.49 123.941 304.182C124.408 303.874 124.977 303.72 125.649 303.72C126.284 303.72 126.835 303.874 127.301 304.182C127.777 304.481 128.146 304.905 128.407 305.456C128.669 306.007 128.799 306.655 128.799 307.402C128.799 308.158 128.664 308.816 128.393 309.376C128.123 309.936 127.745 310.37 127.259 310.678C126.774 310.986 126.2 311.14 125.537 311.14ZM125.089 309.684C125.659 309.684 126.111 309.488 126.447 309.096C126.783 308.695 126.951 308.135 126.951 307.416C126.951 306.697 126.779 306.142 126.433 305.75C126.097 305.358 125.645 305.162 125.075 305.162C124.515 305.162 124.063 305.363 123.717 305.764C123.372 306.156 123.199 306.711 123.199 307.43C123.199 308.149 123.372 308.704 123.717 309.096C124.063 309.488 124.52 309.684 125.089 309.684ZM130.159 311V300.92H131.923V311H130.159ZM137.043 311.14C136.287 311.14 135.62 310.981 135.041 310.664C134.472 310.347 134.029 309.908 133.711 309.348C133.394 308.779 133.235 308.13 133.235 307.402C133.235 306.674 133.394 306.035 133.711 305.484C134.029 304.933 134.472 304.504 135.041 304.196C135.62 303.879 136.287 303.72 137.043 303.72C137.809 303.72 138.476 303.879 139.045 304.196C139.615 304.504 140.058 304.933 140.375 305.484C140.693 306.035 140.851 306.674 140.851 307.402C140.851 308.13 140.688 308.779 140.361 309.348C140.044 309.908 139.601 310.347 139.031 310.664C138.462 310.981 137.799 311.14 137.043 311.14ZM137.043 309.726C137.417 309.726 137.753 309.633 138.051 309.446C138.35 309.25 138.583 308.979 138.751 308.634C138.919 308.279 139.003 307.864 139.003 307.388C139.003 306.688 138.817 306.137 138.443 305.736C138.079 305.335 137.613 305.134 137.043 305.134C136.474 305.134 136.003 305.335 135.629 305.736C135.256 306.137 135.069 306.688 135.069 307.388C135.069 307.864 135.153 308.279 135.321 308.634C135.499 308.979 135.732 309.25 136.021 309.446C136.32 309.633 136.661 309.726 137.043 309.726ZM142.378 313.87L144.226 309.726L144.548 309.194L146.564 303.86H148.44L144.17 313.87H142.378ZM143.96 310.93L141.062 303.86H142.98L145.402 310.272L143.96 310.93Z" fill="white"/>
<path fill-rule="evenodd" clip-rule="evenodd" d="M83.4946 300.334C86.3782 297.849 91.538 297.021 93.2284 297.067C93.5197 297.075 93.7079 297.109 93.7638 297.165C94.1599 297.561 93.4531 304.606 90.2197 307.839C87.9401 310.119 86.2596 311.001 84.966 311.149L82.0967 311.425L79.5039 308.833C79.5039 308.833 79.5433 307.327 79.7733 306.215C79.7962 306.104 79.821 305.997 79.8478 305.896C80.4608 303.587 80.8811 302.918 83.0898 300.709C83.2188 300.58 83.354 300.455 83.4946 300.334ZM89.5506 303.323C89.0137 303.86 88.1431 303.86 87.6061 303.323C87.0691 302.786 87.0691 301.915 87.6061 301.378C88.1431 300.841 89.0137 300.841 89.5506 301.378C90.0876 301.915 90.0876 302.786 89.5506 303.323Z" fill="white"/>
<path d="M84.8438 312.542L85.1103 312.516L85.122 312.515C86.7449 312.33 88.5365 311.337 90.6506 309.339C90.4705 311.718 88.9788 314.353 85.2658 315.164L84.8438 312.542Z" fill="white"/>
<path d="M75.6523 305.551C76.4893 301.72 79.2682 300.254 81.7046 300.153C80.8218 301.052 80.1832 301.771 79.7046 302.536C79.1352 303.446 78.835 304.352 78.5188 305.543C78.4802 305.688 78.4457 305.84 78.4146 305.996L75.6523 305.551Z" fill="white"/>
<path d="M76.3694 311.546C76.5427 310.213 77.7738 309.469 79.0167 309.728C78.6588 310.343 78.743 311.144 79.2693 311.67C79.8173 312.218 80.6631 312.286 81.2857 311.876C81.6474 313.171 80.8977 314.503 79.5069 314.684L75.9004 315.153L76.3694 311.546Z" fill="white"/>
<rect x="1.5" y="55.5" width="392" height="328" rx="23.5" fill="white" stroke="#EEEEEE" stroke-width="3"/>
<rect x="31" y="82" width="334" height="130" rx="10" fill="url(#paint2_radial_2930_3648)"/>
<rect x="310.5" y="73.5" width="62" height="26" rx="4.5" fill="white" stroke="#DADADA"/>
<g clip-path="url(#clip2_2930_3648)">
<path d="M327.209 81.625C327.351 81.4827 327.52 81.3699 327.706 81.2929C327.892 81.2159 328.091 81.1763 328.292 81.1763C328.494 81.1763 328.693 81.2159 328.879 81.2929C329.064 81.3699 329.233 81.4827 329.376 81.625C329.518 81.7673 329.631 81.9362 329.708 82.122C329.785 82.3079 329.824 82.5071 329.824 82.7083C329.824 82.9095 329.785 83.1088 329.708 83.2946C329.631 83.4805 329.518 83.6494 329.376 83.7917L322.063 91.1042L319.084 91.9167L319.896 88.9375L327.209 81.625Z" stroke="black" stroke-linecap="round" stroke-linejoin="round"/>
</g>
<path d="M337.962 92V82.64H339.34V92H337.962ZM338.638 92V90.869H344.462V92H338.638ZM338.638 87.723V86.592H343.994V87.723H338.638ZM338.638 83.771V82.64H344.345V83.771H338.638ZM350.503 92V90.479L350.633 90.518C350.494 91.012 350.208 91.4063 349.775 91.701C349.341 91.987 348.821 92.13 348.215 92.13C347.617 92.13 347.092 91.987 346.642 91.701C346.2 91.415 345.853 91.0163 345.602 90.505C345.359 89.9937 345.238 89.3957 345.238 88.711C345.238 88.0177 345.363 87.411 345.615 86.891C345.866 86.371 346.217 85.968 346.668 85.682C347.118 85.396 347.647 85.253 348.254 85.253C348.886 85.253 349.406 85.4047 349.814 85.708C350.23 86.0027 350.503 86.4187 350.633 86.956L350.451 86.982V82.64H351.79V92H350.503ZM348.553 90.999C349.151 90.999 349.623 90.7953 349.97 90.388C350.316 89.972 350.49 89.4 350.49 88.672C350.49 87.9613 350.312 87.4023 349.957 86.995C349.61 86.579 349.138 86.371 348.54 86.371C347.95 86.371 347.482 86.579 347.136 86.995C346.798 87.4023 346.629 87.9743 346.629 88.711C346.629 89.4303 346.798 89.9937 347.136 90.401C347.482 90.7997 347.955 90.999 348.553 90.999ZM353.691 92V85.37H355.043V92H353.691ZM353.626 84.07V82.549H355.121V84.07H353.626ZM359.711 92.13C358.94 92.13 358.372 91.9523 358.008 91.597C357.653 91.233 357.475 90.7 357.475 89.998V83.849L358.814 83.342V90.011C358.814 90.3577 358.905 90.6133 359.087 90.778C359.269 90.9427 359.564 91.025 359.971 91.025C360.127 91.025 360.266 91.012 360.387 90.986C360.509 90.96 360.613 90.9297 360.699 90.895V91.987C360.604 92.0303 360.47 92.065 360.296 92.091C360.123 92.117 359.928 92.13 359.711 92.13ZM356.149 86.449V85.37H360.699V86.449H356.149Z" fill="black"/>
<rect x="31" y="239" width="255" height="16" rx="2" fill="#EEEEEE"/>
<path d="M36.8438 279.5C36.8438 279.69 36.6898 279.844 36.5 279.844C36.3102 279.844 36.1563 279.69 36.1563 279.5C36.1563 279.31 36.3102 279.156 36.5 279.156C36.6898 279.156 36.8438 279.31 36.8438 279.5Z" fill="#1C1D1D"/>
<path d="M36.8438 279.5C36.8438 279.69 36.6898 279.844 36.5 279.844C36.3102 279.844 36.1563 279.69 36.1563 279.5C36.1563 279.31 36.3102 279.156 36.5 279.156M36.8438 279.5C36.8438 279.31 36.6898 279.156 36.5 279.156M36.8438 279.5H38.5625M36.5 279.156V276.979M40.625 279.5C40.625 281.778 38.7782 283.625 36.5 283.625C34.2218 283.625 32.375 281.778 32.375 279.5C32.375 277.222 34.2218 275.375 36.5 275.375C38.7782 275.375 40.625 277.222 40.625 279.5Z" stroke="#1C1D1D" stroke-width="0.501194" stroke-linecap="round" stroke-linejoin="round"/>
<path d="M49.5428 283.5V275.998L50.0268 276.372H47.7608V275.47H50.5988V283.5H49.5428ZM52.721 283.5V282.158H53.997V283.5H52.721ZM52.721 279.43V278.088H53.997V279.43H52.721ZM58.0859 283.698C57.4845 283.698 56.9749 283.581 56.5569 283.346C56.1389 283.111 55.8199 282.8 55.5999 282.411C55.3872 282.022 55.2809 281.601 55.2809 281.146H56.3149C56.3149 281.645 56.4725 282.041 56.7879 282.334C57.1105 282.627 57.5432 282.774 58.0859 282.774C58.4452 282.774 58.7569 282.708 59.0209 282.576C59.2849 282.444 59.4902 282.257 59.6369 282.015C59.7835 281.766 59.8569 281.476 59.8569 281.146C59.8569 280.647 59.6955 280.244 59.3729 279.936C59.0575 279.628 58.6322 279.474 58.0969 279.474C57.8695 279.474 57.6715 279.503 57.5029 279.562C57.3415 279.613 57.1985 279.679 57.0739 279.76L56.5459 278.814L59.6149 276.57L59.5049 276.372H55.5999V275.47H60.4949V276.933L57.9539 278.781L57.1839 278.814C57.3085 278.77 57.4442 278.733 57.5909 278.704C57.7449 278.675 57.9245 278.66 58.1299 278.66C58.7165 278.66 59.2152 278.77 59.6259 278.99C60.0365 279.21 60.3482 279.503 60.5609 279.87C60.7809 280.237 60.8909 280.636 60.8909 281.069V281.223C60.8909 281.648 60.7809 282.052 60.5609 282.433C60.3482 282.807 60.0329 283.111 59.6149 283.346C59.2042 283.581 58.6945 283.698 58.0859 283.698ZM65.6457 283.698C65.0444 283.698 64.531 283.595 64.1057 283.39C63.6877 283.177 63.3467 282.891 63.0827 282.532C62.826 282.173 62.639 281.758 62.5217 281.289C62.4044 280.812 62.3457 280.31 62.3457 279.782V279.188C62.3457 278.447 62.4594 277.78 62.6867 277.186C62.9214 276.592 63.2807 276.123 63.7647 275.778C64.256 275.426 64.883 275.25 65.6457 275.25C66.4084 275.25 67.0317 275.426 67.5157 275.778C67.9997 276.123 68.3554 276.592 68.5827 277.186C68.8174 277.78 68.9347 278.447 68.9347 279.188V279.782C68.9347 280.31 68.876 280.812 68.7587 281.289C68.6414 281.758 68.4507 282.173 68.1867 282.532C67.93 282.891 67.5927 283.177 67.1747 283.39C66.7567 283.595 66.247 283.698 65.6457 283.698ZM65.6457 282.73C66.4084 282.73 66.9657 282.473 67.3177 281.96C67.677 281.439 67.8567 280.618 67.8567 279.496C67.8567 278.323 67.6734 277.483 67.3067 276.977C66.9474 276.471 66.3937 276.218 65.6457 276.218C64.8904 276.218 64.3294 276.471 63.9627 276.977C63.6034 277.483 63.4237 278.315 63.4237 279.474C63.4237 280.603 63.6034 281.428 63.9627 281.949C64.322 282.47 64.883 282.73 65.6457 282.73ZM70.7405 283.5V275.47H71.7965V280.266H71.5325C71.5325 279.687 71.6058 279.188 71.7525 278.77C71.9065 278.345 72.1412 278.018 72.4565 277.791C72.7718 277.564 73.1752 277.45 73.6665 277.45H73.7105C74.4145 277.45 74.9462 277.685 75.3055 278.154C75.6648 278.616 75.8445 279.28 75.8445 280.145V283.5H74.7885V279.925C74.7885 279.448 74.6528 279.078 74.3815 278.814C74.1175 278.55 73.7728 278.418 73.3475 278.418C72.8782 278.418 72.5005 278.576 72.2145 278.891C71.9358 279.199 71.7965 279.606 71.7965 280.112V283.5H70.7405ZM77.7766 283.5V277.626H78.6126V280.046H78.5686C78.5686 279.188 78.7556 278.561 79.1296 278.165C79.511 277.762 80.0793 277.56 80.8346 277.56H81.0326V278.506H80.6586C80.072 278.506 79.621 278.664 79.3056 278.979C78.9903 279.287 78.8326 279.734 78.8326 280.321V283.5H77.7766ZM84.2134 283.676C83.4434 283.676 82.8457 283.511 82.4204 283.181C82.0024 282.851 81.786 282.4 81.7714 281.828H82.7614C82.776 282.055 82.8897 282.272 83.1024 282.477C83.3224 282.675 83.6927 282.774 84.2134 282.774C84.6827 282.774 85.042 282.682 85.2914 282.499C85.5407 282.308 85.6654 282.077 85.6654 281.806C85.6654 281.564 85.5737 281.377 85.3904 281.245C85.207 281.106 84.91 281.014 84.4994 280.97L83.8614 280.904C83.304 280.845 82.8494 280.68 82.4974 280.409C82.1454 280.13 81.9694 279.742 81.9694 279.243C81.9694 278.869 82.0647 278.55 82.2554 278.286C82.446 278.015 82.71 277.809 83.0474 277.67C83.3847 277.523 83.7734 277.45 84.2134 277.45C84.8734 277.45 85.4087 277.597 85.8194 277.89C86.23 278.183 86.4427 278.62 86.4574 279.199H85.4674C85.46 278.964 85.35 278.766 85.1374 278.605C84.932 278.436 84.624 278.352 84.2134 278.352C83.8027 278.352 83.491 278.436 83.2784 278.605C83.0657 278.774 82.9594 278.986 82.9594 279.243C82.9594 279.463 83.0327 279.639 83.1794 279.771C83.3334 279.903 83.5827 279.987 83.9274 280.024L84.5654 280.09C85.196 280.156 85.702 280.332 86.0834 280.618C86.4647 280.897 86.6554 281.293 86.6554 281.806C86.6554 282.173 86.549 282.499 86.3364 282.785C86.131 283.064 85.845 283.284 85.4784 283.445C85.1117 283.599 84.69 283.676 84.2134 283.676Z" fill="#1C1D1D"/>
<path d="M107.192 277.667C107.192 277.92 106.987 278.125 106.734 278.125C106.481 278.125 106.275 277.92 106.275 277.667C106.275 277.413 106.481 277.208 106.734 277.208C106.987 277.208 107.192 277.413 107.192 277.667Z" fill="#1C1D1D"/>
<path d="M108.222 277.667H109.826M106.618 279.5H109.826M106.618 281.333H109.826M106.818 283.625H109.626C110.378 283.625 110.754 283.625 111.017 283.434C111.102 283.372 111.177 283.297 111.239 283.212C111.43 282.948 111.43 282.572 111.43 281.821V277.179C111.43 276.428 111.43 276.052 111.239 275.788C111.177 275.703 111.102 275.628 111.017 275.566C110.754 275.375 110.378 275.375 109.626 275.375H106.818C106.066 275.375 105.69 275.375 105.427 275.566C105.342 275.628 105.267 275.703 105.205 275.788C105.014 276.052 105.014 276.428 105.014 277.179V281.821C105.014 282.572 105.014 282.948 105.205 283.212C105.267 283.297 105.342 283.372 105.427 283.434C105.69 283.625 106.066 283.625 106.818 283.625Z" stroke="#1C1D1D" stroke-width="0.501194" stroke-linecap="round" stroke-linejoin="round"/>
<path d="M123.113 283.698C122.512 283.698 121.999 283.595 121.573 283.39C121.155 283.177 120.814 282.891 120.55 282.532C120.294 282.173 120.107 281.758 119.989 281.289C119.872 280.812 119.813 280.31 119.813 279.782V279.188C119.813 278.447 119.927 277.78 120.154 277.186C120.389 276.592 120.748 276.123 121.232 275.778C121.724 275.426 122.351 275.25 123.113 275.25C123.876 275.25 124.499 275.426 124.983 275.778C125.467 276.123 125.823 276.592 126.05 277.186C126.285 277.78 126.402 278.447 126.402 279.188V279.782C126.402 280.31 126.344 280.812 126.226 281.289C126.109 281.758 125.918 282.173 125.654 282.532C125.398 282.891 125.06 283.177 124.642 283.39C124.224 283.595 123.715 283.698 123.113 283.698ZM123.113 282.73C123.876 282.73 124.433 282.473 124.785 281.96C125.145 281.439 125.324 280.618 125.324 279.496C125.324 278.323 125.141 277.483 124.774 276.977C124.415 276.471 123.861 276.218 123.113 276.218C122.358 276.218 121.797 276.471 121.43 276.977C121.071 277.483 120.891 278.315 120.891 279.474C120.891 280.603 121.071 281.428 121.43 281.949C121.79 282.47 122.351 282.73 123.113 282.73ZM130.485 283.698C129.884 283.698 129.374 283.581 128.956 283.346C128.538 283.111 128.219 282.8 127.999 282.411C127.787 282.022 127.68 281.601 127.68 281.146H128.714C128.714 281.645 128.872 282.041 129.187 282.334C129.51 282.627 129.943 282.774 130.485 282.774C130.845 282.774 131.156 282.708 131.42 282.576C131.684 282.444 131.89 282.257 132.036 282.015C132.183 281.766 132.256 281.476 132.256 281.146C132.256 280.647 132.095 280.244 131.772 279.936C131.457 279.628 131.032 279.474 130.496 279.474C130.269 279.474 130.071 279.503 129.902 279.562C129.741 279.613 129.598 279.679 129.473 279.76L128.945 278.814L132.014 276.57L131.904 276.372H127.999V275.47H132.894V276.933L130.353 278.781L129.583 278.814C129.708 278.77 129.844 278.733 129.99 278.704C130.144 278.675 130.324 278.66 130.529 278.66C131.116 278.66 131.615 278.77 132.025 278.99C132.436 279.21 132.748 279.503 132.96 279.87C133.18 280.237 133.29 280.636 133.29 281.069V281.223C133.29 281.648 133.18 282.052 132.96 282.433C132.748 282.807 132.432 283.111 132.014 283.346C131.604 283.581 131.094 283.698 130.485 283.698ZM137.622 283.5V275.47H138.7V283.5H137.622ZM138.48 283.5V282.532H142.154V283.5H138.48ZM145.905 283.698C145.392 283.698 144.948 283.61 144.574 283.434C144.2 283.258 143.896 283.027 143.661 282.741C143.427 282.448 143.251 282.121 143.133 281.762C143.023 281.403 142.968 281.036 142.968 280.662V280.464C142.968 280.083 143.023 279.712 143.133 279.353C143.251 278.994 143.427 278.671 143.661 278.385C143.896 278.092 144.193 277.861 144.552 277.692C144.919 277.516 145.348 277.428 145.839 277.428C146.477 277.428 147.002 277.567 147.412 277.846C147.83 278.117 148.138 278.469 148.336 278.902C148.542 279.335 148.644 279.797 148.644 280.288V280.761H143.43V279.969H147.874L147.632 280.398C147.632 279.98 147.566 279.621 147.434 279.32C147.302 279.012 147.104 278.774 146.84 278.605C146.576 278.436 146.243 278.352 145.839 278.352C145.421 278.352 145.073 278.447 144.794 278.638C144.523 278.829 144.318 279.089 144.178 279.419C144.046 279.749 143.98 280.13 143.98 280.563C143.98 280.981 144.046 281.359 144.178 281.696C144.318 282.026 144.53 282.29 144.816 282.488C145.102 282.679 145.465 282.774 145.905 282.774C146.367 282.774 146.741 282.671 147.027 282.466C147.321 282.261 147.497 282.022 147.555 281.751H148.545C148.465 282.154 148.303 282.503 148.061 282.796C147.819 283.089 147.515 283.313 147.148 283.467C146.782 283.621 146.367 283.698 145.905 283.698ZM152.069 283.676C151.299 283.676 150.701 283.511 150.276 283.181C149.858 282.851 149.642 282.4 149.627 281.828H150.617C150.632 282.055 150.745 282.272 150.958 282.477C151.178 282.675 151.548 282.774 152.069 282.774C152.538 282.774 152.898 282.682 153.147 282.499C153.396 282.308 153.521 282.077 153.521 281.806C153.521 281.564 153.429 281.377 153.246 281.245C153.063 281.106 152.766 281.014 152.355 280.97L151.717 280.904C151.16 280.845 150.705 280.68 150.353 280.409C150.001 280.13 149.825 279.742 149.825 279.243C149.825 278.869 149.92 278.55 150.111 278.286C150.302 278.015 150.566 277.809 150.903 277.67C151.24 277.523 151.629 277.45 152.069 277.45C152.729 277.45 153.264 277.597 153.675 277.89C154.086 278.183 154.298 278.62 154.313 279.199H153.323C153.316 278.964 153.206 278.766 152.993 278.605C152.788 278.436 152.48 278.352 152.069 278.352C151.658 278.352 151.347 278.436 151.134 278.605C150.921 278.774 150.815 278.986 150.815 279.243C150.815 279.463 150.888 279.639 151.035 279.771C151.189 279.903 151.438 279.987 151.783 280.024L152.421 280.09C153.052 280.156 153.558 280.332 153.939 280.618C154.32 280.897 154.511 281.293 154.511 281.806C154.511 282.173 154.405 282.499 154.192 282.785C153.987 283.064 153.701 283.284 153.334 283.445C152.967 283.599 152.546 283.676 152.069 283.676ZM157.966 283.676C157.196 283.676 156.599 283.511 156.173 283.181C155.755 282.851 155.539 282.4 155.524 281.828H156.514C156.529 282.055 156.643 282.272 156.855 282.477C157.075 282.675 157.446 282.774 157.966 282.774C158.436 282.774 158.795 282.682 159.044 282.499C159.294 282.308 159.418 282.077 159.418 281.806C159.418 281.564 159.327 281.377 159.143 281.245C158.96 281.106 158.663 281.014 158.252 280.97L157.614 280.904C157.057 280.845 156.602 280.68 156.25 280.409C155.898 280.13 155.722 279.742 155.722 279.243C155.722 278.869 155.818 278.55 156.008 278.286C156.199 278.015 156.463 277.809 156.8 277.67C157.138 277.523 157.526 277.45 157.966 277.45C158.626 277.45 159.162 277.597 159.572 277.89C159.983 278.183 160.196 278.62 160.21 279.199H159.22C159.213 278.964 159.103 278.766 158.89 278.605C158.685 278.436 158.377 278.352 157.966 278.352C157.556 278.352 157.244 278.436 157.031 278.605C156.819 278.774 156.712 278.986 156.712 279.243C156.712 279.463 156.786 279.639 156.932 279.771C157.086 279.903 157.336 279.987 157.68 280.024L158.318 280.09C158.949 280.156 159.455 280.332 159.836 280.618C160.218 280.897 160.408 281.293 160.408 281.806C160.408 282.173 160.302 282.499 160.089 282.785C159.884 283.064 159.598 283.284 159.231 283.445C158.865 283.599 158.443 283.676 157.966 283.676ZM164.645 283.698C164.131 283.698 163.68 283.61 163.292 283.434C162.903 283.258 162.573 283.027 162.302 282.741C162.038 282.448 161.836 282.121 161.697 281.762C161.565 281.403 161.499 281.036 161.499 280.662V280.464C161.499 280.09 161.568 279.723 161.708 279.364C161.847 278.997 162.052 278.671 162.324 278.385C162.595 278.092 162.925 277.861 163.314 277.692C163.702 277.516 164.146 277.428 164.645 277.428C165.143 277.428 165.587 277.516 165.976 277.692C166.364 277.861 166.694 278.092 166.966 278.385C167.237 278.671 167.442 278.997 167.582 279.364C167.721 279.723 167.791 280.09 167.791 280.464V280.662C167.791 281.036 167.721 281.403 167.582 281.762C167.45 282.121 167.248 282.448 166.977 282.741C166.713 283.027 166.386 283.258 165.998 283.434C165.609 283.61 165.158 283.698 164.645 283.698ZM164.645 282.752C165.085 282.752 165.459 282.657 165.767 282.466C166.082 282.268 166.32 282.004 166.482 281.674C166.65 281.344 166.735 280.974 166.735 280.563C166.735 280.145 166.65 279.771 166.482 279.441C166.313 279.111 166.071 278.851 165.756 278.66C165.448 278.469 165.077 278.374 164.645 278.374C164.219 278.374 163.849 278.469 163.534 278.66C163.218 278.851 162.976 279.111 162.808 279.441C162.639 279.771 162.555 280.145 162.555 280.563C162.555 280.974 162.635 281.344 162.797 281.674C162.965 282.004 163.204 282.268 163.512 282.466C163.827 282.657 164.205 282.752 164.645 282.752ZM169.372 283.5V277.626H170.208V280.145H170.076C170.076 279.566 170.153 279.078 170.307 278.682C170.469 278.279 170.711 277.974 171.033 277.769C171.356 277.556 171.763 277.45 172.254 277.45H172.298C173.039 277.45 173.585 277.681 173.937 278.143C174.297 278.605 174.476 279.272 174.476 280.145V283.5H173.42V279.925C173.42 279.47 173.292 279.107 173.035 278.836C172.779 278.557 172.427 278.418 171.979 278.418C171.517 278.418 171.143 278.561 170.857 278.847C170.571 279.133 170.428 279.514 170.428 279.991V283.5H169.372ZM178.333 283.676C177.563 283.676 176.966 283.511 176.54 283.181C176.122 282.851 175.906 282.4 175.891 281.828H176.881C176.896 282.055 177.01 282.272 177.222 282.477C177.442 282.675 177.813 282.774 178.333 282.774C178.803 282.774 179.162 282.682 179.411 282.499C179.661 282.308 179.785 282.077 179.785 281.806C179.785 281.564 179.694 281.377 179.51 281.245C179.327 281.106 179.03 281.014 178.619 280.97L177.981 280.904C177.424 280.845 176.969 280.68 176.617 280.409C176.265 280.13 176.089 279.742 176.089 279.243C176.089 278.869 176.185 278.55 176.375 278.286C176.566 278.015 176.83 277.809 177.167 277.67C177.505 277.523 177.893 277.45 178.333 277.45C178.993 277.45 179.529 277.597 179.939 277.89C180.35 278.183 180.563 278.62 180.577 279.199H179.587C179.58 278.964 179.47 278.766 179.257 278.605C179.052 278.436 178.744 278.352 178.333 278.352C177.923 278.352 177.611 278.436 177.398 278.605C177.186 278.774 177.079 278.986 177.079 279.243C177.079 279.463 177.153 279.639 177.299 279.771C177.453 279.903 177.703 279.987 178.047 280.024L178.685 280.09C179.316 280.156 179.822 280.332 180.203 280.618C180.585 280.897 180.775 281.293 180.775 281.806C180.775 282.173 180.669 282.499 180.456 282.785C180.251 283.064 179.965 283.284 179.598 283.445C179.232 283.599 178.81 283.676 178.333 283.676Z" fill="#1C1D1D"/>
<rect x="31" y="320" width="112" height="33" rx="10" fill="#FF4B00"/>
<path d="M74.974 342V340.544H77.578C78.3433 340.544 78.9967 340.39 79.538 340.082C80.0793 339.774 80.49 339.345 80.77 338.794C81.0593 338.243 81.204 337.613 81.204 336.904C81.204 336.204 81.0593 335.588 80.77 335.056C80.49 334.524 80.0793 334.113 79.538 333.824C79.006 333.525 78.3527 333.376 77.578 333.376H75.002V331.92H77.578C78.6793 331.92 79.6407 332.125 80.462 332.536C81.2833 332.947 81.918 333.53 82.366 334.286C82.8233 335.033 83.052 335.915 83.052 336.932C83.052 337.949 82.8233 338.841 82.366 339.606C81.9087 340.362 81.2693 340.95 80.448 341.37C79.636 341.79 78.684 342 77.592 342H74.974ZM73.868 342V331.92H75.688V342H73.868ZM87.6713 342.14C86.9153 342.14 86.2527 341.981 85.6833 341.664C85.1233 341.347 84.6847 340.908 84.3673 340.348C84.0593 339.788 83.9053 339.144 83.9053 338.416C83.9053 337.688 84.0593 337.049 84.3673 336.498C84.6847 335.938 85.1233 335.504 85.6833 335.196C86.2433 334.879 86.8967 334.72 87.6433 334.72C88.3527 334.72 88.9687 334.869 89.4913 335.168C90.014 335.457 90.42 335.868 90.7093 336.4C90.9987 336.932 91.1433 337.553 91.1433 338.262C91.1433 338.393 91.1387 338.514 91.1293 338.626C91.12 338.738 91.106 338.85 91.0873 338.962H84.9973V337.73H89.7293L89.3653 338.066C89.3653 337.394 89.2113 336.89 88.9033 336.554C88.5953 336.218 88.166 336.05 87.6153 336.05C87.018 336.05 86.542 336.255 86.1873 336.666C85.842 337.077 85.6693 337.669 85.6693 338.444C85.6693 339.209 85.842 339.797 86.1873 340.208C86.542 340.609 87.0413 340.81 87.6853 340.81C88.0587 340.81 88.3853 340.74 88.6653 340.6C88.9453 340.46 89.1507 340.245 89.2813 339.956H90.9473C90.714 340.628 90.3173 341.16 89.7573 341.552C89.2067 341.944 88.5113 342.14 87.6713 342.14ZM96.5374 342.14C95.8561 342.14 95.3007 341.981 94.8714 341.664C94.4514 341.337 94.1901 340.889 94.0874 340.32L94.2274 340.306V344.87H92.4634V334.86H94.1854V336.47L94.0454 336.442C94.1761 335.91 94.4747 335.49 94.9414 335.182C95.4081 334.874 95.9774 334.72 96.6494 334.72C97.2841 334.72 97.8347 334.874 98.3014 335.182C98.7774 335.481 99.1461 335.905 99.4074 336.456C99.6687 337.007 99.7994 337.655 99.7994 338.402C99.7994 339.158 99.6641 339.816 99.3934 340.376C99.1227 340.936 98.7447 341.37 98.2594 341.678C97.7741 341.986 97.2001 342.14 96.5374 342.14ZM96.0894 340.684C96.6587 340.684 97.1114 340.488 97.4474 340.096C97.7834 339.695 97.9514 339.135 97.9514 338.416C97.9514 337.697 97.7787 337.142 97.4334 336.75C97.0974 336.358 96.6447 336.162 96.0754 336.162C95.5154 336.162 95.0627 336.363 94.7174 336.764C94.3721 337.156 94.1994 337.711 94.1994 338.43C94.1994 339.149 94.3721 339.704 94.7174 340.096C95.0627 340.488 95.5201 340.684 96.0894 340.684ZM101.159 342V331.92H102.923V342H101.159ZM108.043 342.14C107.287 342.14 106.62 341.981 106.041 341.664C105.472 341.347 105.029 340.908 104.711 340.348C104.394 339.779 104.235 339.13 104.235 338.402C104.235 337.674 104.394 337.035 104.711 336.484C105.029 335.933 105.472 335.504 106.041 335.196C106.62 334.879 107.287 334.72 108.043 334.72C108.809 334.72 109.476 334.879 110.045 335.196C110.615 335.504 111.058 335.933 111.375 336.484C111.693 337.035 111.851 337.674 111.851 338.402C111.851 339.13 111.688 339.779 111.361 340.348C111.044 340.908 110.601 341.347 110.031 341.664C109.462 341.981 108.799 342.14 108.043 342.14ZM108.043 340.726C108.417 340.726 108.753 340.633 109.051 340.446C109.35 340.25 109.583 339.979 109.751 339.634C109.919 339.279 110.003 338.864 110.003 338.388C110.003 337.688 109.817 337.137 109.443 336.736C109.079 336.335 108.613 336.134 108.043 336.134C107.474 336.134 107.003 336.335 106.629 336.736C106.256 337.137 106.069 337.688 106.069 338.388C106.069 338.864 106.153 339.279 106.321 339.634C106.499 339.979 106.732 340.25 107.021 340.446C107.32 340.633 107.661 340.726 108.043 340.726ZM113.378 344.87L115.226 340.726L115.548 340.194L117.564 334.86H119.44L115.17 344.87H113.378ZM114.96 341.93L112.062 334.86H113.98L116.402 341.272L114.96 341.93Z" fill="white"/>
<path fill-rule="evenodd" clip-rule="evenodd" d="M54.4946 331.334C57.3782 328.849 62.538 328.021 64.2284 328.067C64.5197 328.075 64.7079 328.109 64.7638 328.165C65.1599 328.561 64.4531 335.606 61.2197 338.839C58.9401 341.119 57.2596 342.001 55.966 342.149L53.0967 342.425L50.5039 339.833C50.5039 339.833 50.5433 338.327 50.7733 337.215C50.7962 337.104 50.821 336.997 50.8478 336.896C51.4608 334.587 51.8811 333.918 54.0898 331.709C54.2188 331.58 54.354 331.455 54.4946 331.334ZM60.5506 334.323C60.0137 334.86 59.1431 334.86 58.6061 334.323C58.0691 333.786 58.0691 332.915 58.6061 332.378C59.1431 331.841 60.0137 331.841 60.5506 332.378C61.0876 332.915 61.0876 333.786 60.5506 334.323Z" fill="white"/>
<path d="M55.8438 343.542L56.1103 343.516L56.122 343.515C57.7449 343.33 59.5365 342.337 61.6506 340.339C61.4705 342.718 59.9788 345.353 56.2658 346.164L55.8438 343.542Z" fill="white"/>
<path d="M46.6523 336.551C47.4893 332.72 50.2682 331.254 52.7046 331.153C51.8218 332.052 51.1832 332.771 50.7046 333.536C50.1352 334.446 49.835 335.352 49.5188 336.543C49.4802 336.688 49.4457 336.84 49.4146 336.996L46.6523 336.551Z" fill="white"/>
<path d="M47.3694 342.546C47.5427 341.213 48.7738 340.469 50.0167 340.728C49.6588 341.343 49.743 342.144 50.2693 342.67C50.8173 343.218 51.6631 343.286 52.2857 342.876C52.6474 344.171 51.8977 345.503 50.5069 345.684L46.9004 346.153L47.3694 342.546Z" fill="white"/>
<defs>
<radialGradient id="paint0_radial_2930_3648" cx="0" cy="0" r="1" gradientUnits="userSpaceOnUse" gradientTransform="translate(312 101.5) rotate(-176.851) scale(154.734 397.546)">
<stop stop-color="#D9F6FF"/>
<stop offset="1" stop-color="white"/>
</radialGradient>
<radialGradient id="paint1_radial_2930_3648" cx="0" cy="0" r="1" gradientUnits="userSpaceOnUse" gradientTransform="translate(285 124.5) rotate(-176.851) scale(154.734 397.546)">
<stop stop-color="#D9F6FF"/>
<stop offset="1" stop-color="white"/>
</radialGradient>
<radialGradient id="paint2_radial_2930_3648" cx="0" cy="0" r="1" gradientUnits="userSpaceOnUse" gradientTransform="translate(256 155.5) rotate(-176.851) scale(154.734 397.546)">
<stop stop-color="#D9F6FF"/>
<stop offset="1" stop-color="white"/>
</radialGradient>
<clipPath id="clip0_2930_3648">
<rect width="13" height="13" fill="white" transform="translate(374 26)"/>
</clipPath>
<clipPath id="clip1_2930_3648">
<rect width="13" height="13" fill="white" transform="translate(347 49)"/>
</clipPath>
<clipPath id="clip2_2930_3648">
<rect width="13" height="13" fill="white" transform="translate(318 80)"/>
</clipPath>
</defs>
</svg>
