<svg width="42" height="52" viewBox="0 0 42 52" fill="none" xmlns="http://www.w3.org/2000/svg">
<rect x="0.8" y="1.8" width="39.4" height="49.4" rx="4.2" fill="white" stroke="#FF9E76" stroke-width="1.6"/>
<line x1="41.5" y1="11.4316" x2="41.5" y2="14.3294" stroke="white"/>
<line x1="27.5286" y1="0.5" x2="29.2857" y2="0.5" stroke="white"/>
<path d="M6.868 47V36.92H11.39C12.1273 36.92 12.7573 37.046 13.28 37.298C13.812 37.55 14.218 37.9047 14.498 38.362C14.7873 38.8193 14.932 39.3607 14.932 39.986C14.932 40.602 14.7873 41.1433 14.498 41.61C14.2087 42.0767 13.8027 42.4407 13.28 42.702C12.7573 42.954 12.1273 43.08 11.39 43.08H8.282V41.652H11.306C11.8847 41.652 12.328 41.5027 12.636 41.204C12.9533 40.9053 13.112 40.4993 13.112 39.986C13.112 39.482 12.9533 39.0853 12.636 38.796C12.328 38.5067 11.8847 38.362 11.306 38.362H8.688V47H6.868ZM17.3119 47V45.544H19.9159C20.6812 45.544 21.3346 45.39 21.8759 45.082C22.4172 44.774 22.8279 44.3447 23.1079 43.794C23.3972 43.2433 23.5419 42.6133 23.5419 41.904C23.5419 41.204 23.3972 40.588 23.1079 40.056C22.8279 39.524 22.4172 39.1133 21.8759 38.824C21.3439 38.5253 20.6906 38.376 19.9159 38.376H17.3399V36.92H19.9159C21.0172 36.92 21.9786 37.1253 22.7999 37.536C23.6212 37.9467 24.2559 38.53 24.7039 39.286C25.1612 40.0327 25.3899 40.9147 25.3899 41.932C25.3899 42.9493 25.1612 43.8407 24.7039 44.606C24.2466 45.362 23.6072 45.95 22.7859 46.37C21.9739 46.79 21.0219 47 19.9299 47H17.3119ZM16.2059 47V36.92H18.0259V47H16.2059ZM26.7743 47V36.92H28.5943V47H26.7743ZM27.6423 42.954V41.512H33.3123V42.954H27.6423ZM27.6423 38.362V36.92H33.6483V38.362H27.6423Z" fill="#FF9E76"/>
</svg>
