<svg width="31" height="31" viewBox="0 0 31 31" fill="none" xmlns="http://www.w3.org/2000/svg">
<g clip-path="url(#clip0_2826_3615)">
<path d="M27.4993 7.608L14.5826 20.5247C14.0789 21.0284 13.2651 21.0284 12.7614 20.5247L9.10596 16.8692C8.60221 16.3655 8.60221 15.5517 9.10596 15.048C9.60971 14.5442 10.4235 14.5442 10.9272 15.048L13.6655 17.7863L25.6651 5.78675C26.1689 5.283 26.9826 5.283 27.4864 5.78675C28.003 6.2905 28.003 7.10425 27.4993 7.608ZM15.4997 25.8334C9.41596 25.8334 4.54638 20.5505 5.23096 14.3376C5.73471 9.79092 9.26096 6.058 13.7689 5.30883C16.1068 4.92133 18.3285 5.33466 20.2143 6.31633C20.718 6.57466 21.3251 6.48425 21.7255 6.08383C22.3455 5.46383 22.1905 4.41758 21.4155 4.01716C19.5168 3.04841 17.3726 2.51883 15.0864 2.58342C8.44721 2.79008 2.93179 8.18925 2.59596 14.8155C2.22138 22.2684 8.13721 28.4167 15.4997 28.4167C17.0497 28.4167 18.5222 28.1455 19.9043 27.6417C20.7826 27.3188 21.028 26.1822 20.3564 25.5105C20.0076 25.1617 19.478 25.0326 19.013 25.2134C17.9151 25.6138 16.7268 25.8334 15.4997 25.8334ZM24.5414 19.3751H21.958C21.2476 19.3751 20.6664 19.9563 20.6664 20.6667C20.6664 21.3772 21.2476 21.9584 21.958 21.9584H24.5414V24.5417C24.5414 25.2522 25.1226 25.8334 25.833 25.8334C26.5435 25.8334 27.1247 25.2522 27.1247 24.5417V21.9584H29.708C30.4185 21.9584 30.9997 21.3772 30.9997 20.6667C30.9997 19.9563 30.4185 19.3751 29.708 19.3751H27.1247V16.7917C27.1247 16.0813 26.5435 15.5001 25.833 15.5001C25.1226 15.5001 24.5414 16.0813 24.5414 16.7917V19.3751Z" fill="#3B3B3B"/>
</g>
<defs>
<clipPath id="clip0_2826_3615">
<rect width="31" height="31" fill="white"/>
</clipPath>
</defs>
</svg>
