<svg width="93" height="93" viewBox="0 0 93 93" fill="none" xmlns="http://www.w3.org/2000/svg">
<g clip-path="url(#clip0_2824_3589)">
<path d="M46.5 34.875H62C64.1313 34.875 65.875 33.1313 65.875 31C65.875 28.8687 64.1313 27.125 62 27.125H46.5C44.3687 27.125 42.625 28.8687 42.625 31C42.625 33.1313 44.3687 34.875 46.5 34.875ZM46.5 50.375H62C64.1313 50.375 65.875 48.6313 65.875 46.5C65.875 44.3687 64.1313 42.625 62 42.625H46.5C44.3687 42.625 42.625 44.3687 42.625 46.5C42.625 48.6313 44.3687 50.375 46.5 50.375ZM46.5 65.875H62C64.1313 65.875 65.875 64.1313 65.875 62C65.875 59.8687 64.1313 58.125 62 58.125H46.5C44.3687 58.125 42.625 59.8687 42.625 62C42.625 64.1313 44.3687 65.875 46.5 65.875ZM27.125 27.125H34.875V34.875H27.125V27.125ZM27.125 42.625H34.875V50.375H27.125V42.625ZM27.125 58.125H34.875V65.875H27.125V58.125ZM77.5 11.625H15.5C13.3687 11.625 11.625 13.3687 11.625 15.5V77.5C11.625 79.6313 13.3687 81.375 15.5 81.375H77.5C79.6313 81.375 81.375 79.6313 81.375 77.5V15.5C81.375 13.3687 79.6313 11.625 77.5 11.625ZM73.625 73.625H19.375V19.375H73.625V73.625Z" fill="#FF844F"/>
<circle cx="69" cy="69" r="15" fill="white"/>
<path d="M68.985 54C60.705 54 54 60.72 54 69C54 77.28 60.705 84 68.985 84C77.28 84 84 77.28 84 69C84 60.72 77.28 54 68.985 54ZM69 81C62.37 81 57 75.63 57 69C57 62.37 62.37 57 69 57C75.63 57 81 62.37 81 69C81 75.63 75.63 81 69 81ZM68.67 61.5H68.58C67.98 61.5 67.5 61.98 67.5 62.58V69.66C67.5 70.185 67.77 70.68 68.235 70.95L74.46 74.685C74.97 74.985 75.63 74.835 75.93 74.325C76.245 73.815 76.08 73.14 75.555 72.84L69.75 69.39V62.58C69.75 61.98 69.27 61.5 68.67 61.5V61.5Z" fill="#FF844F"/>
</g>
<defs>
<clipPath id="clip0_2824_3589">
<rect width="93" height="93" fill="white"/>
</clipPath>
</defs>
</svg>
