<svg width="37" height="37" viewBox="0 0 37 37" fill="none" xmlns="http://www.w3.org/2000/svg">
<path d="M18.4998 6.16634C25.3114 6.16634 30.8332 11.6881 30.8332 18.4997C30.8332 25.3112 25.3114 30.833 18.4998 30.833C13.2065 30.833 8.68883 27.4972 6.94042 22.8106L3.79165 23.1319C5.75827 29.3816 11.5976 33.9163 18.4998 33.9163C27.0142 33.9163 33.9165 27.0141 33.9165 18.4997C33.9165 9.98528 27.0142 3.08301 18.4998 3.08301C14.5204 3.08301 10.8919 4.59226 8.15803 7.06631L6.08272 4.99105C5.62515 4.53347 4.84144 4.80933 4.77137 5.45264L3.95784 12.921C3.90449 13.4107 4.31789 13.8241 4.8076 13.7708L12.276 12.9573C12.9193 12.8872 13.1952 12.1035 12.7376 11.6459L10.3416 9.24991C12.5168 7.32944 15.3717 6.16634 18.4998 6.16634Z" fill="#5AACCA"/>
</svg>
