<svg width="40" height="40" viewBox="0 0 40 40" fill="none" xmlns="http://www.w3.org/2000/svg">
<path d="M8.3335 24.9997H6.66683C5.78277 24.9997 4.93493 24.6485 4.30981 24.0234C3.68469 23.3982 3.3335 22.5504 3.3335 21.6663V6.66634C3.3335 5.78229 3.68469 4.93444 4.30981 4.30932C4.93493 3.6842 5.78277 3.33301 6.66683 3.33301H21.6668C22.5509 3.33301 23.3987 3.6842 24.0239 4.30932C24.649 4.93444 25.0002 5.78229 25.0002 6.66634V8.33301M18.3335 14.9997H33.3335C35.1744 14.9997 36.6668 16.4921 36.6668 18.333V33.333C36.6668 35.174 35.1744 36.6663 33.3335 36.6663H18.3335C16.4925 36.6663 15.0002 35.174 15.0002 33.333V18.333C15.0002 16.4921 16.4925 14.9997 18.3335 14.9997Z" stroke="#1E1E1E" stroke-width="3.5" stroke-linecap="round" stroke-linejoin="round"/>
</svg>
