<svg width="20" height="20" viewBox="0 0 20 20" fill="none" xmlns="http://www.w3.org/2000/svg">
<path d="M17.5002 1.66699L15.8336 3.33366M15.8336 3.33366L18.3336 5.83366L15.4169 8.75033L12.9169 6.25033M15.8336 3.33366L12.9169 6.25033M9.4919 9.67533C9.92218 10.0999 10.2642 10.6054 10.4984 11.1627C10.7325 11.7199 10.8541 12.318 10.8561 12.9225C10.8581 13.527 10.7405 14.1259 10.5102 14.6847C10.2798 15.2436 9.94111 15.7513 9.51368 16.1788C9.08625 16.6062 8.5785 16.9449 8.01965 17.1753C7.4608 17.4056 6.8619 17.5232 6.25742 17.5212C5.65295 17.5192 5.05485 17.3976 4.49755 17.1635C3.94026 16.9293 3.43478 16.5873 3.01023 16.157C2.17534 15.2926 1.71336 14.1348 1.72381 12.9331C1.73425 11.7313 2.21627 10.5818 3.06606 9.73199C3.91585 8.8822 5.0654 8.40018 6.26714 8.38974C7.46888 8.37929 8.62664 8.84127 9.49106 9.67616L9.4919 9.67533ZM9.4919 9.67533L12.9169 6.25033" stroke="#5AACCA" stroke-width="1.4" stroke-linecap="round" stroke-linejoin="round"/>
</svg>
