<svg width="9" height="9" viewBox="0 0 9 9" fill="none" xmlns="http://www.w3.org/2000/svg">
<path d="M4.2602 4.0096C4.2602 4.148 4.148 4.2602 4.0096 4.2602C3.8712 4.2602 3.75901 4.148 3.75901 4.0096C3.75901 3.8712 3.8712 3.75901 4.0096 3.75901C4.148 3.75901 4.2602 3.8712 4.2602 4.0096Z" fill="#1C1D1D"/>
<path d="M4.2602 4.0096C4.2602 4.148 4.148 4.2602 4.0096 4.2602C3.8712 4.2602 3.75901 4.148 3.75901 4.0096C3.75901 3.8712 3.8712 3.75901 4.0096 3.75901M4.2602 4.0096C4.2602 3.8712 4.148 3.75901 4.0096 3.75901M4.2602 4.0096H5.51318M4.0096 3.75901V2.17189M7.01677 4.0096C7.01677 5.67041 5.67041 7.01677 4.0096 7.01677C2.34879 7.01677 1.00244 5.67041 1.00244 4.0096C1.00244 2.34879 2.34879 1.00244 4.0096 1.00244C5.67041 1.00244 7.01677 2.34879 7.01677 4.0096Z" stroke="#1C1D1D" stroke-width="0.501194" stroke-linecap="round" stroke-linejoin="round"/>
</svg>
