<svg width="80" height="80" viewBox="0 0 80 80" fill="none" xmlns="http://www.w3.org/2000/svg">
<rect x="0.5" y="0.5" width="79" height="79" rx="39.5" fill="white"/>
<rect x="0.5" y="0.5" width="79" height="79" rx="39.5" stroke="#70D2F0"/>
<path fill-rule="evenodd" clip-rule="evenodd" d="M52.0005 32C52.0005 38.6274 46.6279 44 40.0005 44C33.3731 44 28.0005 38.6274 28.0005 32C28.0005 25.3726 33.3731 20 40.0005 20C46.6279 20 52.0005 25.3726 52.0005 32ZM48.0005 32C48.0005 36.4183 44.4188 40 40.0005 40C35.5822 40 32.0005 36.4183 32.0005 32C32.0005 27.5817 35.5822 24 40.0005 24C44.4188 24 48.0005 27.5817 48.0005 32Z" fill="#70D2F0"/>
<path d="M40.0005 50C27.0517 50 16.019 57.6568 11.8164 68.3841C12.8402 69.4007 13.9187 70.3623 15.0471 71.2641C18.1765 61.4154 27.9939 54 40.0005 54C52.0071 54 61.8245 61.4154 64.9539 71.2641C66.0823 70.3623 67.1608 69.4007 68.1846 68.3841C63.982 57.6568 52.9493 50 40.0005 50Z" fill="#70D2F0"/>
</svg>
