<svg width="71" height="89" viewBox="0 0 71 89" fill="none" xmlns="http://www.w3.org/2000/svg">
<rect x="0.8" y="1.8" width="68.4" height="86.4" rx="4.2" fill="#F9F9F9" stroke="#FF9E76" stroke-width="1.6"/>
<mask id="path-2-inside-1_2512_2124" fill="white">
<path d="M47 1H67C68.6569 1 70 2.34315 70 4V22H52C49.2386 22 47 19.7614 47 17V1Z"/>
</mask>
<path d="M47 1H67C68.6569 1 70 2.34315 70 4V22H52C49.2386 22 47 19.7614 47 17V1Z" fill="#F9F9F9"/>
<path d="M47 1H70H47ZM70 23.6H52C48.3549 23.6 45.4 20.6451 45.4 17H48.6C48.6 18.8778 50.1222 20.4 52 20.4H70V23.6ZM52 23.6C48.3549 23.6 45.4 20.6451 45.4 17V1H48.6V17C48.6 18.8778 50.1222 20.4 52 20.4V23.6ZM70 1V22V1Z" fill="#FF9E76" mask="url(#path-2-inside-1_2512_2124)"/>
<line x1="48.1302" y1="0.948627" x2="69.9486" y2="20.8698" stroke="#FF9E76" stroke-width="1.6" stroke-linecap="round"/>
<line x1="70.5" y1="19" x2="70.5" y2="24" stroke="#F9F9F9"/>
<line x1="47" y1="0.5" x2="50" y2="0.5" stroke="#F9F9F9"/>
<path d="M34 53C34 53.5523 34.4477 54 35 54C35.5523 54 36 53.5523 36 53H35H34ZM35.7071 36.2929C35.3166 35.9024 34.6834 35.9024 34.2929 36.2929L27.9289 42.6569C27.5384 43.0474 27.5384 43.6805 27.9289 44.0711C28.3195 44.4616 28.9526 44.4616 29.3431 44.0711L35 38.4142L40.6569 44.0711C41.0474 44.4616 41.6805 44.4616 42.0711 44.0711C42.4616 43.6805 42.4616 43.0474 42.0711 42.6569L35.7071 36.2929ZM35 53H36V37H35H34V53H35Z" fill="#FF9E76"/>
<path d="M46 49C46.5523 49 47 49.4477 47 50V58L46.9961 58.1543C46.9158 59.7394 45.6051 61 44 61H25C23.3949 61 22.0842 59.7394 22.0039 58.1543L22 58V50C22 49.4477 22.4477 49 23 49C23.5523 49 24 49.4477 24 50V58C24 58.5523 24.4477 59 25 59H44C44.5523 59 45 58.5523 45 58V50C45 49.4477 45.4477 49 46 49Z" fill="#FF9E76"/>
</svg>
