<svg width="9" height="9" viewBox="0 0 9 9" fill="none" xmlns="http://www.w3.org/2000/svg">
<path d="M3.25786 2.673C3.25786 2.85753 3.10826 3.00713 2.92373 3.00713C2.73919 3.00713 2.5896 2.85753 2.5896 2.673C2.5896 2.48846 2.73919 2.33887 2.92373 2.33887C3.10826 2.33887 3.25786 2.48846 3.25786 2.673Z" fill="#1C1D1D"/>
<path d="M4.00956 2.67309H5.17901M2.84011 4.00961H5.17901M2.84011 5.34612H5.17901M3.47495 7.01677H4.54417C5.2959 7.01677 5.67177 7.01677 5.93527 6.82533C6.02036 6.7635 6.0952 6.68867 6.15703 6.60357C6.34846 6.34008 6.34846 5.96421 6.34846 5.21247V2.80674C6.34846 2.055 6.34846 1.67913 6.15703 1.41564C6.0952 1.33054 6.02036 1.25571 5.93527 1.19388C5.67177 1.00244 5.2959 1.00244 4.54417 1.00244H3.47495C2.72322 1.00244 2.34735 1.00244 2.08385 1.19388C1.99876 1.25571 1.92392 1.33054 1.86209 1.41564C1.67065 1.67913 1.67065 2.055 1.67065 2.80674V5.21247C1.67065 5.96421 1.67065 6.34008 1.86209 6.60357C1.92392 6.68867 1.99876 6.7635 2.08385 6.82533C2.34735 7.01677 2.72322 7.01677 3.47495 7.01677Z" stroke="#1C1D1D" stroke-width="0.501194" stroke-linecap="round" stroke-linejoin="round"/>
</svg>
