<svg width="24" height="24" viewBox="0 0 24 24" fill="none" xmlns="http://www.w3.org/2000/svg">
<g clip-path="url(#clip0_2771_2620)">
<path d="M21.2901 5.89019L11.2901 15.8902C10.9001 16.2802 10.2701 16.2802 9.88012 15.8902L7.05012 13.0602C6.66012 12.6702 6.66012 12.0402 7.05012 11.6502C7.44012 11.2602 8.07012 11.2602 8.46012 11.6502L10.5801 13.7702L19.8701 4.48019C20.2601 4.09019 20.8901 4.09019 21.2801 4.48019C21.6801 4.87019 21.6801 5.50019 21.2901 5.89019ZM12.0001 20.0002C7.29012 20.0002 3.52012 15.9102 4.05012 11.1002C4.44012 7.58019 7.17012 4.69019 10.6601 4.11019C12.4701 3.81019 14.1901 4.13019 15.6501 4.89019C16.0401 5.09019 16.5101 5.02019 16.8201 4.71019C17.3001 4.23019 17.1801 3.42019 16.5801 3.11019C15.1101 2.36019 13.4501 1.95019 11.6801 2.00019C6.54012 2.16019 2.27012 6.34019 2.01012 11.4702C1.72012 17.2402 6.30012 22.0002 12.0001 22.0002C13.2001 22.0002 14.3401 21.7902 15.4101 21.4002C16.0901 21.1502 16.2801 20.2702 15.7601 19.7502C15.4901 19.4802 15.0801 19.3802 14.7201 19.5202C13.8701 19.8302 12.9501 20.0002 12.0001 20.0002ZM19.0001 15.0002H17.0001C16.4501 15.0002 16.0001 15.4502 16.0001 16.0002C16.0001 16.5502 16.4501 17.0002 17.0001 17.0002H19.0001V19.0002C19.0001 19.5502 19.4501 20.0002 20.0001 20.0002C20.5501 20.0002 21.0001 19.5502 21.0001 19.0002V17.0002H23.0001C23.5501 17.0002 24.0001 16.5502 24.0001 16.0002C24.0001 15.4502 23.5501 15.0002 23.0001 15.0002H21.0001V13.0002C21.0001 12.4502 20.5501 12.0002 20.0001 12.0002C19.4501 12.0002 19.0001 12.4502 19.0001 13.0002V15.0002Z" fill="#80C579"/>
</g>
<defs>
<clipPath id="clip0_2771_2620">
<rect width="24" height="24" fill="white"/>
</clipPath>
</defs>
</svg>
