<svg width="33" height="28" viewBox="0 0 33 28" fill="none" xmlns="http://www.w3.org/2000/svg">
<path d="M18.5 0C10.8379 0 4.625 6.21292 4.625 13.875H0L5.99708 19.8721L6.105 20.0879L12.3333 13.875H7.70833C7.70833 7.90875 12.5338 3.08333 18.5 3.08333C24.4662 3.08333 29.2917 7.90875 29.2917 13.875C29.2917 19.8412 24.4662 24.6667 18.5 24.6667C15.5246 24.6667 12.8267 23.4487 10.8842 21.4908L8.695 23.68C11.2079 26.1929 14.6613 27.75 18.5 27.75C26.1621 27.75 32.375 21.5371 32.375 13.875C32.375 6.21292 26.1621 0 18.5 0ZM16.9583 7.70833V15.4167L23.5567 19.3325L24.6667 17.4671L19.2708 14.2604V7.70833H16.9583Z" fill="#B0B0B0"/>
</svg>
