<svg width="71" height="89" viewBox="0 0 71 89" fill="none" xmlns="http://www.w3.org/2000/svg">
<rect x="0.8" y="1.8" width="68.4" height="86.4" rx="4.2" fill="white" stroke="#FF9E76" stroke-width="1.6"/>
<line x1="70.5" y1="19" x2="70.5" y2="24" stroke="white"/>
<line x1="47" y1="0.5" x2="50" y2="0.5" stroke="white"/>
<path d="M7.918 82.14C7.56333 82.14 7.22267 82.112 6.896 82.056C6.56933 82.0093 6.33133 81.9487 6.182 81.874V80.418C6.36867 80.4927 6.59267 80.558 6.854 80.614C7.11533 80.6607 7.38133 80.684 7.652 80.684C8.23067 80.684 8.65533 80.5767 8.926 80.362C9.19667 80.1473 9.332 79.7833 9.332 79.27V71.92H11.152V79.354C11.152 80.2873 10.8767 80.9873 10.326 81.454C9.77533 81.9113 8.97267 82.14 7.918 82.14ZM12.8426 82V71.92H17.3646C18.1019 71.92 18.7319 72.046 19.2546 72.298C19.7866 72.55 20.1926 72.9047 20.4726 73.362C20.7619 73.8193 20.9066 74.3607 20.9066 74.986C20.9066 75.602 20.7619 76.1433 20.4726 76.61C20.1833 77.0767 19.7773 77.4407 19.2546 77.702C18.7319 77.954 18.1019 78.08 17.3646 78.08H14.2566V76.652H17.2806C17.8593 76.652 18.3026 76.5027 18.6106 76.204C18.9279 75.9053 19.0866 75.4993 19.0866 74.986C19.0866 74.482 18.9279 74.0853 18.6106 73.796C18.3026 73.5067 17.8593 73.362 17.2806 73.362H14.6626V82H12.8426ZM22.1805 82V71.92H24.0005V82H22.1805ZM23.0485 82V80.558H29.4325V82H23.0485ZM23.0485 77.52V76.106H28.9425V77.52H23.0485ZM23.0485 73.362V71.92H29.2785V73.362H23.0485ZM35.3914 82.14C34.3274 82.14 33.408 81.93 32.6334 81.51C31.8587 81.0807 31.2614 80.4833 30.8414 79.718C30.4214 78.9433 30.2114 78.038 30.2114 77.002C30.2114 75.966 30.4214 75.0607 30.8414 74.286C31.2614 73.502 31.8447 72.8907 32.5914 72.452C33.338 72.004 34.206 71.78 35.1954 71.78C35.998 71.78 36.7167 71.9293 37.3514 72.228C37.9954 72.5173 38.5134 72.9187 38.9054 73.432C39.3067 73.936 39.5494 74.524 39.6334 75.196H37.8134C37.72 74.5987 37.44 74.1273 36.9734 73.782C36.5067 73.4367 35.9234 73.264 35.2234 73.264C34.5887 73.264 34.0334 73.4133 33.5574 73.712C33.0814 74.0107 32.7127 74.4353 32.4514 74.986C32.19 75.5367 32.0594 76.1947 32.0594 76.96C32.0594 77.744 32.19 78.416 32.4514 78.976C32.722 79.5267 33.1094 79.9467 33.6134 80.236C34.1267 80.5253 34.752 80.67 35.4894 80.67C36.0587 80.67 36.5487 80.6 36.9594 80.46C37.37 80.3107 37.7014 80.0913 37.9534 79.802L39.7034 80.488C39.1714 81.0293 38.5554 81.44 37.8554 81.72C37.1554 82 36.334 82.14 35.3914 82.14ZM37.8834 80.488V77.548L38.3174 77.982H35.4754V76.554H39.7034V80.488H37.8834Z" fill="#FF9E76"/>
</svg>
