<svg width="70" height="88" viewBox="0 0 70 88" fill="none" xmlns="http://www.w3.org/2000/svg">
<path d="M10.868 83V72.92H13.696L16.776 82.636H15.782L18.862 72.92H21.704V83H19.912V73.522H20.206L17.21 83H15.264L12.296 73.606H12.576V83H10.868ZM28.1361 83.14C27.4081 83.14 26.7361 83.014 26.1201 82.762C25.5041 82.51 24.9675 82.1507 24.5101 81.684C24.0621 81.2173 23.7121 80.6667 23.4601 80.032C23.2175 79.388 23.0961 78.6833 23.0961 77.918C23.0961 76.9007 23.3108 76.0093 23.7401 75.244C24.1695 74.4693 24.7621 73.8673 25.5181 73.438C26.2835 72.9993 27.1515 72.78 28.1221 72.78C29.1115 72.78 29.9841 72.9993 30.7401 73.438C31.5055 73.8673 32.1028 74.4693 32.5321 75.244C32.9615 76.0187 33.1761 76.9147 33.1761 77.932C33.1761 78.6973 33.0501 79.3973 32.7981 80.032C32.5555 80.6667 32.2055 81.2173 31.7481 81.684C31.3001 82.1507 30.7681 82.51 30.1521 82.762C29.5361 83.014 28.8641 83.14 28.1361 83.14ZM28.1221 81.656C28.7568 81.656 29.3121 81.4973 29.7881 81.18C30.2735 80.8627 30.6515 80.424 30.9221 79.864C31.1928 79.2947 31.3281 78.6413 31.3281 77.904C31.3281 77.176 31.1928 76.5413 30.9221 76C30.6608 75.4493 30.2875 75.0247 29.8021 74.726C29.3261 74.418 28.7661 74.264 28.1221 74.264C27.4875 74.264 26.9275 74.418 26.4421 74.726C25.9661 75.0247 25.5975 75.4447 25.3361 75.986C25.0748 76.5273 24.9441 77.1667 24.9441 77.904C24.9441 78.6507 25.0748 79.304 25.3361 79.864C25.6068 80.424 25.9801 80.8627 26.4561 81.18C26.9415 81.4973 27.4968 81.656 28.1221 81.656ZM37.1665 83L33.4565 72.92H35.3605L38.3985 81.712H38.0905L41.1285 72.92H42.9345L39.2385 83H37.1665Z" fill="#FF9E76"/>
<path d="M52.4997 11.6666L57.808 22.2833C58.0413 22.75 57.6913 23.3333 57.1663 23.3333H51.3913C50.283 23.3333 49.2622 22.7208 48.7955 21.7291L43.7497 11.6666H37.9163L43.2247 22.2833C43.458 22.75 43.108 23.3333 42.583 23.3333H36.808C35.6997 23.3333 34.6788 22.7208 34.2122 21.7291L29.1663 11.6666H23.333L28.6413 22.2833C28.8747 22.75 28.5247 23.3333 27.9997 23.3333H22.2247C21.1163 23.3333 20.0955 22.7208 19.5997 21.7291L14.583 11.6666H11.6663C8.45801 11.6666 5.83301 14.2916 5.83301 17.5V52.5C5.83301 55.7083 8.45801 58.3333 11.6663 58.3333H58.333C61.5413 58.3333 64.1663 55.7083 64.1663 52.5V14.5833C64.1663 12.9791 62.8538 11.6666 61.2497 11.6666H52.4997Z" fill="#FF9E76"/>
</svg>
