<svg width="70" height="88" viewBox="0 0 70 88" fill="none" xmlns="http://www.w3.org/2000/svg">
<path d="M52.4997 11.6666L57.808 22.2833C58.0413 22.75 57.6913 23.3333 57.1663 23.3333H51.3913C50.283 23.3333 49.2622 22.7208 48.7955 21.7291L43.7497 11.6666H37.9163L43.2247 22.2833C43.458 22.75 43.108 23.3333 42.583 23.3333H36.808C35.6997 23.3333 34.6788 22.7208 34.2122 21.7291L29.1663 11.6666H23.333L28.6413 22.2833C28.8747 22.75 28.5247 23.3333 27.9997 23.3333H22.2247C21.1163 23.3333 20.0955 22.7208 19.5997 21.7291L14.583 11.6666H11.6663C8.45801 11.6666 5.83301 14.2916 5.83301 17.5V52.5C5.83301 55.7083 8.45801 58.3333 11.6663 58.3333H58.333C61.5413 58.3333 64.1663 55.7083 64.1663 52.5V14.5833C64.1663 12.9791 62.8538 11.6666 61.2497 11.6666H52.4997Z" fill="#FF9E76"/>
</svg>
