<svg width="70" height="88" viewBox="0 0 70 88" fill="none" xmlns="http://www.w3.org/2000/svg">
<path d="M10.868 83V72.92H13.696L16.776 82.636H15.782L18.862 72.92H21.704V83H19.912V73.522H20.206L17.21 83H15.264L12.296 73.606H12.576V83H10.868ZM23.4461 83V72.92H27.9681C28.7055 72.92 29.3355 73.046 29.8581 73.298C30.3901 73.55 30.7961 73.9047 31.0761 74.362C31.3655 74.8193 31.5101 75.3607 31.5101 75.986C31.5101 76.602 31.3655 77.1433 31.0761 77.61C30.7868 78.0767 30.3808 78.4407 29.8581 78.702C29.3355 78.954 28.7055 79.08 27.9681 79.08H24.8601V77.652H27.8841C28.4628 77.652 28.9061 77.5027 29.2141 77.204C29.5315 76.9053 29.6901 76.4993 29.6901 75.986C29.6901 75.482 29.5315 75.0853 29.2141 74.796C28.9061 74.5067 28.4628 74.362 27.8841 74.362H25.2661V83H23.4461ZM36.402 83V80.34L36.486 80.06V74.306L37.186 74.614L33.042 80.172L32.244 79.514H39.356V80.956H31.46V79.57L36.458 72.92H38.264V83H36.402Z" fill="#FF9E76"/>
<path d="M52.4997 11.6666L57.808 22.2833C58.0413 22.75 57.6913 23.3333 57.1663 23.3333H51.3913C50.283 23.3333 49.2622 22.7208 48.7955 21.7291L43.7497 11.6666H37.9163L43.2247 22.2833C43.458 22.75 43.108 23.3333 42.583 23.3333H36.808C35.6997 23.3333 34.6788 22.7208 34.2122 21.7291L29.1663 11.6666H23.333L28.6413 22.2833C28.8747 22.75 28.5247 23.3333 27.9997 23.3333H22.2247C21.1163 23.3333 20.0955 22.7208 19.5997 21.7291L14.583 11.6666H11.6663C8.45801 11.6666 5.83301 14.2916 5.83301 17.5V52.5C5.83301 55.7083 8.45801 58.3333 11.6663 58.3333H58.333C61.5413 58.3333 64.1663 55.7083 64.1663 52.5V14.5833C64.1663 12.9791 62.8538 11.6666 61.2497 11.6666H52.4997Z" fill="#FF9E76"/>
</svg>
