<svg width="43" height="43" viewBox="0 0 43 43" fill="none" xmlns="http://www.w3.org/2000/svg">
<path d="M4.5 33.5C4.5 30.6716 4.5 29.2574 5.37868 28.3787C6.25736 27.5 7.67157 27.5 10.5 27.5H11.5C13.3856 27.5 14.3284 27.5 14.9142 28.0858C15.5 28.6716 15.5 29.6144 15.5 31.5V41.5H4.5V33.5Z" stroke="#FF4B00" stroke-width="3" stroke-linecap="round" stroke-linejoin="round"/>
<path d="M27.5 35.5C27.5 33.6144 27.5 32.6716 28.0858 32.0858C28.6716 31.5 29.6144 31.5 31.5 31.5H32.5C35.3284 31.5 36.7426 31.5 37.6213 32.3787C38.5 33.2574 38.5 34.6716 38.5 37.5V41.5H27.5V35.5Z" stroke="#FF4B00" stroke-width="3" stroke-linecap="round" stroke-linejoin="round"/>
<path d="M1.5 41.5H41.5" stroke="#FF4B00" stroke-width="3" stroke-linecap="round" stroke-linejoin="round"/>
<path d="M15.5 29.5C15.5 26.6716 15.5 25.2574 16.3787 24.3787C17.2574 23.5 18.6716 23.5 21.5 23.5C24.3284 23.5 25.7426 23.5 26.6213 24.3787C27.5 25.2574 27.5 26.6716 27.5 29.5V41.5H15.5V29.5Z" stroke="#FF4B00" stroke-width="3" stroke-linecap="round" stroke-linejoin="round"/>
<path d="M22.8821 2.65534L24.29 5.4943C24.4819 5.8895 24.9939 6.26856 25.4258 6.34115L27.9775 6.7686C29.6094 7.04282 29.9933 8.23648 28.8175 9.414L26.8337 11.4142C26.4977 11.7529 26.3137 12.4062 26.4177 12.874L26.9857 15.35C27.4336 17.3098 26.4017 18.068 24.6819 17.0437L22.2902 15.6162C21.8582 15.3581 21.1463 15.3581 20.7063 15.6162L18.3146 17.0437C16.6028 18.068 15.5629 17.3018 16.0109 15.35L16.5788 12.874C16.6828 12.4062 16.4988 11.7529 16.1629 11.4142L14.1791 9.414C13.0112 8.23648 13.3872 7.04282 15.019 6.7686L17.5707 6.34115C17.9946 6.26856 18.5066 5.8895 18.6986 5.4943L20.1064 2.65534C20.8743 1.11489 22.1222 1.11489 22.8821 2.65534Z" stroke="#FF4B00" stroke-width="3" stroke-linecap="round" stroke-linejoin="round"/>
</svg>
