<svg width="33" height="33" viewBox="0 0 33 33" fill="none" xmlns="http://www.w3.org/2000/svg">
<path d="M16.4999 10.5833V17.25M18.5767 2.26466L20.6117 3.99882C21.1244 4.43571 21.7609 4.69985 22.4324 4.75343L25.0974 4.96583C26.6643 5.09086 27.9089 6.33466 28.0339 7.90154L28.2458 10.5671C28.2994 11.2385 28.5645 11.876 29.0014 12.3887L30.7348 14.423C31.7543 15.6194 31.7545 17.3792 30.7349 18.5756L29.0015 20.6103C28.5647 21.123 28.2999 21.7607 28.2463 22.4321L28.0331 25.0972C27.9081 26.6641 26.6654 27.9087 25.0986 28.0337L22.4325 28.2464C21.7611 28.3 21.1239 28.5634 20.6112 29.0003L18.5767 30.7345C17.3804 31.7541 15.6195 31.7543 14.4231 30.7348L12.3886 29.0005C11.8759 28.5636 11.2388 28.2997 10.5673 28.2461L7.90129 28.0337C6.3344 27.9087 5.09176 26.6644 4.96672 25.0975L4.7535 22.4323C4.69992 21.7609 4.43519 21.1237 3.99829 20.611L2.26489 18.5757C1.24535 17.3793 1.24488 15.62 2.26442 14.4237L3.99938 12.3884C4.43627 11.8757 4.69846 11.2385 4.75204 10.5671L4.96525 7.90186C5.09029 6.33498 6.33653 5.0907 7.90341 4.96566L10.5665 4.75326C11.2379 4.69968 11.8754 4.43576 12.3881 3.99887L14.4233 2.26466C15.6196 1.24511 17.3804 1.24511 18.5767 2.26466ZM16.5829 22.25V22.4167L16.4169 22.416V22.25H16.5829Z" stroke="#FF4B00" stroke-width="3" stroke-linecap="round" stroke-linejoin="round"/>
</svg>
