<svg width="34" height="34" viewBox="0 0 34 34" fill="none" xmlns="http://www.w3.org/2000/svg">
<path d="M23.6466 13.887L26.1848 11.3487C27.1606 10.3729 27.1606 8.79073 26.1848 7.81489C25.209 6.83905 23.6267 6.83905 22.6509 7.81489L20.1127 10.3531M23.6466 13.887L8.5157 29.0178C7.53986 29.9936 5.95772 29.9936 4.98188 29.0178C4.00604 28.042 4.00604 26.4598 4.98188 25.484L20.1127 10.3531M23.6466 13.887L20.1127 10.3531" stroke="#FF5A1F" stroke-width="2" stroke-linejoin="round"/>
<path d="M25.4628 19.8635C25.471 19.8228 25.5291 19.8228 25.5373 19.8635C25.9678 21.9695 27.6136 23.6153 29.7196 24.0458C29.7602 24.054 29.7602 24.1121 29.7196 24.1203C27.6136 24.5508 25.9678 26.1966 25.5373 28.3026C25.5291 28.3432 25.471 28.3432 25.4628 28.3026C25.0323 26.1966 23.3865 24.5508 21.2805 24.1203C21.2398 24.1121 21.2398 24.054 21.2805 24.0458C23.3865 23.6153 25.0323 21.9695 25.4628 19.8635Z" stroke="#FF5A1F" stroke-width="2" stroke-linejoin="round"/>
<path d="M11.5042 4.6887C11.6238 4.10377 12.4595 4.10377 12.5791 4.6887C12.8432 5.98058 13.8527 6.99017 15.1446 7.25422C15.7295 7.37379 15.7295 8.20954 15.1446 8.3291C13.8527 8.59316 12.8432 9.60274 12.5791 10.8946C12.4595 11.4796 11.6238 11.4796 11.5042 10.8946C11.2402 9.60274 10.2306 8.59316 8.9387 8.3291C8.35377 8.20954 8.35377 7.37379 8.9387 7.25422C10.2306 6.99017 11.2402 5.98058 11.5042 4.6887Z" fill="#FF5A1F"/>
</svg>
