<svg width="71" height="89" viewBox="0 0 71 89" fill="none" xmlns="http://www.w3.org/2000/svg">
<rect x="0.8" y="1.8" width="68.4" height="86.4" rx="4.2" fill="white" stroke="#FF9E76" stroke-width="1.6"/>
<line x1="70.5" y1="19" x2="70.5" y2="24" stroke="white"/>
<line x1="47" y1="0.5" x2="50" y2="0.5" stroke="white"/>
<path d="M6.868 82V71.92H11.39C12.1273 71.92 12.7573 72.046 13.28 72.298C13.812 72.55 14.218 72.9047 14.498 73.362C14.7873 73.8193 14.932 74.3607 14.932 74.986C14.932 75.602 14.7873 76.1433 14.498 76.61C14.2087 77.0767 13.8027 77.4407 13.28 77.702C12.7573 77.954 12.1273 78.08 11.39 78.08H8.282V76.652H11.306C11.8847 76.652 12.328 76.5027 12.636 76.204C12.9533 75.9053 13.112 75.4993 13.112 74.986C13.112 74.482 12.9533 74.0853 12.636 73.796C12.328 73.5067 11.8847 73.362 11.306 73.362H8.688V82H6.868ZM17.3119 82V80.544H19.9159C20.6812 80.544 21.3346 80.39 21.8759 80.082C22.4172 79.774 22.8279 79.3447 23.1079 78.794C23.3972 78.2433 23.5419 77.6133 23.5419 76.904C23.5419 76.204 23.3972 75.588 23.1079 75.056C22.8279 74.524 22.4172 74.1133 21.8759 73.824C21.3439 73.5253 20.6906 73.376 19.9159 73.376H17.3399V71.92H19.9159C21.0172 71.92 21.9786 72.1253 22.7999 72.536C23.6212 72.9467 24.2559 73.53 24.7039 74.286C25.1612 75.0327 25.3899 75.9147 25.3899 76.932C25.3899 77.9493 25.1612 78.8407 24.7039 79.606C24.2466 80.362 23.6072 80.95 22.7859 81.37C21.9739 81.79 21.0219 82 19.9299 82H17.3119ZM16.2059 82V71.92H18.0259V82H16.2059ZM26.7743 82V71.92H28.5943V82H26.7743ZM27.6423 77.954V76.512H33.3123V77.954H27.6423ZM27.6423 73.362V71.92H33.6483V73.362H27.6423Z" fill="#FF9E76"/>
</svg>
