<svg width="71" height="89" viewBox="0 0 71 89" fill="none" xmlns="http://www.w3.org/2000/svg">
<rect x="0.8" y="1.8" width="68.4" height="86.4" rx="4.2" fill="white" stroke="#FF9E76" stroke-width="1.6"/>
<line x1="70.5" y1="19" x2="70.5" y2="24" stroke="white"/>
<line x1="47" y1="0.5" x2="50" y2="0.5" stroke="white"/>
<path d="M6.868 82V71.92H11.39C12.1273 71.92 12.7573 72.046 13.28 72.298C13.812 72.55 14.218 72.9047 14.498 73.362C14.7873 73.8193 14.932 74.3607 14.932 74.986C14.932 75.602 14.7873 76.1433 14.498 76.61C14.2087 77.0767 13.8027 77.4407 13.28 77.702C12.7573 77.954 12.1273 78.08 11.39 78.08H8.282V76.652H11.306C11.8847 76.652 12.328 76.5027 12.636 76.204C12.9533 75.9053 13.112 75.4993 13.112 74.986C13.112 74.482 12.9533 74.0853 12.636 73.796C12.328 73.5067 11.8847 73.362 11.306 73.362H8.688V82H6.868ZM16.2059 82V71.92H18.4599L23.3739 80.684L22.8559 80.81V71.92H24.6199V82H22.3659L17.4519 73.236L17.9699 73.11V82H16.2059ZM31.1804 82.14C30.1164 82.14 29.1971 81.93 28.4224 81.51C27.6478 81.0807 27.0504 80.4833 26.6304 79.718C26.2104 78.9433 26.0004 78.038 26.0004 77.002C26.0004 75.966 26.2104 75.0607 26.6304 74.286C27.0504 73.502 27.6338 72.8907 28.3804 72.452C29.1271 72.004 29.9951 71.78 30.9844 71.78C31.7871 71.78 32.5058 71.9293 33.1404 72.228C33.7844 72.5173 34.3024 72.9187 34.6944 73.432C35.0958 73.936 35.3384 74.524 35.4224 75.196H33.6024C33.5091 74.5987 33.2291 74.1273 32.7624 73.782C32.2958 73.4367 31.7124 73.264 31.0124 73.264C30.3778 73.264 29.8224 73.4133 29.3464 73.712C28.8704 74.0107 28.5018 74.4353 28.2404 74.986C27.9791 75.5367 27.8484 76.1947 27.8484 76.96C27.8484 77.744 27.9791 78.416 28.2404 78.976C28.5111 79.5267 28.8984 79.9467 29.4024 80.236C29.9158 80.5253 30.5411 80.67 31.2784 80.67C31.8478 80.67 32.3378 80.6 32.7484 80.46C33.1591 80.3107 33.4904 80.0913 33.7424 79.802L35.4924 80.488C34.9604 81.0293 34.3444 81.44 33.6444 81.72C32.9444 82 32.1231 82.14 31.1804 82.14ZM33.6724 80.488V77.548L34.1064 77.982H31.2644V76.554H35.4924V80.488H33.6724Z" fill="#FF9E76"/>
</svg>
