<svg width="40" height="29" viewBox="0 0 40 29" fill="none" xmlns="http://www.w3.org/2000/svg">
<g clip-path="url(#clip0_2106_8551)">
<path d="M20.0013 15.9292C21.0505 15.9292 21.9011 15.076 21.9011 14.0235C21.9011 12.9711 21.0505 12.1179 20.0013 12.1179C18.9521 12.1179 18.1016 12.9711 18.1016 14.0235C18.1016 15.076 18.9521 15.9292 20.0013 15.9292Z" fill="white"/>
<path d="M5.83799 1C2.82941 4.37186 1 8.82457 1 13.7059C1 19.3982 3.48783 24.5077 7.43233 28M34.162 1C37.1706 4.37186 39 8.82457 39 13.7059C39 19.3982 36.5122 24.5077 32.5677 28M12.0703 6.93999C10.3855 8.82823 9.36105 11.3217 9.36105 14.0553C9.36105 17.243 10.7542 20.1043 12.9632 22.06M27.9318 6.93999C29.6166 8.82823 30.641 11.3217 30.641 14.0553C30.641 17.243 29.2479 20.1043 27.0389 22.06M21.901 14.0235C21.901 15.076 21.0504 15.9292 20.0012 15.9292C18.952 15.9292 18.1015 15.076 18.1015 14.0235C18.1015 12.9711 18.952 12.1179 20.0012 12.1179C21.0504 12.1179 21.901 12.9711 21.901 14.0235Z" stroke="#0098FD" stroke-width="1.5" stroke-linecap="round" stroke-linejoin="round"/>
</g>
<defs>
<clipPath id="clip0_2106_8551">
<rect width="40" height="29" fill="white"/>
</clipPath>
</defs>
</svg>
