<svg width="24" height="24" viewBox="0 0 24 24" fill="none" xmlns="http://www.w3.org/2000/svg">
<g clip-path="url(#clip0_2895_2759)">
<path d="M16.85 17.1497L18.29 15.7097L13.41 10.8297L10.12 14.1197C9.72998 14.5097 9.09998 14.5097 8.70998 14.1197L2.70998 8.10973C2.31998 7.71973 2.31998 7.08973 2.70998 6.69973C3.09998 6.30973 3.72998 6.30973 4.11998 6.69973L9.40998 11.9997L12.7 8.70973C13.09 8.31973 13.72 8.31973 14.11 8.70973L19.7 14.2897L21.14 12.8497C21.45 12.5397 21.99 12.7597 21.99 13.1997V17.4897C21.99 17.7697 21.77 17.9897 21.49 17.9897H17.2C16.76 17.9997 16.54 17.4597 16.85 17.1497V17.1497Z" fill="#D41818"/>
</g>
<defs>
<clipPath id="clip0_2895_2759">
<rect width="24" height="24" fill="white"/>
</clipPath>
</defs>
</svg>
