<svg width="48" height="48" viewBox="0 0 48 48" fill="none" xmlns="http://www.w3.org/2000/svg">
<path fill-rule="evenodd" clip-rule="evenodd" d="M20.7147 11.6378C27.0062 6.21671 38.264 4.40972 41.9522 4.51069C42.5877 4.52809 42.9984 4.60212 43.1204 4.72407C43.9846 5.58831 42.4424 20.9583 35.3878 28.013C30.4141 32.9867 26.7474 34.912 23.9251 35.2331L17.6647 35.8367L12.0078 30.1798C12.0078 30.1798 12.0937 26.8944 12.5955 24.4679C12.6455 24.2263 12.6996 23.9931 12.7581 23.7726C14.0955 18.7357 15.0125 17.2755 19.8315 12.4566C20.1131 12.175 20.408 11.9021 20.7147 11.6378ZM33.9279 18.159C32.7564 19.3306 30.8569 19.3306 29.6853 18.159C28.5137 16.9874 28.5137 15.0879 29.6853 13.9164C30.8569 12.7448 32.7564 12.7448 33.9279 13.9164C35.0995 15.0879 35.0995 16.9874 33.9279 18.159Z" fill="#FF9E76"/>
<path d="M23.6572 38.2728L24.2387 38.2168L24.2643 38.2138C27.8052 37.811 31.7141 35.6453 36.3267 31.2849C35.9337 36.4765 32.6791 42.2253 24.578 43.9949L23.6572 38.2728Z" fill="#FF9E76"/>
<path d="M3.60449 23.0209C5.43051 14.6615 11.4936 11.4625 16.8094 11.2433C14.8833 13.2043 13.49 14.7723 12.4457 16.4421C11.2035 18.4282 10.5485 20.4041 9.85858 23.0028C9.77446 23.3196 9.69902 23.6516 9.63133 23.9908L3.60449 23.0209Z" fill="#FF9E76"/>
<path d="M5.16967 36.1014C5.54791 33.1926 8.2339 31.569 10.9458 32.135C10.1649 33.4749 10.3486 35.2224 11.4968 36.3705C12.6924 37.5661 14.5378 37.7159 15.8962 36.8199C16.6854 39.6467 15.0496 42.5525 12.0153 42.947L4.14648 43.9702L5.16967 36.1014Z" fill="#FF9E76"/>
</svg>
