<svg width="24" height="24" viewBox="0 0 24 24" fill="none" xmlns="http://www.w3.org/2000/svg">
  <path d="M4 10V14C4 14.5523 4.44772 15 5 15H8L13 19C13.6459 19 14 18.6148 14 18V6C14 5.38524 13.6459 5 13 5L8 9H5C4.44772 9 4 9.44772 4 10Z" fill="#111111"/>
  <path d="M16.5 8.5C17.6046 9.60457 18.25 11.0367 18.25 12.5C18.25 13.9633 17.6046 15.3954 16.5 16.5" stroke="#111111" stroke-width="1.8" stroke-linecap="round"/>
  <path d="M18.75 6.25C20.4075 7.90755 21.375 10.1201 21.375 12.5C21.375 14.8799 20.4075 17.0925 18.75 18.75" stroke="#111111" stroke-width="1.8" stroke-linecap="round"/>
</svg>
