<svg width="71" height="89" viewBox="0 0 71 89" fill="none" xmlns="http://www.w3.org/2000/svg">
<rect x="0.8" y="1.8" width="68.4" height="86.4" rx="4.2" fill="white" stroke="#FF9E76" stroke-width="1.6"/>
<line x1="70.5" y1="19" x2="70.5" y2="24" stroke="white"/>
<line x1="47" y1="0.5" x2="50" y2="0.5" stroke="white"/>
<path d="M10.774 82.126C9.50467 82.126 8.492 81.8367 7.736 81.258C6.98933 80.67 6.55067 79.844 6.42 78.78H8.17C8.254 79.396 8.52933 79.8767 8.996 80.222C9.46267 80.558 10.074 80.726 10.83 80.726C11.4553 80.726 11.9313 80.614 12.258 80.39C12.594 80.1567 12.762 79.8347 12.762 79.424C12.762 79.06 12.6593 78.766 12.454 78.542C12.2487 78.318 11.9033 78.136 11.418 77.996L9.598 77.45C8.674 77.17 7.99267 76.8013 7.554 76.344C7.12467 75.8867 6.91 75.3127 6.91 74.622C6.91 74.0433 7.05933 73.5393 7.358 73.11C7.65667 72.6807 8.07667 72.3493 8.618 72.116C9.16867 71.8827 9.808 71.766 10.536 71.766C11.656 71.766 12.5473 72.0413 13.21 72.592C13.882 73.1333 14.2647 73.8707 14.358 74.804H12.608C12.5053 74.244 12.272 73.8333 11.908 73.572C11.544 73.3013 11.054 73.166 10.438 73.166C9.89667 73.166 9.46733 73.2733 9.15 73.488C8.83267 73.7027 8.674 73.9967 8.674 74.37C8.674 74.678 8.76733 74.9393 8.954 75.154C9.15 75.3687 9.50933 75.5553 10.032 75.714L11.88 76.274C12.804 76.5447 13.476 76.9133 13.896 77.38C14.316 77.8467 14.526 78.4393 14.526 79.158C14.526 80.11 14.1947 80.8427 13.532 81.356C12.8787 81.8693 11.9593 82.126 10.774 82.126ZM18.5922 82L14.8822 71.92H16.7862L19.8242 80.712H19.5162L22.5542 71.92H24.3602L20.6642 82H18.5922ZM29.8269 82.14C28.7629 82.14 27.8436 81.93 27.0689 81.51C26.2942 81.0807 25.6969 80.4833 25.2769 79.718C24.8569 78.9433 24.6469 78.038 24.6469 77.002C24.6469 75.966 24.8569 75.0607 25.2769 74.286C25.6969 73.502 26.2802 72.8907 27.0269 72.452C27.7736 72.004 28.6416 71.78 29.6309 71.78C30.4336 71.78 31.1522 71.9293 31.7869 72.228C32.4309 72.5173 32.9489 72.9187 33.3409 73.432C33.7422 73.936 33.9849 74.524 34.0689 75.196H32.2489C32.1556 74.5987 31.8756 74.1273 31.4089 73.782C30.9422 73.4367 30.3589 73.264 29.6589 73.264C29.0242 73.264 28.4689 73.4133 27.9929 73.712C27.5169 74.0107 27.1482 74.4353 26.8869 74.986C26.6256 75.5367 26.4949 76.1947 26.4949 76.96C26.4949 77.744 26.6256 78.416 26.8869 78.976C27.1576 79.5267 27.5449 79.9467 28.0489 80.236C28.5622 80.5253 29.1876 80.67 29.9249 80.67C30.4942 80.67 30.9842 80.6 31.3949 80.46C31.8056 80.3107 32.1369 80.0913 32.3889 79.802L34.1389 80.488C33.6069 81.0293 32.9909 81.44 32.2909 81.72C31.5909 82 30.7696 82.14 29.8269 82.14ZM32.3189 80.488V77.548L32.7529 77.982H29.9109V76.554H34.1389V80.488H32.3189Z" fill="#FF9E76"/>
</svg>
