<svg width="70" height="88" viewBox="0 0 70 88" fill="none" xmlns="http://www.w3.org/2000/svg">
<path d="M13.444 83L10.546 72.92H12.394L14.858 82.174H14.326L16.608 72.92H18.708L20.962 82.174H20.444L22.908 72.92H24.672L21.774 83H19.702L17.406 73.956H17.84L15.516 83H13.444ZM26.0848 83V72.92H27.9048V83H26.0848ZM26.9528 83V81.558H33.3368V83H26.9528ZM26.9528 78.52V77.106H32.8468V78.52H26.9528ZM26.9528 74.362V72.92H33.1828V74.362H26.9528ZM36.1124 83V81.656H38.9264C39.4397 81.656 39.8364 81.516 40.1164 81.236C40.3964 80.9467 40.5364 80.5547 40.5364 80.06C40.5364 79.5467 40.3871 79.1407 40.0884 78.842C39.7897 78.5433 39.3744 78.394 38.8424 78.394H36.1124V77.05H38.7164C39.2204 77.05 39.6077 76.9287 39.8784 76.686C40.1491 76.4433 40.2844 76.0933 40.2844 75.636C40.2844 75.188 40.1537 74.8473 39.8924 74.614C39.6404 74.3807 39.2671 74.264 38.7724 74.264H36.1124V72.92H39.1084C40.0137 72.92 40.7371 73.1487 41.2784 73.606C41.8291 74.054 42.1044 74.6653 42.1044 75.44C42.1044 75.9253 41.9877 76.35 41.7544 76.714C41.5304 77.0687 41.2271 77.344 40.8444 77.54C40.4617 77.736 40.0277 77.834 39.5424 77.834L39.6124 77.54C40.1257 77.54 40.5924 77.6567 41.0124 77.89C41.4324 78.114 41.7637 78.4313 42.0064 78.842C42.2584 79.2527 42.3844 79.7287 42.3844 80.27C42.3844 80.8207 42.2537 81.3013 41.9924 81.712C41.7404 82.1227 41.3811 82.44 40.9144 82.664C40.4571 82.888 39.9157 83 39.2904 83H36.1124ZM34.6844 83V72.92H36.5044V83H34.6844ZM43.7078 83V72.92H46.5358L49.6158 82.636H48.6218L51.7018 72.92H54.5438V83H52.7518V73.522H53.0458L50.0498 83H48.1038L45.1358 73.606H45.4158V83H43.7078Z" fill="#FF9E76"/>
<path d="M52.4997 11.6666L57.808 22.2833C58.0413 22.75 57.6913 23.3333 57.1663 23.3333H51.3913C50.283 23.3333 49.2622 22.7208 48.7955 21.7291L43.7497 11.6666H37.9163L43.2247 22.2833C43.458 22.75 43.108 23.3333 42.583 23.3333H36.808C35.6997 23.3333 34.6788 22.7208 34.2122 21.7291L29.1663 11.6666H23.333L28.6413 22.2833C28.8747 22.75 28.5247 23.3333 27.9997 23.3333H22.2247C21.1163 23.3333 20.0955 22.7208 19.5997 21.7291L14.583 11.6666H11.6663C8.45801 11.6666 5.83301 14.2916 5.83301 17.5V52.5C5.83301 55.7083 8.45801 58.3333 11.6663 58.3333H58.333C61.5413 58.3333 64.1663 55.7083 64.1663 52.5V14.5833C64.1663 12.9791 62.8538 11.6666 61.2497 11.6666H52.4997Z" fill="#FF9E76"/>
</svg>
