<svg width="40" height="40" viewBox="0 0 40 40" fill="none" xmlns="http://www.w3.org/2000/svg">
<path d="M16.667 21.6667C17.3828 22.6236 18.2959 23.4153 19.3446 23.9883C20.3932 24.5612 21.5528 24.9019 22.7447 24.9872C23.9367 25.0726 25.133 24.9006 26.2526 24.483C27.3722 24.0653 28.3889 23.4118 29.2337 22.5667L34.2337 17.5667C35.7516 15.995 36.5916 13.89 36.5726 11.705C36.5536 9.52004 35.6772 7.42994 34.1322 5.88487C32.5871 4.3398 30.497 3.46339 28.312 3.44441C26.127 3.42542 24.022 4.26537 22.4503 5.78336L19.5837 8.63336M23.3337 18.3334C22.6179 17.3765 21.7047 16.5847 20.6561 16.0118C19.6074 15.4389 18.4478 15.0982 17.2559 15.0128C16.064 14.9274 14.8677 15.0994 13.7481 15.5171C12.6285 15.9347 11.6118 16.5882 10.767 17.4334L5.767 22.4334C4.24902 24.005 3.40906 26.1101 3.42805 28.295C3.44704 30.48 4.32344 32.5701 5.86851 34.1152C7.41358 35.6602 9.50368 36.5367 11.6887 36.5556C13.8736 36.5746 15.9786 35.7347 17.5503 34.2167L20.4003 31.3667" stroke="white" stroke-width="3.5" stroke-linecap="round" stroke-linejoin="round"/>
</svg>
