<svg width="15" height="15" viewBox="0 0 15 15" fill="none" xmlns="http://www.w3.org/2000/svg">
<path fill-rule="evenodd" clip-rule="evenodd" d="M6.47359 3.63667C8.43969 1.94258 11.9577 1.37789 13.1103 1.40945C13.3089 1.41488 13.4372 1.43802 13.4754 1.47613C13.7454 1.7462 13.2635 6.54932 11.0589 8.75392C9.50465 10.3082 8.35881 10.9099 7.47684 11.0102L5.52047 11.1988L3.75269 9.43104C3.75269 9.43104 3.77953 8.40436 3.93634 7.64607C3.95197 7.57057 3.96887 7.4977 3.98715 7.42879C4.40509 5.85476 4.69165 5.39845 6.19759 3.89254C6.28559 3.80454 6.37775 3.71926 6.47359 3.63667ZM10.6027 5.67454C10.2366 6.04067 9.64303 6.04067 9.27691 5.67454C8.91078 5.30842 8.91078 4.71482 9.27691 4.34873C9.64303 3.9826 10.2366 3.9826 10.6027 4.34873C10.9688 4.71482 10.9688 5.30842 10.6027 5.67454Z" fill="white"/>
<path d="M7.39307 11.9601L7.57478 11.9426L7.58279 11.9416C8.68932 11.8158 9.91085 11.139 11.3523 9.77637C11.2295 11.3987 10.2124 13.1952 7.68082 13.7482L7.39307 11.9601Z" fill="white"/>
<path d="M1.12646 7.19417C1.6971 4.58186 3.59181 3.58217 5.253 3.51367C4.6511 4.12648 4.21569 4.61648 3.88935 5.1383C3.50116 5.75895 3.29647 6.37642 3.08087 7.18852C3.05458 7.28752 3.03101 7.39127 3.00985 7.49727L1.12646 7.19417Z" fill="white"/>
<path d="M1.61565 11.2818C1.73385 10.3728 2.57322 9.86538 3.42069 10.0423C3.17666 10.461 3.23406 11.0071 3.59288 11.3658C3.9665 11.7395 4.54319 11.7863 4.96769 11.5063C5.21431 12.3897 4.70313 13.2977 3.75491 13.421L1.2959 13.7408L1.61565 11.2818Z" fill="white"/>
</svg>
