<svg width="22" height="25" viewBox="0 0 22 25" fill="none" xmlns="http://www.w3.org/2000/svg">
<path d="M10.4445 23.2224C5.9923 23.2224 3.76622 23.2224 2.38311 21.5952C1 19.968 1 17.349 1 12.1112C1 6.87332 1 4.25439 2.38311 2.6272C3.76622 1 5.9923 1 10.4445 1C14.8966 1 17.1227 1 18.5058 2.6272C19.6192 3.93705 19.8363 5.88952 19.8787 9.33339" stroke="white" stroke-width="2" stroke-linecap="round" stroke-linejoin="round"/>
<path d="M6.55566 7.66699H14.3335M6.55566 13.2226H9.889" stroke="white" stroke-width="2" stroke-linecap="round" stroke-linejoin="round"/>
<path d="M19.4547 18.8951C20.3912 18.2133 21 17.1084 21 15.8614C21 13.7903 19.321 12.1113 17.25 12.1113H16.9722C14.9011 12.1113 13.2222 13.7903 13.2222 15.8614C13.2222 17.1084 13.8309 18.2133 14.7675 18.8951M19.4547 18.8951C18.8359 19.3456 18.0739 19.6114 17.25 19.6114H16.9722C16.1482 19.6114 15.3863 19.3456 14.7675 18.8951M19.4547 18.8951L20.1022 20.9341C20.3492 21.7117 20.4727 22.1006 20.4389 22.3427C20.3686 22.8466 19.9577 23.2207 19.4724 23.2225C19.2392 23.2234 18.89 23.0401 18.1914 22.6735C17.8918 22.5163 17.742 22.4377 17.5888 22.3914C17.2766 22.2973 16.9455 22.2973 16.6333 22.3914C16.4801 22.4377 16.3303 22.5163 16.0307 22.6735C15.3322 23.0401 14.9829 23.2234 14.7497 23.2225C14.2645 23.2207 13.8535 22.8466 13.7832 22.3427C13.7494 22.1006 13.8729 21.7117 14.1199 20.9341L14.7675 18.8951" stroke="white" stroke-width="2"/>
</svg>
