<svg width="37" height="37" viewBox="0 0 37 37" fill="none" xmlns="http://www.w3.org/2000/svg">
<path d="M18.5002 6.16634C11.6886 6.16634 6.16683 11.6881 6.16683 18.4997C6.16683 25.3112 11.6886 30.833 18.5002 30.833C23.7935 30.833 28.3112 27.4972 30.0596 22.8106L33.2084 23.1319C31.2417 29.3816 25.4024 33.9163 18.5002 33.9163C9.98577 33.9163 3.0835 27.0141 3.0835 18.4997C3.0835 9.98528 9.98577 3.08301 18.5002 3.08301C22.4796 3.08301 26.1081 4.59226 28.842 7.06631L30.9173 4.99105C31.3749 4.53347 32.1586 4.80933 32.2286 5.45264L33.0422 12.921C33.0955 13.4107 32.6821 13.8241 32.1924 13.7708L24.724 12.9573C24.0807 12.8872 23.8048 12.1035 24.2624 11.6459L26.6584 9.24991C24.4832 7.32944 21.6283 6.16634 18.5002 6.16634Z" fill="white"/>
</svg>
