<svg width="19" height="25" viewBox="0 0 19 25" fill="none" xmlns="http://www.w3.org/2000/svg">
<path d="M1 9.5C1 14.1944 4.80558 18 9.5 18C14.1944 18 18 14.1944 18 9.5C18 4.80558 14.1944 1 9.5 1C4.80558 1 1 4.80558 1 9.5Z" stroke="white" stroke-width="2" stroke-linecap="round" stroke-linejoin="round"/>
<path d="M6.1001 10.2566C6.1001 10.2566 6.9501 10.2566 7.8001 11.7677C7.8001 11.7677 10.5001 7.98993 12.9001 7.23438" stroke="white" stroke-width="2" stroke-linecap="round" stroke-linejoin="round"/>
<path d="M15.0337 15.7344L15.7932 19.3723C16.2813 21.7097 16.5253 22.8784 16.0241 23.4323C15.5228 23.9862 14.6524 23.5097 12.9114 22.5568L10.3348 21.1464C9.92337 20.9212 9.71764 20.8086 9.5002 20.8086C9.28275 20.8086 9.07703 20.9212 8.66558 21.1464L6.08895 22.5568C4.34803 23.5097 3.47757 23.9862 2.97634 23.4323C2.4751 22.8784 2.71912 21.7097 3.20715 19.3723L3.96672 15.7344" stroke="white" stroke-width="2" stroke-linejoin="round"/>
</svg>
