<svg width="20" height="20" viewBox="0 0 20 20" fill="none" xmlns="http://www.w3.org/2000/svg">
<path d="M10.625 10C10.625 10.3452 10.3452 10.625 10 10.625C9.65482 10.625 9.375 10.3452 9.375 10C9.375 9.65482 9.65482 9.375 10 9.375C10.3452 9.375 10.625 9.65482 10.625 10Z" fill="#3B3B3B"/>
<path d="M10.625 10C10.625 10.3452 10.3452 10.625 10 10.625C9.65482 10.625 9.375 10.3452 9.375 10C9.375 9.65482 9.65482 9.375 10 9.375M10.625 10C10.625 9.65482 10.3452 9.375 10 9.375M10.625 10H13.75M10 9.375V5.41667M17.5 10C17.5 14.1421 14.1421 17.5 10 17.5C5.85786 17.5 2.5 14.1421 2.5 10C2.5 5.85786 5.85786 2.5 10 2.5C14.1421 2.5 17.5 5.85786 17.5 10Z" stroke="#3B3B3B" stroke-width="1.6" stroke-linecap="round" stroke-linejoin="round"/>
</svg>
