<svg width="12" height="12" viewBox="0 0 12 12" fill="none" xmlns="http://www.w3.org/2000/svg">
<g clip-path="url(#clip0_2668_2715)">
<path d="M8.42523 3.425L9.14523 4.145L6.70523 6.585L5.06023 4.94C4.86523 4.745 4.55023 4.745 4.35523 4.94L1.35523 7.945C1.16023 8.14 1.16023 8.455 1.35523 8.65C1.55023 8.845 1.86523 8.845 2.06023 8.65L4.70523 6L6.35023 7.645C6.54523 7.84 6.86023 7.84 7.05523 7.645L9.85023 4.855L10.5702 5.575C10.7252 5.73 10.9952 5.62 10.9952 5.4V3.25C11.0002 3.11 10.8902 3 10.7502 3H8.60523C8.38023 3 8.27023 3.27 8.42523 3.425Z" fill="#70D2F0"/>
</g>
<defs>
<clipPath id="clip0_2668_2715">
<rect width="12" height="12" fill="white"/>
</clipPath>
</defs>
</svg>
