<svg width="31" height="31" viewBox="0 0 31 31" fill="none" xmlns="http://www.w3.org/2000/svg">
<g clip-path="url(#clip0_2761_2658)">
<path d="M15.5 11.625H20.6667C21.3771 11.625 21.9583 11.0437 21.9583 10.3333C21.9583 9.62292 21.3771 9.04167 20.6667 9.04167H15.5C14.7896 9.04167 14.2083 9.62292 14.2083 10.3333C14.2083 11.0437 14.7896 11.625 15.5 11.625ZM15.5 16.7917H20.6667C21.3771 16.7917 21.9583 16.2104 21.9583 15.5C21.9583 14.7896 21.3771 14.2083 20.6667 14.2083H15.5C14.7896 14.2083 14.2083 14.7896 14.2083 15.5C14.2083 16.2104 14.7896 16.7917 15.5 16.7917ZM15.5 21.9583H20.6667C21.3771 21.9583 21.9583 21.3771 21.9583 20.6667C21.9583 19.9562 21.3771 19.375 20.6667 19.375H15.5C14.7896 19.375 14.2083 19.9562 14.2083 20.6667C14.2083 21.3771 14.7896 21.9583 15.5 21.9583ZM9.04167 9.04167H11.625V11.625H9.04167V9.04167ZM9.04167 14.2083H11.625V16.7917H9.04167V14.2083ZM9.04167 19.375H11.625V21.9583H9.04167V19.375ZM25.8333 3.875H5.16667C4.45625 3.875 3.875 4.45625 3.875 5.16667V25.8333C3.875 26.5437 4.45625 27.125 5.16667 27.125H25.8333C26.5437 27.125 27.125 26.5437 27.125 25.8333V5.16667C27.125 4.45625 26.5437 3.875 25.8333 3.875ZM24.5417 24.5417H6.45833V6.45833H24.5417V24.5417Z" fill="#919191"/>
<circle cx="23" cy="23" r="5" fill="white"/>
<path d="M22.995 18C20.235 18 18 20.24 18 23C18 25.76 20.235 28 22.995 28C25.76 28 28 25.76 28 23C28 20.24 25.76 18 22.995 18ZM23 27C20.79 27 19 25.21 19 23C19 20.79 20.79 19 23 19C25.21 19 27 20.79 27 23C27 25.21 25.21 27 23 27ZM22.89 20.5H22.86C22.66 20.5 22.5 20.66 22.5 20.86V23.22C22.5 23.395 22.59 23.56 22.745 23.65L24.82 24.895C24.99 24.995 25.21 24.945 25.31 24.775C25.415 24.605 25.36 24.38 25.185 24.28L23.25 23.13V20.86C23.25 20.66 23.09 20.5 22.89 20.5V20.5Z" fill="#919191"/>
</g>
<defs>
<clipPath id="clip0_2761_2658">
<rect width="31" height="31" fill="white"/>
</clipPath>
</defs>
</svg>
