<svg width="22" height="22" viewBox="0 0 22 22" fill="none" xmlns="http://www.w3.org/2000/svg">
<path d="M8.80038 5.6031C9.09544 4.85496 10.1542 4.85496 10.4493 5.6031L11.2843 7.72013C11.8247 9.09059 12.9095 10.1754 14.28 10.7159L16.3971 11.5509C17.1452 11.846 17.1452 12.9047 16.3971 13.1998L14.28 14.0348C12.9095 14.5752 11.8247 15.66 11.2843 17.0305L10.4493 19.1476C10.1542 19.8957 9.09544 19.8957 8.80038 19.1476L7.96543 17.0305C7.42493 15.66 6.3401 14.5752 4.96964 14.0348L2.85261 13.1998C2.10447 12.9047 2.10447 11.846 2.85261 11.5509L4.96964 10.7159C6.3401 10.1754 7.42493 9.09059 7.96543 7.72013L8.80038 5.6031Z" stroke="#888888" stroke-width="2"/>
<path d="M16.6493 2.5024C16.7599 2.22186 17.157 2.22186 17.2677 2.5024L17.5807 3.29629C17.7835 3.81021 18.1903 4.21703 18.7042 4.41971L19.4981 4.73282C19.7786 4.84347 19.7786 5.24051 19.4981 5.35116L18.7042 5.66427C18.1903 5.86695 17.7835 6.27377 17.5807 6.78769L17.2677 7.58158C17.157 7.86212 16.7599 7.86212 16.6493 7.58158L16.3363 6.78769C16.1335 6.27377 15.7267 5.86695 15.2128 5.66427L14.4189 5.35116C14.1384 5.24051 14.1384 4.84347 14.4189 4.73282L15.2128 4.41971C15.7267 4.21703 16.1335 3.81021 16.3363 3.29629L16.6493 2.5024Z" stroke="#888888" stroke-width="2"/>
</svg>
