<svg width="20" height="20" viewBox="0 0 20 20" fill="none" xmlns="http://www.w3.org/2000/svg">
<g clip-path="url(#clip0_2746_2606)">
<path d="M16.6666 4.99967H9.99996L8.82496 3.82467C8.50829 3.50801 8.08329 3.33301 7.64163 3.33301H3.33329C2.41663 3.33301 1.67496 4.08301 1.67496 4.99967L1.66663 14.9997C1.66663 15.9163 2.41663 16.6663 3.33329 16.6663H16.6666C17.5833 16.6663 18.3333 15.9163 18.3333 14.9997V6.66634C18.3333 5.74967 17.5833 4.99967 16.6666 4.99967ZM15.8333 14.9997H4.16663C3.70829 14.9997 3.33329 14.6247 3.33329 14.1663V7.49967C3.33329 7.04134 3.70829 6.66634 4.16663 6.66634H15.8333C16.2916 6.66634 16.6666 7.04134 16.6666 7.49967V14.1663C16.6666 14.6247 16.2916 14.9997 15.8333 14.9997Z" fill="#B0B0B0"/>
</g>
<defs>
<clipPath id="clip0_2746_2606">
<rect width="20" height="20" fill="white"/>
</clipPath>
</defs>
</svg>
