<svg width="20" height="20" viewBox="0 0 20 20" fill="none" xmlns="http://www.w3.org/2000/svg">
<path d="M9.99984 3.33366C6.31792 3.33366 3.33317 6.31841 3.33317 10.0003C3.33317 13.6822 6.31792 16.667 9.99984 16.667C12.8611 16.667 15.3031 14.8639 16.2482 12.3305L17.9502 12.5042C16.8872 15.8825 13.7308 18.3337 9.99984 18.3337C5.39746 18.3337 1.6665 14.6027 1.6665 10.0003C1.6665 5.39795 5.39746 1.66699 9.99984 1.66699C12.1509 1.66699 14.1123 2.4828 15.59 3.82013L16.7118 2.69837C16.9591 2.45103 17.3828 2.60014 17.4206 2.94788L17.8604 6.98483C17.8892 7.24953 17.6658 7.47299 17.401 7.44416L13.3641 7.00445C13.0163 6.96658 12.8672 6.54295 13.1145 6.29558L14.4097 5.00045C13.2339 3.96236 11.6907 3.33366 9.99984 3.33366Z" fill="#B0B0B0"/>
</svg>
