<svg width="36" height="36" viewBox="0 0 36 36" fill="none" xmlns="http://www.w3.org/2000/svg">
<path d="M16.5 6.00034H6C5.20435 6.00034 4.44129 6.31641 3.87868 6.87902C3.31607 7.44163 3 8.20469 3 9.00034V30.0003C3 30.796 3.31607 31.5591 3.87868 32.1217C4.44129 32.6843 5.20435 33.0003 6 33.0003H27C27.7956 33.0003 28.5587 32.6843 29.1213 32.1217C29.6839 31.5591 30 30.796 30 30.0003V19.5003M27.75 3.75034C28.3467 3.1536 29.1561 2.81836 30 2.81836C30.8439 2.81836 31.6533 3.1536 32.25 3.75034C32.8467 4.34708 33.182 5.15643 33.182 6.00034C33.182 6.84425 32.8467 7.6536 32.25 8.25034L18 22.5003L12 24.0003L13.5 18.0003L27.75 3.75034Z" stroke="#FF4B00" stroke-width="2.5" stroke-linecap="round" stroke-linejoin="round"/>
</svg>
