<svg width="21" height="21" viewBox="0 0 21 21" fill="none" xmlns="http://www.w3.org/2000/svg">
<path d="M18.76 9.66831L10.7188 17.7096C9.73365 18.6947 8.39754 19.2481 7.00438 19.2481C5.61122 19.2481 4.27512 18.6947 3.29001 17.7096C2.3049 16.7244 1.75146 15.3883 1.75146 13.9952C1.75146 12.602 2.3049 11.2659 3.29001 10.2808L11.3313 2.23956C11.988 1.58282 12.8787 1.21387 13.8075 1.21387C14.7363 1.21387 15.627 1.58282 16.2838 2.23956C16.9405 2.89631 17.3095 3.78704 17.3095 4.71581C17.3095 5.64459 16.9405 6.53532 16.2838 7.19206L8.23376 15.2333C7.90539 15.5617 7.46002 15.7462 6.99563 15.7462C6.53125 15.7462 6.08588 15.5617 5.75751 15.2333C5.42914 14.9049 5.24466 14.4596 5.24466 13.9952C5.24466 13.5308 5.42914 13.0854 5.75751 12.7571L13.1863 5.33706" stroke="#FF4B00" stroke-width="2.1" stroke-linecap="round" stroke-linejoin="round"/>
</svg>
