<svg width="24" height="24" viewBox="0 0 24 24" fill="none" xmlns="http://www.w3.org/2000/svg">
<path d="M9 8C9 8.13807 8.88807 8.25 8.75 8.25C8.61193 8.25 8.5 8.13807 8.5 8C8.5 7.86193 8.61193 7.75 8.75 7.75C8.88807 7.75 9 7.86193 9 8Z" fill="white" stroke="white" stroke-width="2.5"/>
<path d="M12 8H15.5M8.5 12H15.5M8.5 16H15.5M6.8043 21H17.1957C17.9474 21 18.3233 21 18.5868 20.8086C18.6719 20.7467 18.7467 20.6719 18.8086 20.5868C19 20.3233 19 19.9474 19 19.1957V4.8043C19 4.05256 19 3.67669 18.8086 3.4132C18.7467 3.3281 18.6719 3.25327 18.5868 3.19144C18.3233 3 17.9474 3 17.1957 3H6.8043C6.05256 3 5.67669 3 5.4132 3.19144C5.3281 3.25327 5.25327 3.3281 5.19144 3.4132C5 3.67669 5 4.05256 5 4.8043V19.1957C5 19.9474 5 20.3233 5.19144 20.5868C5.25327 20.6719 5.3281 20.7467 5.4132 20.8086C5.67669 21 6.05256 21 6.8043 21Z" stroke="white" stroke-width="2.5" stroke-linecap="round" stroke-linejoin="round"/>
</svg>
