<svg width="377" height="629" viewBox="0 0 377 629" fill="none" xmlns="http://www.w3.org/2000/svg">
<g filter="url(#filter0_d_3073_3520)">
<rect x="26" y="21" width="326" height="180" rx="10" fill="white"/>
<rect x="26.5" y="21.5" width="325" height="179" rx="9.5" stroke="#C6C6C6"/>
</g>
<g filter="url(#filter1_d_3073_3520)">
<rect x="26" y="214" width="326" height="121" rx="10" fill="white"/>
<rect x="26.5" y="214.5" width="325" height="120" rx="9.5" stroke="#C6C6C6"/>
</g>
<path d="M52.4205 47.6364C52.4205 48.5568 52.2543 49.3523 51.9219 50.0227C51.5895 50.6932 51.1335 51.2102 50.554 51.5739C49.9744 51.9375 49.3125 52.1193 48.5682 52.1193C47.8239 52.1193 47.1619 51.9375 46.5824 51.5739C46.0028 51.2102 45.5469 50.6932 45.2145 50.0227C44.8821 49.3523 44.7159 48.5568 44.7159 47.6364C44.7159 46.7159 44.8821 45.9205 45.2145 45.25C45.5469 44.5795 46.0028 44.0625 46.5824 43.6989C47.1619 43.3352 47.8239 43.1534 48.5682 43.1534C49.3125 43.1534 49.9744 43.3352 50.554 43.6989C51.1335 44.0625 51.5895 44.5795 51.9219 45.25C52.2543 45.9205 52.4205 46.7159 52.4205 47.6364ZM51.3977 47.6364C51.3977 46.8807 51.2713 46.2429 51.0185 45.723C50.7685 45.2031 50.429 44.8097 50 44.5426C49.5739 44.2756 49.0966 44.142 48.5682 44.142C48.0398 44.142 47.5611 44.2756 47.1321 44.5426C46.706 44.8097 46.3665 45.2031 46.1136 45.723C45.8636 46.2429 45.7386 46.8807 45.7386 47.6364C45.7386 48.392 45.8636 49.0298 46.1136 49.5497C46.3665 50.0696 46.706 50.4631 47.1321 50.7301C47.5611 50.9972 48.0398 51.1307 48.5682 51.1307C49.0966 51.1307 49.5739 50.9972 50 50.7301C50.429 50.4631 50.7685 50.0696 51.0185 49.5497C51.2713 49.0298 51.3977 48.392 51.3977 47.6364ZM59.4134 45.4545L56.9929 52H55.9702L53.5497 45.4545H54.6406L56.4474 50.6705H56.5156L58.3224 45.4545H59.4134ZM63.2507 52.1364C62.62 52.1364 62.076 51.9972 61.6186 51.7188C61.1641 51.4375 60.8132 51.0455 60.5661 50.5426C60.3217 50.0369 60.1996 49.4489 60.1996 48.7784C60.1996 48.108 60.3217 47.517 60.5661 47.0057C60.8132 46.4915 61.157 46.0909 61.5973 45.804C62.0405 45.5142 62.5575 45.3693 63.1484 45.3693C63.4893 45.3693 63.826 45.4261 64.1584 45.5398C64.4908 45.6534 64.7933 45.8381 65.0661 46.0938C65.3388 46.3466 65.5561 46.6818 65.718 47.0994C65.88 47.517 65.9609 48.0312 65.9609 48.642V49.0682H60.9155V48.1989H64.9382C64.9382 47.8295 64.8643 47.5 64.7166 47.2102C64.5717 46.9205 64.3643 46.6918 64.0945 46.5241C63.8274 46.3565 63.5121 46.2727 63.1484 46.2727C62.7479 46.2727 62.4013 46.3722 62.1087 46.571C61.8189 46.767 61.5959 47.0227 61.4396 47.3381C61.2834 47.6534 61.2053 47.9915 61.2053 48.3523V48.9318C61.2053 49.4261 61.2905 49.8452 61.4609 50.1889C61.6342 50.5298 61.8743 50.7898 62.1811 50.9688C62.4879 51.1449 62.8445 51.233 63.2507 51.233C63.5149 51.233 63.7536 51.196 63.9666 51.1222C64.1825 51.0455 64.3686 50.9318 64.5249 50.7812C64.6811 50.6278 64.8018 50.4375 64.8871 50.2102L65.8587 50.483C65.7564 50.8125 65.5845 51.1023 65.343 51.3523C65.1016 51.5994 64.8033 51.7926 64.4482 51.9318C64.093 52.0682 63.6939 52.1364 63.2507 52.1364ZM67.4908 52V45.4545H68.4624V46.4432H68.5305C68.6499 46.1193 68.8658 45.8565 69.1783 45.6548C69.4908 45.4531 69.843 45.3523 70.2351 45.3523C70.3089 45.3523 70.4013 45.3537 70.5121 45.3565C70.6229 45.3594 70.7067 45.3636 70.7635 45.3693V46.392C70.7294 46.3835 70.6513 46.3707 70.5291 46.3537C70.4098 46.3338 70.2834 46.3239 70.1499 46.3239C69.8317 46.3239 69.5476 46.3906 69.2976 46.5241C69.0504 46.6548 68.8544 46.8366 68.7095 47.0696C68.5675 47.2997 68.4964 47.5625 68.4964 47.858V52H67.4908ZM73.8817 52.1534C73.467 52.1534 73.0906 52.0753 72.7525 51.919C72.4144 51.7599 72.146 51.5312 71.9471 51.233C71.7482 50.9318 71.6488 50.5682 71.6488 50.142C71.6488 49.767 71.7227 49.4631 71.8704 49.2301C72.0181 48.9943 72.2156 48.8097 72.4627 48.6761C72.7099 48.5426 72.9826 48.4432 73.2809 48.3778C73.582 48.3097 73.8846 48.2557 74.1886 48.2159C74.5863 48.1648 74.9087 48.1264 75.1559 48.1009C75.4059 48.0724 75.5877 48.0256 75.7013 47.9602C75.8178 47.8949 75.8761 47.7812 75.8761 47.6193V47.5852C75.8761 47.1648 75.761 46.8381 75.5309 46.6051C75.3036 46.3722 74.9585 46.2557 74.4954 46.2557C74.0153 46.2557 73.6388 46.3608 73.3661 46.571C73.0934 46.7812 72.9016 47.0057 72.7908 47.2443L71.8363 46.9034C72.0067 46.5057 72.234 46.196 72.5181 45.9744C72.805 45.75 73.1175 45.5937 73.4556 45.5057C73.7965 45.4148 74.1317 45.3693 74.4613 45.3693C74.6715 45.3693 74.913 45.3949 75.1857 45.446C75.4613 45.4943 75.7269 45.5952 75.9826 45.7486C76.2411 45.902 76.4556 46.1335 76.6261 46.4432C76.7965 46.7528 76.8817 47.1676 76.8817 47.6875V52H75.8761V51.1136H75.8249C75.7567 51.2557 75.6431 51.4077 75.484 51.5696C75.3249 51.7315 75.1133 51.8693 74.8491 51.983C74.5849 52.0966 74.2624 52.1534 73.8817 52.1534ZM74.0352 51.25C74.4329 51.25 74.7681 51.1719 75.0408 51.0156C75.3164 50.8594 75.5238 50.6577 75.663 50.4105C75.805 50.1634 75.8761 49.9034 75.8761 49.6307V48.7102C75.8335 48.7614 75.7397 48.8082 75.5948 48.8509C75.4528 48.8906 75.288 48.9261 75.1005 48.9574C74.9158 48.9858 74.7354 49.0114 74.5593 49.0341C74.386 49.054 74.2454 49.071 74.1374 49.0852C73.8761 49.1193 73.6317 49.1747 73.4045 49.2514C73.18 49.3253 72.9982 49.4375 72.859 49.5881C72.7227 49.7358 72.6545 49.9375 72.6545 50.1932C72.6545 50.5426 72.7837 50.8068 73.0423 50.9858C73.3036 51.1619 73.6346 51.25 74.0352 51.25ZM79.723 43.2727V52H78.7173V43.2727H79.723ZM82.5707 43.2727V52H81.565V43.2727H82.5707ZM92.6967 45.4545C92.6456 45.0227 92.4382 44.6875 92.0746 44.4489C91.7109 44.2102 91.2649 44.0909 90.7365 44.0909C90.3501 44.0909 90.0121 44.1534 89.7223 44.2784C89.4354 44.4034 89.2109 44.5753 89.049 44.794C88.8899 45.0128 88.8104 45.2614 88.8104 45.5398C88.8104 45.7727 88.8658 45.973 88.9766 46.1406C89.0902 46.3054 89.2351 46.4432 89.4112 46.554C89.5874 46.6619 89.772 46.7514 89.9652 46.8224C90.1584 46.8906 90.3359 46.946 90.4979 46.9886L91.3842 47.2273C91.6115 47.2869 91.8643 47.3693 92.1428 47.4744C92.424 47.5795 92.6925 47.723 92.9482 47.9048C93.2067 48.0838 93.4197 48.3139 93.5874 48.5952C93.755 48.8764 93.8388 49.2216 93.8388 49.6307C93.8388 50.1023 93.7152 50.5284 93.468 50.9091C93.2237 51.2898 92.8658 51.5923 92.3942 51.8168C91.9254 52.0412 91.3558 52.1534 90.6854 52.1534C90.0604 52.1534 89.5192 52.0526 89.0618 51.8509C88.6072 51.6491 88.2493 51.3679 87.9879 51.0071C87.7294 50.6463 87.5831 50.2273 87.549 49.75H88.6399C88.6683 50.0795 88.7791 50.3523 88.9723 50.5682C89.1683 50.7812 89.4155 50.9403 89.7138 51.0455C90.0149 51.1477 90.3388 51.1989 90.6854 51.1989C91.0888 51.1989 91.451 51.1335 91.772 51.0028C92.093 50.8693 92.3473 50.6847 92.5348 50.4489C92.7223 50.2102 92.8161 49.9318 92.8161 49.6136C92.8161 49.3239 92.7351 49.0881 92.5732 48.9062C92.4112 48.7244 92.1982 48.5767 91.9339 48.4631C91.6697 48.3494 91.3842 48.25 91.0774 48.1648L90.0036 47.858C89.3217 47.6619 88.782 47.3821 88.3842 47.0185C87.9865 46.6548 87.7876 46.179 87.7876 45.5909C87.7876 45.1023 87.9197 44.6761 88.1839 44.3125C88.451 43.946 88.8089 43.6619 89.2578 43.4602C89.7095 43.2557 90.2138 43.1534 90.7706 43.1534C91.3331 43.1534 91.8331 43.2543 92.2706 43.456C92.7081 43.6548 93.0547 43.9276 93.3104 44.2741C93.5689 44.6207 93.7053 45.0142 93.7195 45.4545H92.6967ZM98.0991 52.1364C97.4854 52.1364 96.957 51.9915 96.5138 51.7017C96.0707 51.4119 95.7298 51.0128 95.4911 50.5043C95.2525 49.9957 95.1332 49.4148 95.1332 48.7614C95.1332 48.0966 95.2553 47.5099 95.4996 47.0014C95.7468 46.4901 96.0906 46.0909 96.5309 45.804C96.9741 45.5142 97.4911 45.3693 98.082 45.3693C98.5423 45.3693 98.957 45.4545 99.3263 45.625C99.6957 45.7955 99.9982 46.0341 100.234 46.3409C100.47 46.6477 100.616 47.0057 100.673 47.4148H99.6673C99.5906 47.1165 99.4201 46.8523 99.1559 46.6222C98.8945 46.3892 98.5423 46.2727 98.0991 46.2727C97.707 46.2727 97.3633 46.375 97.0678 46.5795C96.7752 46.7812 96.5465 47.0668 96.3817 47.4361C96.2198 47.8026 96.1388 48.233 96.1388 48.7273C96.1388 49.233 96.2184 49.6733 96.3775 50.0483C96.5394 50.4233 96.7667 50.7145 97.0593 50.9219C97.3548 51.1293 97.7013 51.233 98.0991 51.233C98.3604 51.233 98.5977 51.1875 98.8107 51.0966C99.0238 51.0057 99.2042 50.875 99.3519 50.7045C99.4996 50.5341 99.6048 50.3295 99.6673 50.0909H100.673C100.616 50.4773 100.475 50.8253 100.251 51.1349C100.029 51.4418 99.7354 51.6861 99.369 51.8679C99.0053 52.0469 98.582 52.1364 98.0991 52.1364ZM104.802 52.1364C104.211 52.1364 103.693 51.9957 103.247 51.7145C102.804 51.4332 102.457 51.0398 102.207 50.5341C101.96 50.0284 101.836 49.4375 101.836 48.7614C101.836 48.0795 101.96 47.4844 102.207 46.9759C102.457 46.4673 102.804 46.0724 103.247 45.7912C103.693 45.5099 104.211 45.3693 104.802 45.3693C105.393 45.3693 105.91 45.5099 106.353 45.7912C106.799 46.0724 107.146 46.4673 107.393 46.9759C107.643 47.4844 107.768 48.0795 107.768 48.7614C107.768 49.4375 107.643 50.0284 107.393 50.5341C107.146 51.0398 106.799 51.4332 106.353 51.7145C105.91 51.9957 105.393 52.1364 104.802 52.1364ZM104.802 51.233C105.251 51.233 105.62 51.1179 105.91 50.8878C106.2 50.6577 106.414 50.3551 106.554 49.9801C106.693 49.6051 106.762 49.1989 106.762 48.7614C106.762 48.3239 106.693 47.9162 106.554 47.5384C106.414 47.1605 106.2 46.8551 105.91 46.6222C105.62 46.3892 105.251 46.2727 104.802 46.2727C104.353 46.2727 103.984 46.3892 103.694 46.6222C103.404 46.8551 103.19 47.1605 103.051 47.5384C102.912 47.9162 102.842 48.3239 102.842 48.7614C102.842 49.1989 102.912 49.6051 103.051 49.9801C103.19 50.3551 103.404 50.6577 103.694 50.8878C103.984 51.1179 104.353 51.233 104.802 51.233ZM109.303 52V45.4545H110.275V46.4432H110.343C110.462 46.1193 110.678 45.8565 110.991 45.6548C111.303 45.4531 111.656 45.3523 112.048 45.3523C112.121 45.3523 112.214 45.3537 112.325 45.3565C112.435 45.3594 112.519 45.3636 112.576 45.3693V46.392C112.542 46.3835 112.464 46.3707 112.342 46.3537C112.222 46.3338 112.096 46.3239 111.962 46.3239C111.644 46.3239 111.36 46.3906 111.11 46.5241C110.863 46.6548 110.667 46.8366 110.522 47.0696C110.38 47.2997 110.309 47.5625 110.309 47.858V52H109.303ZM116.313 52.1364C115.683 52.1364 115.138 51.9972 114.681 51.7188C114.227 51.4375 113.876 51.0455 113.629 50.5426C113.384 50.0369 113.262 49.4489 113.262 48.7784C113.262 48.108 113.384 47.517 113.629 47.0057C113.876 46.4915 114.219 46.0909 114.66 45.804C115.103 45.5142 115.62 45.3693 116.211 45.3693C116.552 45.3693 116.888 45.4261 117.221 45.5398C117.553 45.6534 117.856 45.8381 118.129 46.0938C118.401 46.3466 118.619 46.6818 118.781 47.0994C118.942 47.517 119.023 48.0312 119.023 48.642V49.0682H113.978V48.1989H118.001C118.001 47.8295 117.927 47.5 117.779 47.2102C117.634 46.9205 117.427 46.6918 117.157 46.5241C116.89 46.3565 116.575 46.2727 116.211 46.2727C115.81 46.2727 115.464 46.3722 115.171 46.571C114.881 46.767 114.658 47.0227 114.502 47.3381C114.346 47.6534 114.268 47.9915 114.268 48.3523V48.9318C114.268 49.4261 114.353 49.8452 114.523 50.1889C114.697 50.5298 114.937 50.7898 115.244 50.9688C115.55 51.1449 115.907 51.233 116.313 51.233C116.577 51.233 116.816 51.196 117.029 51.1222C117.245 51.0455 117.431 50.9318 117.587 50.7812C117.744 50.6278 117.864 50.4375 117.95 50.2102L118.921 50.483C118.819 50.8125 118.647 51.1023 118.406 51.3523C118.164 51.5994 117.866 51.7926 117.511 51.9318C117.156 52.0682 116.756 52.1364 116.313 52.1364Z" fill="black"/>
<path d="M71.7188 229.565C71.6733 229.162 71.4858 228.849 71.1562 228.628C70.8267 228.403 70.4119 228.291 69.9119 228.291C69.554 228.291 69.2443 228.348 68.983 228.462C68.7216 228.572 68.5185 228.726 68.3736 228.922C68.2315 229.115 68.1605 229.335 68.1605 229.582C68.1605 229.79 68.2088 229.969 68.3054 230.119C68.4048 230.27 68.5341 230.396 68.6932 230.499C68.8551 230.598 69.0284 230.682 69.2131 230.75C69.3977 230.815 69.5753 230.869 69.7457 230.912L70.598 231.134C70.8764 231.202 71.1619 231.294 71.4545 231.411C71.7472 231.527 72.0185 231.68 72.2685 231.871C72.5185 232.061 72.7202 232.297 72.8736 232.578C73.0298 232.859 73.108 233.196 73.108 233.588C73.108 234.082 72.9801 234.521 72.7244 234.905C72.4716 235.288 72.1037 235.591 71.6207 235.812C71.1406 236.034 70.5597 236.145 69.8778 236.145C69.2244 236.145 68.6591 236.041 68.1818 235.834C67.7045 235.626 67.331 235.332 67.0611 234.952C66.7912 234.568 66.642 234.114 66.6136 233.588H67.9347C67.9602 233.903 68.0625 234.166 68.2415 234.376C68.4233 234.584 68.6548 234.739 68.9361 234.841C69.2202 234.94 69.5312 234.99 69.8693 234.99C70.2415 234.99 70.5724 234.932 70.8622 234.815C71.1548 234.696 71.3849 234.531 71.5526 234.321C71.7202 234.108 71.804 233.859 71.804 233.575C71.804 233.317 71.7301 233.105 71.5824 232.94C71.4375 232.776 71.2401 232.639 70.9901 232.531C70.7429 232.423 70.4631 232.328 70.1506 232.246L69.1193 231.964C68.4205 231.774 67.8665 231.494 67.4574 231.125C67.0511 230.756 66.848 230.267 66.848 229.659C66.848 229.156 66.9844 228.717 67.2571 228.342C67.5298 227.967 67.8991 227.676 68.3651 227.469C68.831 227.259 69.3565 227.153 69.9418 227.153C70.5327 227.153 71.054 227.257 71.5057 227.464C71.9602 227.672 72.3182 227.957 72.5795 228.321C72.8409 228.682 72.9773 229.097 72.9886 229.565H71.7188ZM77.6346 229.455V230.477H74.0593V229.455H77.6346ZM75.0181 227.886H76.2923V234.078C76.2923 234.325 76.3292 234.511 76.4031 234.636C76.4769 234.759 76.5721 234.842 76.6886 234.888C76.8079 234.93 76.9371 234.952 77.0763 234.952C77.1786 234.952 77.2681 234.945 77.3448 234.93C77.4215 234.916 77.4812 234.905 77.5238 234.896L77.7539 235.949C77.68 235.977 77.5749 236.006 77.4386 236.034C77.3022 236.065 77.1317 236.082 76.9272 236.085C76.592 236.091 76.2795 236.031 75.9897 235.906C75.6999 235.781 75.4656 235.588 75.2866 235.327C75.1076 235.065 75.0181 234.737 75.0181 234.342V227.886ZM79.044 236V229.455H80.2756V230.494H80.3438C80.4631 230.142 80.6733 229.865 80.9744 229.663C81.2784 229.459 81.6222 229.357 82.0057 229.357C82.0852 229.357 82.179 229.359 82.2869 229.365C82.3977 229.371 82.4844 229.378 82.5469 229.386V230.605C82.4957 230.591 82.4048 230.575 82.2741 230.558C82.1435 230.538 82.0128 230.528 81.8821 230.528C81.581 230.528 81.3125 230.592 81.0767 230.72C80.8438 230.845 80.6591 231.02 80.5227 231.244C80.3864 231.466 80.3182 231.719 80.3182 232.003V236H79.044ZM86.2362 236.132C85.5913 236.132 85.0359 235.994 84.57 235.719C84.1069 235.44 83.7489 235.05 83.4961 234.547C83.2461 234.041 83.1211 233.449 83.1211 232.77C83.1211 232.099 83.2461 231.509 83.4961 230.997C83.7489 230.486 84.1012 230.087 84.5529 229.8C85.0075 229.513 85.5387 229.369 86.1467 229.369C86.516 229.369 86.8739 229.43 87.2205 229.553C87.5671 229.675 87.8782 229.866 88.1538 230.128C88.4293 230.389 88.6467 230.729 88.8058 231.146C88.9648 231.561 89.0444 232.065 89.0444 232.659V233.111H83.8413V232.156H87.7958C87.7958 231.821 87.7276 231.524 87.5913 231.266C87.4549 231.004 87.2631 230.798 87.016 230.648C86.7717 230.497 86.4847 230.422 86.1552 230.422C85.7972 230.422 85.4847 230.51 85.2177 230.686C84.9535 230.859 84.7489 231.087 84.604 231.368C84.462 231.646 84.391 231.949 84.391 232.276V233.021C84.391 233.459 84.4677 233.831 84.6211 234.138C84.7773 234.445 84.9947 234.679 85.2731 234.841C85.5515 235 85.8768 235.08 86.2489 235.08C86.4904 235.08 86.7106 235.045 86.9094 234.977C87.1083 234.906 87.2802 234.801 87.4251 234.662C87.57 234.523 87.6808 234.351 87.7575 234.146L88.9634 234.364C88.8668 234.719 88.6935 235.03 88.4435 235.297C88.1964 235.561 87.8853 235.767 87.5103 235.915C87.1381 236.06 86.7134 236.132 86.2362 236.132ZM91.7322 232.114V236H90.4581V229.455H91.6811V230.52H91.7621C91.9126 230.173 92.1484 229.895 92.4695 229.685C92.7933 229.474 93.201 229.369 93.6925 229.369C94.1385 229.369 94.5291 229.463 94.8643 229.651C95.1996 229.835 95.4595 230.111 95.6442 230.477C95.8288 230.844 95.9212 231.297 95.9212 231.837V236H94.647V231.99C94.647 231.516 94.5234 231.145 94.2763 230.878C94.0291 230.608 93.6896 230.473 93.2578 230.473C92.9624 230.473 92.6996 230.537 92.4695 230.665C92.2422 230.793 92.0618 230.98 91.9283 231.227C91.7976 231.472 91.7322 231.767 91.7322 232.114ZM100.374 238.591C99.8544 238.591 99.407 238.523 99.032 238.386C98.6598 238.25 98.3558 238.07 98.12 237.845C97.8842 237.621 97.7081 237.375 97.5916 237.108L98.6868 236.656C98.7635 236.781 98.8658 236.913 98.9936 237.053C99.1243 237.195 99.3004 237.315 99.522 237.415C99.7464 237.514 100.035 237.564 100.387 237.564C100.87 237.564 101.269 237.446 101.585 237.21C101.9 236.977 102.058 236.605 102.058 236.094V234.807H101.977C101.9 234.946 101.789 235.101 101.644 235.271C101.502 235.442 101.306 235.589 101.056 235.714C100.806 235.839 100.481 235.902 100.08 235.902C99.5632 235.902 99.0973 235.781 98.6825 235.54C98.2706 235.295 97.9439 234.936 97.7024 234.462C97.4638 233.984 97.3445 233.398 97.3445 232.702C97.3445 232.006 97.4624 231.409 97.6982 230.912C97.9368 230.415 98.2635 230.034 98.6783 229.77C99.093 229.503 99.5632 229.369 100.089 229.369C100.495 229.369 100.823 229.438 101.073 229.574C101.323 229.707 101.518 229.864 101.657 230.043C101.799 230.222 101.908 230.379 101.985 230.516H102.079V229.455H103.327V236.145C103.327 236.707 103.197 237.169 102.935 237.53C102.674 237.891 102.32 238.158 101.874 238.331C101.431 238.504 100.931 238.591 100.374 238.591ZM100.362 234.845C100.728 234.845 101.038 234.76 101.29 234.589C101.546 234.416 101.739 234.169 101.87 233.848C102.004 233.524 102.07 233.136 102.07 232.685C102.07 232.244 102.005 231.857 101.874 231.521C101.744 231.186 101.552 230.925 101.299 230.737C101.046 230.547 100.734 230.452 100.362 230.452C99.978 230.452 99.6584 230.551 99.4027 230.75C99.147 230.946 98.9538 231.213 98.8232 231.551C98.6953 231.889 98.6314 232.267 98.6314 232.685C98.6314 233.114 98.6967 233.49 98.8274 233.814C98.9581 234.138 99.1513 234.391 99.407 234.572C99.6655 234.754 99.9837 234.845 100.362 234.845ZM108.092 229.455V230.477H104.516V229.455H108.092ZM105.475 227.886H106.749V234.078C106.749 234.325 106.786 234.511 106.86 234.636C106.934 234.759 107.029 234.842 107.146 234.888C107.265 234.93 107.394 234.952 107.533 234.952C107.636 234.952 107.725 234.945 107.802 234.93C107.879 234.916 107.938 234.905 107.981 234.896L108.211 235.949C108.137 235.977 108.032 236.006 107.896 236.034C107.759 236.065 107.589 236.082 107.384 236.085C107.049 236.091 106.737 236.031 106.447 235.906C106.157 235.781 105.923 235.588 105.744 235.327C105.565 235.065 105.475 234.737 105.475 234.342V227.886ZM110.916 232.114V236H109.642V227.273H110.899V230.52H110.98C111.133 230.168 111.368 229.888 111.683 229.68C111.998 229.473 112.41 229.369 112.919 229.369C113.368 229.369 113.76 229.462 114.095 229.646C114.433 229.831 114.694 230.107 114.879 230.473C115.066 230.837 115.16 231.291 115.16 231.837V236H113.886V231.99C113.886 231.51 113.762 231.138 113.515 230.874C113.268 230.607 112.924 230.473 112.484 230.473C112.183 230.473 111.913 230.537 111.674 230.665C111.439 230.793 111.252 230.98 111.116 231.227C110.983 231.472 110.916 231.767 110.916 232.114ZM121.765 231.053L120.61 231.257C120.562 231.109 120.485 230.969 120.38 230.835C120.278 230.702 120.139 230.592 119.963 230.507C119.787 230.422 119.566 230.379 119.302 230.379C118.941 230.379 118.64 230.46 118.399 230.622C118.157 230.781 118.037 230.987 118.037 231.24C118.037 231.459 118.118 231.635 118.279 231.768C118.441 231.902 118.703 232.011 119.064 232.097L120.103 232.335C120.706 232.474 121.154 232.689 121.45 232.979C121.745 233.268 121.893 233.645 121.893 234.108C121.893 234.5 121.779 234.849 121.552 235.156C121.328 235.46 121.014 235.699 120.61 235.872C120.21 236.045 119.745 236.132 119.217 236.132C118.484 236.132 117.886 235.976 117.423 235.663C116.96 235.348 116.676 234.901 116.571 234.321L117.802 234.134C117.879 234.455 118.037 234.697 118.275 234.862C118.514 235.024 118.825 235.105 119.208 235.105C119.626 235.105 119.96 235.018 120.21 234.845C120.46 234.669 120.585 234.455 120.585 234.202C120.585 233.997 120.508 233.825 120.355 233.686C120.204 233.547 119.973 233.442 119.66 233.371L118.552 233.128C117.941 232.989 117.49 232.767 117.197 232.463C116.907 232.159 116.762 231.774 116.762 231.308C116.762 230.922 116.87 230.584 117.086 230.294C117.302 230.004 117.6 229.778 117.981 229.616C118.362 229.452 118.798 229.369 119.289 229.369C119.997 229.369 120.554 229.523 120.96 229.83C121.366 230.134 121.635 230.541 121.765 231.053Z" fill="black"/>
<g clip-path="url(#clip0_3073_3520)">
<path d="M49 70H65V82H50.17L49 83.17V70ZM49 68C47.9 68 47.01 68.9 47.01 70L47 88L51 84H65C66.1 84 67 83.1 67 82V70C67 68.9 66.1 68 65 68H49ZM51 78H63V80H51V78ZM51 75H63V77H51V75ZM51 72H63V74H51V72Z" fill="#323232"/>
</g>
<path d="M84.1051 86L91.3409 71.6818V71.5625H82.9119V68.5455H95.1591V71.6051L87.9148 86H84.1051ZM110.879 67.7273L105.254 88.625H102.126L107.751 67.7273H110.879ZM125.743 68.5455V86H122.053V72.0483H121.95L117.953 74.554V71.2812L122.274 68.5455H125.743ZM136.735 86.3835C135.269 86.3778 134.008 86.017 132.951 85.3011C131.9 84.5852 131.09 83.5483 130.522 82.1903C129.96 80.8324 129.681 79.1989 129.687 77.2898C129.687 75.3864 129.968 73.7642 130.531 72.4233C131.099 71.0824 131.908 70.0625 132.96 69.3636C134.016 68.6591 135.275 68.3068 136.735 68.3068C138.195 68.3068 139.451 68.6591 140.502 69.3636C141.559 70.0682 142.371 71.0909 142.94 72.4318C143.508 73.767 143.789 75.3864 143.783 77.2898C143.783 79.2045 143.499 80.8409 142.931 82.1989C142.369 83.5568 141.562 84.5937 140.511 85.3097C139.46 86.0256 138.201 86.3835 136.735 86.3835ZM136.735 83.3239C137.735 83.3239 138.533 82.821 139.13 81.8153C139.727 80.8097 140.022 79.3011 140.016 77.2898C140.016 75.9659 139.88 74.8636 139.607 73.983C139.34 73.1023 138.96 72.4403 138.465 71.9972C137.977 71.554 137.4 71.3324 136.735 71.3324C135.741 71.3324 134.945 71.8295 134.349 72.8239C133.752 73.8182 133.451 75.3068 133.445 77.2898C133.445 78.6307 133.579 79.75 133.846 80.6477C134.119 81.5398 134.502 82.2102 134.996 82.6591C135.491 83.1023 136.07 83.3239 136.735 83.3239Z" fill="black"/>
<path d="M45 100L264 101" stroke="#70D2F0" stroke-width="4" stroke-linecap="round"/>
<rect x="45" y="111" width="283" height="11" rx="2" fill="#EEEEEE"/>
<rect x="45" y="127" width="274" height="11" rx="2" fill="#EEEEEE"/>
<rect x="45" y="143" width="283" height="11" rx="2" fill="#EEEEEE"/>
<rect x="45" y="159" width="261" height="11" rx="2" fill="#EEEEEE"/>
<rect x="79" y="255" width="237" height="11" rx="2" fill="#EEEEEE"/>
<rect x="79" y="271" width="228" height="11" rx="2" fill="#EEEEEE"/>
<rect x="79" y="287" width="237" height="11" rx="2" fill="#EEEEEE"/>
<rect x="79" y="303" width="228" height="11" rx="2" fill="#EEEEEE"/>
<g filter="url(#filter2_d_3073_3520)">
<rect x="25" y="351" width="327" height="249" rx="10" fill="white"/>
<rect x="25.5" y="351.5" width="326" height="248" rx="9.5" stroke="#C6C6C6"/>
</g>
<rect x="43.5" y="390.5" width="289" height="84" rx="9.5" fill="white" stroke="#C6C6C6"/>
<rect x="276" y="466" width="44" height="17" rx="8.5" fill="#F2F2F2"/>
<rect x="276.5" y="466.5" width="43" height="16" rx="8" stroke="#C6C6C6" stroke-opacity="0.423529"/>
<path d="M287.248 473.663H286.053C286.019 473.467 285.956 473.293 285.864 473.142C285.773 472.989 285.659 472.859 285.522 472.752C285.386 472.646 285.23 472.566 285.056 472.512C284.883 472.457 284.697 472.429 284.496 472.429C284.141 472.429 283.825 472.519 283.55 472.698C283.276 472.875 283.06 473.135 282.905 473.478C282.749 473.819 282.672 474.235 282.672 474.727C282.672 475.228 282.749 475.65 282.905 475.993C283.063 476.334 283.278 476.592 283.55 476.766C283.825 476.939 284.14 477.025 284.493 477.025C284.689 477.025 284.873 477 285.043 476.949C285.216 476.895 285.37 476.817 285.506 476.715C285.645 476.613 285.761 476.487 285.855 476.338C285.951 476.189 286.017 476.018 286.053 475.827L287.248 475.833C287.203 476.144 287.107 476.436 286.957 476.709C286.81 476.982 286.618 477.222 286.379 477.431C286.14 477.638 285.861 477.8 285.542 477.917C285.222 478.032 284.867 478.089 284.477 478.089C283.902 478.089 283.388 477.956 282.937 477.69C282.485 477.424 282.129 477.039 281.869 476.536C281.609 476.033 281.479 475.43 281.479 474.727C281.479 474.022 281.61 473.419 281.873 472.918C282.135 472.415 282.491 472.031 282.943 471.765C283.395 471.498 283.906 471.365 284.477 471.365C284.842 471.365 285.18 471.416 285.494 471.518C285.807 471.621 286.086 471.771 286.331 471.969C286.576 472.165 286.777 472.406 286.935 472.691C287.095 472.975 287.199 473.299 287.248 473.663ZM291.412 475.935V473.091H292.569V478H291.447V477.127H291.396C291.285 477.402 291.103 477.627 290.849 477.802C290.598 477.977 290.288 478.064 289.919 478.064C289.598 478.064 289.313 477.993 289.066 477.85C288.821 477.705 288.629 477.495 288.491 477.22C288.352 476.943 288.283 476.609 288.283 476.217V473.091H289.44V476.038C289.44 476.349 289.525 476.596 289.696 476.779C289.866 476.962 290.09 477.054 290.367 477.054C290.537 477.054 290.702 477.012 290.862 476.929C291.022 476.846 291.153 476.723 291.255 476.559C291.36 476.392 291.412 476.185 291.412 475.935ZM293.759 478V473.091H294.88V473.909H294.931C295.021 473.626 295.174 473.407 295.392 473.254C295.611 473.098 295.862 473.021 296.143 473.021C296.207 473.021 296.278 473.024 296.357 473.03C296.438 473.034 296.505 473.042 296.558 473.053V474.117C296.509 474.1 296.431 474.085 296.325 474.072C296.221 474.057 296.119 474.05 296.021 474.05C295.81 474.05 295.621 474.096 295.452 474.187C295.286 474.277 295.155 474.401 295.059 474.561C294.963 474.721 294.915 474.905 294.915 475.114V478H293.759ZM297.327 478V473.091H298.449V473.909H298.5C298.589 473.626 298.743 473.407 298.96 473.254C299.18 473.098 299.43 473.021 299.711 473.021C299.775 473.021 299.846 473.024 299.925 473.03C300.006 473.034 300.073 473.042 300.127 473.053V474.117C300.078 474.1 300 474.085 299.893 474.072C299.789 474.057 299.688 474.05 299.59 474.05C299.379 474.05 299.189 474.096 299.021 474.187C298.855 474.277 298.724 474.401 298.628 474.561C298.532 474.721 298.484 474.905 298.484 475.114V478H297.327ZM302.866 478.096C302.374 478.096 301.949 477.994 301.591 477.789C301.235 477.582 300.962 477.29 300.77 476.913C300.578 476.534 300.482 476.088 300.482 475.574C300.482 475.069 300.578 474.626 300.77 474.245C300.964 473.861 301.234 473.563 301.582 473.35C301.929 473.135 302.337 473.027 302.806 473.027C303.108 473.027 303.394 473.076 303.662 473.174C303.933 473.27 304.171 473.419 304.378 473.621C304.587 473.824 304.751 474.082 304.87 474.395C304.99 474.706 305.049 475.077 305.049 475.507V475.862H301.025V475.082H303.94C303.938 474.86 303.89 474.663 303.796 474.491C303.703 474.316 303.572 474.179 303.403 474.078C303.237 473.978 303.043 473.928 302.822 473.928C302.585 473.928 302.377 473.986 302.198 474.101C302.019 474.214 301.88 474.363 301.78 474.548C301.682 474.732 301.632 474.933 301.63 475.152V475.833C301.63 476.119 301.682 476.364 301.786 476.568C301.891 476.771 302.036 476.926 302.224 477.035C302.411 477.141 302.631 477.195 302.882 477.195C303.051 477.195 303.203 477.171 303.339 477.124C303.476 477.075 303.594 477.004 303.694 476.91C303.794 476.816 303.87 476.7 303.921 476.562L305.001 476.683C304.933 476.969 304.803 477.218 304.611 477.431C304.422 477.642 304.179 477.806 303.883 477.923C303.587 478.038 303.248 478.096 302.866 478.096ZM307.185 475.124V478H306.028V473.091H307.134V473.925H307.191C307.304 473.65 307.484 473.432 307.732 473.27C307.981 473.108 308.289 473.027 308.655 473.027C308.994 473.027 309.289 473.099 309.54 473.244C309.794 473.389 309.99 473.599 310.129 473.874C310.269 474.149 310.338 474.482 310.336 474.874V478H309.179V475.053C309.179 474.725 309.094 474.468 308.924 474.283C308.755 474.098 308.522 474.005 308.224 474.005C308.021 474.005 307.841 474.05 307.684 474.139C307.528 474.227 307.406 474.353 307.316 474.52C307.229 474.686 307.185 474.887 307.185 475.124ZM313.964 473.091V473.986H311.142V473.091H313.964ZM311.838 471.915H312.995V476.523C312.995 476.679 313.019 476.798 313.066 476.881C313.115 476.962 313.179 477.018 313.257 477.048C313.336 477.077 313.424 477.092 313.52 477.092C313.592 477.092 313.658 477.087 313.718 477.076C313.779 477.066 313.826 477.056 313.858 477.048L314.053 477.952C313.991 477.973 313.903 477.997 313.788 478.022C313.675 478.048 313.537 478.063 313.373 478.067C313.083 478.076 312.822 478.032 312.589 477.936C312.357 477.838 312.173 477.687 312.037 477.482C311.902 477.278 311.836 477.022 311.838 476.715V471.915Z" fill="#AAAAAA"/>
<path d="M43 511C43 505.477 47.4772 501 53 501H68V578H53C47.4772 578 43 573.523 43 568V511Z" fill="#70D2F0"/>
<mask id="path-25-inside-1_3073_3520" fill="white">
<path d="M52 501H332C337.523 501 342 505.477 342 511V568C342 573.523 337.523 578 332 578H52V501Z"/>
</mask>
<path d="M52 501H332C337.523 501 342 505.477 342 511V568C342 573.523 337.523 578 332 578H52V501Z" fill="white"/>
<path d="M52 500H332C338.075 500 343 504.925 343 511H341C341 506.029 336.971 502 332 502H52V500ZM343 568C343 574.075 338.075 579 332 579H52V577H332C336.971 577 341 572.971 341 568H343ZM341 568M52 578V501V578M332 500C338.075 500 343 504.925 343 511V568C343 574.075 338.075 579 332 579V577C336.971 577 341 572.971 341 568V511C341 506.029 336.971 502 332 502V500Z" fill="#C6C6C6" mask="url(#path-25-inside-1_3073_3520)"/>
<rect x="261" y="569" width="65" height="17" rx="8.5" fill="#F2F2F2"/>
<rect x="261.5" y="569.5" width="64" height="16" rx="8" stroke="#C6C6C6" stroke-opacity="0.423529"/>
<path d="M281.831 574.455V581H280.646V574.455H281.831ZM283.064 581V576.091H284.17V576.925H284.228C284.33 576.644 284.499 576.424 284.736 576.267C284.972 576.107 285.255 576.027 285.583 576.027C285.915 576.027 286.195 576.108 286.423 576.27C286.653 576.43 286.815 576.648 286.909 576.925H286.96C287.069 576.652 287.252 576.435 287.51 576.273C287.77 576.109 288.078 576.027 288.434 576.027C288.885 576.027 289.254 576.17 289.539 576.455C289.825 576.741 289.968 577.157 289.968 577.705V581H288.807V577.884C288.807 577.579 288.726 577.357 288.565 577.216C288.403 577.073 288.204 577.002 287.97 577.002C287.691 577.002 287.473 577.089 287.315 577.264C287.159 577.436 287.082 577.661 287.082 577.938V581H285.947V577.836C285.947 577.582 285.87 577.38 285.717 577.229C285.566 577.077 285.367 577.002 285.122 577.002C284.956 577.002 284.805 577.044 284.669 577.13C284.532 577.213 284.424 577.331 284.343 577.484C284.262 577.636 284.221 577.812 284.221 578.015V581H283.064ZM291.141 582.841V576.091H292.279V576.903H292.346C292.406 576.783 292.49 576.657 292.599 576.522C292.707 576.386 292.854 576.27 293.04 576.174C293.225 576.076 293.462 576.027 293.749 576.027C294.129 576.027 294.471 576.124 294.775 576.318C295.082 576.51 295.325 576.794 295.504 577.171C295.685 577.546 295.776 578.006 295.776 578.552C295.776 579.091 295.687 579.549 295.51 579.926C295.333 580.303 295.093 580.591 294.788 580.789C294.483 580.987 294.138 581.086 293.752 581.086C293.471 581.086 293.238 581.039 293.053 580.946C292.867 580.852 292.718 580.739 292.605 580.607C292.494 580.473 292.408 580.346 292.346 580.227H292.298V582.841H291.141ZM292.276 578.545C292.276 578.863 292.321 579.141 292.41 579.38C292.502 579.618 292.633 579.805 292.803 579.939C292.976 580.071 293.185 580.137 293.43 580.137C293.685 580.137 293.9 580.069 294.072 579.933C294.245 579.794 294.375 579.605 294.462 579.367C294.551 579.126 294.596 578.852 294.596 578.545C294.596 578.241 294.553 577.97 294.465 577.734C294.378 577.497 294.248 577.312 294.075 577.178C293.903 577.043 293.688 576.976 293.43 576.976C293.183 576.976 292.973 577.041 292.8 577.171C292.627 577.301 292.496 577.483 292.407 577.718C292.32 577.952 292.276 578.228 292.276 578.545ZM296.766 581V576.091H297.888V576.909H297.939C298.029 576.626 298.182 576.407 298.4 576.254C298.619 576.098 298.869 576.021 299.151 576.021C299.214 576.021 299.286 576.024 299.365 576.03C299.446 576.034 299.513 576.042 299.566 576.053V577.117C299.517 577.1 299.439 577.085 299.333 577.072C299.228 577.057 299.127 577.05 299.029 577.05C298.818 577.05 298.629 577.096 298.46 577.187C298.294 577.277 298.163 577.401 298.067 577.561C297.971 577.721 297.923 577.905 297.923 578.114V581H296.766ZM302.274 581.096C301.794 581.096 301.379 580.99 301.027 580.779C300.676 580.569 300.403 580.273 300.209 579.894C300.017 579.515 299.922 579.072 299.922 578.565C299.922 578.058 300.017 577.613 300.209 577.232C300.403 576.85 300.676 576.554 301.027 576.343C301.379 576.132 301.794 576.027 302.274 576.027C302.753 576.027 303.169 576.132 303.52 576.343C303.872 576.554 304.144 576.85 304.335 577.232C304.529 577.613 304.626 578.058 304.626 578.565C304.626 579.072 304.529 579.515 304.335 579.894C304.144 580.273 303.872 580.569 303.52 580.779C303.169 580.99 302.753 581.096 302.274 581.096ZM302.28 580.169C302.54 580.169 302.758 580.098 302.932 579.955C303.107 579.81 303.237 579.616 303.322 579.373C303.41 579.13 303.453 578.86 303.453 578.561C303.453 578.261 303.41 577.989 303.322 577.746C303.237 577.501 303.107 577.306 302.932 577.162C302.758 577.017 302.54 576.944 302.28 576.944C302.014 576.944 301.792 577.017 301.616 577.162C301.441 577.306 301.31 577.501 301.222 577.746C301.137 577.989 301.095 578.261 301.095 578.561C301.095 578.86 301.137 579.13 301.222 579.373C301.31 579.616 301.441 579.81 301.616 579.955C301.792 580.098 302.014 580.169 302.28 580.169ZM309.826 576.091L308.078 581H306.799L305.051 576.091H306.285L307.413 579.738H307.464L308.596 576.091H309.826ZM312.633 581.096C312.141 581.096 311.716 580.994 311.358 580.789C311.002 580.582 310.728 580.29 310.536 579.913C310.345 579.534 310.249 579.088 310.249 578.574C310.249 578.069 310.345 577.626 310.536 577.245C310.73 576.861 311.001 576.563 311.348 576.35C311.695 576.135 312.104 576.027 312.572 576.027C312.875 576.027 313.16 576.076 313.429 576.174C313.699 576.27 313.938 576.419 314.145 576.621C314.354 576.824 314.518 577.082 314.637 577.395C314.756 577.706 314.816 578.077 314.816 578.507V578.862H310.792V578.082H313.707C313.705 577.86 313.657 577.663 313.563 577.491C313.469 577.316 313.338 577.179 313.17 577.078C313.004 576.978 312.81 576.928 312.588 576.928C312.352 576.928 312.144 576.986 311.965 577.101C311.786 577.214 311.646 577.363 311.546 577.548C311.448 577.732 311.398 577.933 311.396 578.152V578.833C311.396 579.119 311.448 579.364 311.553 579.568C311.657 579.771 311.803 579.926 311.991 580.035C312.178 580.141 312.398 580.195 312.649 580.195C312.817 580.195 312.97 580.171 313.106 580.124C313.242 580.075 313.361 580.004 313.461 579.91C313.561 579.816 313.637 579.7 313.688 579.562L314.768 579.683C314.7 579.969 314.57 580.218 314.378 580.431C314.188 580.642 313.945 580.806 313.649 580.923C313.353 581.038 313.014 581.096 312.633 581.096ZM317.616 581.086C317.231 581.086 316.886 580.987 316.581 580.789C316.276 580.591 316.035 580.303 315.859 579.926C315.682 579.549 315.593 579.091 315.593 578.552C315.593 578.006 315.683 577.546 315.862 577.171C316.043 576.794 316.287 576.51 316.594 576.318C316.9 576.124 317.242 576.027 317.62 576.027C317.907 576.027 318.144 576.076 318.329 576.174C318.514 576.27 318.661 576.386 318.77 576.522C318.879 576.657 318.963 576.783 319.023 576.903H319.071V574.455H320.231V581H319.093V580.227H319.023C318.963 580.346 318.877 580.473 318.764 580.607C318.651 580.739 318.502 580.852 318.316 580.946C318.131 581.039 317.898 581.086 317.616 581.086ZM317.939 580.137C318.184 580.137 318.393 580.071 318.566 579.939C318.738 579.805 318.869 579.618 318.959 579.38C319.048 579.141 319.093 578.863 319.093 578.545C319.093 578.228 319.048 577.952 318.959 577.718C318.871 577.483 318.741 577.301 318.569 577.171C318.398 577.041 318.188 576.976 317.939 576.976C317.681 576.976 317.466 577.043 317.294 577.178C317.121 577.312 316.991 577.497 316.904 577.734C316.816 577.97 316.773 578.241 316.773 578.545C316.773 578.852 316.816 579.126 316.904 579.367C316.993 579.605 317.124 579.794 317.297 579.933C317.472 580.069 317.686 580.137 317.939 580.137Z" fill="#70D2F0"/>
<g clip-path="url(#clip1_3073_3520)">
<path d="M273.425 575.425L274.145 576.145L271.705 578.585L270.06 576.94C269.865 576.745 269.55 576.745 269.355 576.94L266.355 579.945C266.16 580.14 266.16 580.455 266.355 580.65C266.55 580.845 266.865 580.845 267.06 580.65L269.705 578L271.35 579.645C271.545 579.84 271.86 579.84 272.055 579.645L274.85 576.855L275.57 577.575C275.725 577.73 275.995 577.62 275.995 577.4V575.25C276 575.11 275.89 575 275.75 575H273.605C273.38 575 273.27 575.27 273.425 575.425Z" fill="#70D2F0"/>
</g>
<path d="M65.9588 375V366.273H69.0696C69.7486 366.273 70.3111 366.396 70.7571 366.643C71.2031 366.891 71.5369 367.229 71.7585 367.658C71.9801 368.084 72.0909 368.564 72.0909 369.098C72.0909 369.635 71.9787 370.118 71.7543 370.547C71.5327 370.973 71.1974 371.311 70.7486 371.561C70.3026 371.808 69.7415 371.932 69.0653 371.932H66.9261V370.815H68.946C69.375 370.815 69.723 370.741 69.9901 370.594C70.2571 370.443 70.4531 370.239 70.5781 369.98C70.7031 369.722 70.7656 369.428 70.7656 369.098C70.7656 368.768 70.7031 368.476 70.5781 368.22C70.4531 367.964 70.2557 367.764 69.9858 367.619C69.7188 367.474 69.3665 367.402 68.929 367.402H67.2756V375H65.9588ZM73.5323 375V368.455H74.7638V369.494H74.832C74.9513 369.142 75.1616 368.865 75.4627 368.663C75.7667 368.459 76.1104 368.357 76.494 368.357C76.5735 368.357 76.6673 368.359 76.7752 368.365C76.886 368.371 76.9727 368.378 77.0352 368.386V369.605C76.984 369.591 76.8931 369.575 76.7624 369.558C76.6317 369.538 76.5011 369.528 76.3704 369.528C76.0692 369.528 75.8008 369.592 75.565 369.72C75.332 369.845 75.1474 370.02 75.011 370.244C74.8746 370.466 74.8065 370.719 74.8065 371.003V375H73.5323ZM80.6605 375.132C80.0469 375.132 79.5114 374.991 79.054 374.71C78.5966 374.429 78.2415 374.036 77.9886 373.53C77.7358 373.024 77.6094 372.433 77.6094 371.757C77.6094 371.078 77.7358 370.484 77.9886 369.976C78.2415 369.467 78.5966 369.072 79.054 368.791C79.5114 368.51 80.0469 368.369 80.6605 368.369C81.2741 368.369 81.8097 368.51 82.267 368.791C82.7244 369.072 83.0795 369.467 83.3324 369.976C83.5852 370.484 83.7116 371.078 83.7116 371.757C83.7116 372.433 83.5852 373.024 83.3324 373.53C83.0795 374.036 82.7244 374.429 82.267 374.71C81.8097 374.991 81.2741 375.132 80.6605 375.132ZM80.6648 374.062C81.0625 374.062 81.392 373.957 81.6534 373.747C81.9148 373.537 82.108 373.257 82.233 372.908C82.3608 372.558 82.4247 372.173 82.4247 371.753C82.4247 371.335 82.3608 370.952 82.233 370.602C82.108 370.25 81.9148 369.967 81.6534 369.754C81.392 369.541 81.0625 369.435 80.6648 369.435C80.2642 369.435 79.9318 369.541 79.6676 369.754C79.4063 369.967 79.2116 370.25 79.0838 370.602C78.9588 370.952 78.8963 371.335 78.8963 371.753C78.8963 372.173 78.9588 372.558 79.0838 372.908C79.2116 373.257 79.4063 373.537 79.6676 373.747C79.9318 373.957 80.2642 374.062 80.6648 374.062ZM85.1339 377.455V368.455H86.3782V369.516H86.4847C86.5586 369.379 86.6651 369.222 86.8043 369.043C86.9435 368.864 87.1367 368.707 87.3839 368.574C87.631 368.438 87.9577 368.369 88.364 368.369C88.8924 368.369 89.364 368.503 89.7788 368.77C90.1935 369.037 90.5188 369.422 90.7546 369.925C90.9933 370.428 91.1126 371.033 91.1126 371.74C91.1126 372.447 90.9947 373.054 90.7589 373.56C90.5231 374.062 90.1992 374.45 89.7873 374.723C89.3754 374.993 88.9052 375.128 88.3768 375.128C87.979 375.128 87.6538 375.061 87.4009 374.928C87.1509 374.794 86.9549 374.638 86.8129 374.459C86.6708 374.28 86.5614 374.121 86.4847 373.982H86.408V377.455H85.1339ZM86.3825 371.727C86.3825 372.187 86.4492 372.591 86.5827 372.938C86.7163 373.284 86.9094 373.555 87.1623 373.751C87.4151 373.945 87.7248 374.041 88.0913 374.041C88.4719 374.041 88.7901 373.94 89.0458 373.739C89.3015 373.534 89.4947 373.257 89.6254 372.908C89.7589 372.558 89.8256 372.165 89.8256 371.727C89.8256 371.295 89.7603 370.908 89.6296 370.564C89.5018 370.22 89.3086 369.949 89.0501 369.75C88.7944 369.551 88.4748 369.452 88.0913 369.452C87.7219 369.452 87.4094 369.547 87.1538 369.737C86.9009 369.928 86.7092 370.193 86.5785 370.534C86.4478 370.875 86.3825 371.273 86.3825 371.727ZM95.2972 375.132C94.6836 375.132 94.1481 374.991 93.6907 374.71C93.2333 374.429 92.8782 374.036 92.6254 373.53C92.3725 373.024 92.2461 372.433 92.2461 371.757C92.2461 371.078 92.3725 370.484 92.6254 369.976C92.8782 369.467 93.2333 369.072 93.6907 368.791C94.1481 368.51 94.6836 368.369 95.2972 368.369C95.9109 368.369 96.4464 368.51 96.9038 368.791C97.3612 369.072 97.7163 369.467 97.9691 369.976C98.2219 370.484 98.3484 371.078 98.3484 371.757C98.3484 372.433 98.2219 373.024 97.9691 373.53C97.7163 374.036 97.3612 374.429 96.9038 374.71C96.4464 374.991 95.9109 375.132 95.2972 375.132ZM95.3015 374.062C95.6992 374.062 96.0288 373.957 96.2901 373.747C96.5515 373.537 96.7447 373.257 96.8697 372.908C96.9975 372.558 97.0614 372.173 97.0614 371.753C97.0614 371.335 96.9975 370.952 96.8697 370.602C96.7447 370.25 96.5515 369.967 96.2901 369.754C96.0288 369.541 95.6992 369.435 95.3015 369.435C94.9009 369.435 94.5685 369.541 94.3043 369.754C94.043 369.967 93.8484 370.25 93.7205 370.602C93.5955 370.952 93.533 371.335 93.533 371.753C93.533 372.173 93.5955 372.558 93.7205 372.908C93.8484 373.257 94.043 373.537 94.3043 373.747C94.5685 373.957 94.9009 374.062 95.3015 374.062ZM104.675 370.053L103.521 370.257C103.472 370.109 103.396 369.969 103.29 369.835C103.188 369.702 103.049 369.592 102.873 369.507C102.697 369.422 102.477 369.379 102.212 369.379C101.852 369.379 101.55 369.46 101.309 369.622C101.067 369.781 100.947 369.987 100.947 370.24C100.947 370.459 101.028 370.635 101.19 370.768C101.352 370.902 101.613 371.011 101.974 371.097L103.013 371.335C103.616 371.474 104.065 371.689 104.36 371.979C104.656 372.268 104.803 372.645 104.803 373.108C104.803 373.5 104.69 373.849 104.462 374.156C104.238 374.46 103.924 374.699 103.521 374.872C103.12 375.045 102.656 375.132 102.127 375.132C101.394 375.132 100.796 374.976 100.333 374.663C99.87 374.348 99.5859 373.901 99.4808 373.321L100.712 373.134C100.789 373.455 100.947 373.697 101.185 373.862C101.424 374.024 101.735 374.105 102.119 374.105C102.536 374.105 102.87 374.018 103.12 373.845C103.37 373.669 103.495 373.455 103.495 373.202C103.495 372.997 103.418 372.825 103.265 372.686C103.114 372.547 102.883 372.442 102.57 372.371L101.462 372.128C100.852 371.989 100.4 371.767 100.107 371.463C99.8175 371.159 99.6726 370.774 99.6726 370.308C99.6726 369.922 99.7805 369.584 99.9964 369.294C100.212 369.004 100.511 368.778 100.891 368.616C101.272 368.452 101.708 368.369 102.2 368.369C102.907 368.369 103.464 368.523 103.87 368.83C104.276 369.134 104.545 369.541 104.675 370.053ZM109.025 375.132C108.38 375.132 107.825 374.994 107.359 374.719C106.896 374.44 106.538 374.05 106.285 373.547C106.035 373.041 105.91 372.449 105.91 371.77C105.91 371.099 106.035 370.509 106.285 369.997C106.538 369.486 106.89 369.087 107.342 368.8C107.797 368.513 108.328 368.369 108.936 368.369C109.305 368.369 109.663 368.43 110.01 368.553C110.356 368.675 110.667 368.866 110.943 369.128C111.218 369.389 111.436 369.729 111.595 370.146C111.754 370.561 111.833 371.065 111.833 371.659V372.111H106.63V371.156H110.585C110.585 370.821 110.517 370.524 110.38 370.266C110.244 370.004 110.052 369.798 109.805 369.648C109.561 369.497 109.274 369.422 108.944 369.422C108.586 369.422 108.274 369.51 108.007 369.686C107.743 369.859 107.538 370.087 107.393 370.368C107.251 370.646 107.18 370.949 107.18 371.276V372.021C107.18 372.459 107.257 372.831 107.41 373.138C107.566 373.445 107.784 373.679 108.062 373.841C108.341 374 108.666 374.08 109.038 374.08C109.279 374.08 109.5 374.045 109.699 373.977C109.897 373.906 110.069 373.801 110.214 373.662C110.359 373.523 110.47 373.351 110.547 373.146L111.752 373.364C111.656 373.719 111.483 374.03 111.233 374.297C110.985 374.561 110.674 374.767 110.299 374.915C109.927 375.06 109.502 375.132 109.025 375.132ZM115.697 375.128C115.169 375.128 114.697 374.993 114.283 374.723C113.871 374.45 113.547 374.062 113.311 373.56C113.078 373.054 112.962 372.447 112.962 371.74C112.962 371.033 113.08 370.428 113.315 369.925C113.554 369.422 113.881 369.037 114.295 368.77C114.71 368.503 115.18 368.369 115.706 368.369C116.112 368.369 116.439 368.438 116.686 368.574C116.936 368.707 117.129 368.864 117.266 369.043C117.405 369.222 117.513 369.379 117.589 369.516H117.666V366.273H118.94V375H117.696V373.982H117.589C117.513 374.121 117.402 374.28 117.257 374.459C117.115 374.638 116.919 374.794 116.669 374.928C116.419 375.061 116.095 375.128 115.697 375.128ZM115.979 374.041C116.345 374.041 116.655 373.945 116.908 373.751C117.163 373.555 117.357 373.284 117.487 372.938C117.621 372.591 117.688 372.187 117.688 371.727C117.688 371.273 117.622 370.875 117.491 370.534C117.361 370.193 117.169 369.928 116.916 369.737C116.663 369.547 116.351 369.452 115.979 369.452C115.595 369.452 115.276 369.551 115.02 369.75C114.764 369.949 114.571 370.22 114.44 370.564C114.313 370.908 114.249 371.295 114.249 371.727C114.249 372.165 114.314 372.558 114.445 372.908C114.575 373.257 114.768 373.534 115.024 373.739C115.283 373.94 115.601 374.041 115.979 374.041ZM125.354 366.273V375H124.037V366.273H125.354ZM127.169 375V368.455H128.392V369.52H128.473C128.609 369.159 128.832 368.878 129.142 368.676C129.452 368.472 129.822 368.369 130.254 368.369C130.692 368.369 131.058 368.472 131.354 368.676C131.652 368.881 131.872 369.162 132.014 369.52H132.082C132.239 369.17 132.487 368.892 132.828 368.685C133.169 368.474 133.575 368.369 134.047 368.369C134.641 368.369 135.125 368.555 135.5 368.928C135.878 369.3 136.067 369.861 136.067 370.611V375H134.793V370.73C134.793 370.287 134.672 369.966 134.43 369.767C134.189 369.568 133.901 369.469 133.565 369.469C133.151 369.469 132.828 369.597 132.598 369.852C132.368 370.105 132.253 370.43 132.253 370.828V375H130.983V370.649C130.983 370.294 130.872 370.009 130.651 369.793C130.429 369.577 130.141 369.469 129.786 369.469C129.544 369.469 129.321 369.533 129.116 369.661C128.915 369.786 128.751 369.96 128.626 370.185C128.504 370.409 128.443 370.669 128.443 370.964V375H127.169ZM137.775 377.455V368.455H139.019V369.516H139.125C139.199 369.379 139.306 369.222 139.445 369.043C139.584 368.864 139.777 368.707 140.025 368.574C140.272 368.438 140.598 368.369 141.005 368.369C141.533 368.369 142.005 368.503 142.419 368.77C142.834 369.037 143.159 369.422 143.395 369.925C143.634 370.428 143.753 371.033 143.753 371.74C143.753 372.447 143.635 373.054 143.4 373.56C143.164 374.062 142.84 374.45 142.428 374.723C142.016 374.993 141.546 375.128 141.017 375.128C140.62 375.128 140.294 375.061 140.042 374.928C139.792 374.794 139.596 374.638 139.453 374.459C139.311 374.28 139.202 374.121 139.125 373.982H139.049V377.455H137.775ZM139.023 371.727C139.023 372.187 139.09 372.591 139.223 372.938C139.357 373.284 139.55 373.555 139.803 373.751C140.056 373.945 140.365 374.041 140.732 374.041C141.113 374.041 141.431 373.94 141.686 373.739C141.942 373.534 142.135 373.257 142.266 372.908C142.4 372.558 142.466 372.165 142.466 371.727C142.466 371.295 142.401 370.908 142.27 370.564C142.142 370.22 141.949 369.949 141.691 369.75C141.435 369.551 141.115 369.452 140.732 369.452C140.363 369.452 140.05 369.547 139.794 369.737C139.542 369.928 139.35 370.193 139.219 370.534C139.088 370.875 139.023 371.273 139.023 371.727ZM145.181 375V368.455H146.412V369.494H146.48C146.6 369.142 146.81 368.865 147.111 368.663C147.415 368.459 147.759 368.357 148.142 368.357C148.222 368.357 148.316 368.359 148.424 368.365C148.534 368.371 148.621 368.378 148.684 368.386V369.605C148.632 369.591 148.542 369.575 148.411 369.558C148.28 369.538 148.15 369.528 148.019 369.528C147.718 369.528 147.449 369.592 147.213 369.72C146.98 369.845 146.796 370.02 146.659 370.244C146.523 370.466 146.455 370.719 146.455 371.003V375H145.181ZM152.309 375.132C151.695 375.132 151.16 374.991 150.702 374.71C150.245 374.429 149.89 374.036 149.637 373.53C149.384 373.024 149.258 372.433 149.258 371.757C149.258 371.078 149.384 370.484 149.637 369.976C149.89 369.467 150.245 369.072 150.702 368.791C151.16 368.51 151.695 368.369 152.309 368.369C152.923 368.369 153.458 368.51 153.915 368.791C154.373 369.072 154.728 369.467 154.981 369.976C155.234 370.484 155.36 371.078 155.36 371.757C155.36 372.433 155.234 373.024 154.981 373.53C154.728 374.036 154.373 374.429 153.915 374.71C153.458 374.991 152.923 375.132 152.309 375.132ZM152.313 374.062C152.711 374.062 153.04 373.957 153.302 373.747C153.563 373.537 153.756 373.257 153.881 372.908C154.009 372.558 154.073 372.173 154.073 371.753C154.073 371.335 154.009 370.952 153.881 370.602C153.756 370.25 153.563 369.967 153.302 369.754C153.04 369.541 152.711 369.435 152.313 369.435C151.913 369.435 151.58 369.541 151.316 369.754C151.055 369.967 150.86 370.25 150.732 370.602C150.607 370.952 150.545 371.335 150.545 371.753C150.545 372.173 150.607 372.558 150.732 372.908C150.86 373.257 151.055 373.537 151.316 373.747C151.58 373.957 151.913 374.062 152.313 374.062ZM162.159 368.455L159.786 375H158.422L156.044 368.455H157.412L159.07 373.491H159.138L160.791 368.455H162.159ZM165.955 375.132C165.31 375.132 164.755 374.994 164.289 374.719C163.826 374.44 163.468 374.05 163.215 373.547C162.965 373.041 162.84 372.449 162.84 371.77C162.84 371.099 162.965 370.509 163.215 369.997C163.468 369.486 163.82 369.087 164.272 368.8C164.726 368.513 165.257 368.369 165.865 368.369C166.235 368.369 166.593 368.43 166.939 368.553C167.286 368.675 167.597 368.866 167.873 369.128C168.148 369.389 168.365 369.729 168.525 370.146C168.684 370.561 168.763 371.065 168.763 371.659V372.111H163.56V371.156H167.515C167.515 370.821 167.446 370.524 167.31 370.266C167.174 370.004 166.982 369.798 166.735 369.648C166.49 369.497 166.203 369.422 165.874 369.422C165.516 369.422 165.203 369.51 164.936 369.686C164.672 369.859 164.468 370.087 164.323 370.368C164.181 370.646 164.11 370.949 164.11 371.276V372.021C164.11 372.459 164.186 372.831 164.34 373.138C164.496 373.445 164.713 373.679 164.992 373.841C165.27 374 165.596 374.08 165.968 374.08C166.209 374.08 166.429 374.045 166.628 373.977C166.827 373.906 166.999 373.801 167.144 373.662C167.289 373.523 167.4 373.351 167.476 373.146L168.682 373.364C168.586 373.719 168.412 374.03 168.162 374.297C167.915 374.561 167.604 374.767 167.229 374.915C166.857 375.06 166.432 375.132 165.955 375.132ZM170.177 375V368.455H171.4V369.52H171.481C171.617 369.159 171.84 368.878 172.15 368.676C172.46 368.472 172.83 368.369 173.262 368.369C173.7 368.369 174.066 368.472 174.362 368.676C174.66 368.881 174.88 369.162 175.022 369.52H175.09C175.246 369.17 175.495 368.892 175.836 368.685C176.177 368.474 176.583 368.369 177.055 368.369C177.648 368.369 178.133 368.555 178.508 368.928C178.886 369.3 179.075 369.861 179.075 370.611V375H177.8V370.73C177.8 370.287 177.68 369.966 177.438 369.767C177.197 369.568 176.908 369.469 176.573 369.469C176.158 369.469 175.836 369.597 175.606 369.852C175.376 370.105 175.261 370.43 175.261 370.828V375H173.991V370.649C173.991 370.294 173.88 370.009 173.658 369.793C173.437 369.577 173.148 369.469 172.793 369.469C172.552 369.469 172.329 369.533 172.124 369.661C171.923 369.786 171.759 369.96 171.634 370.185C171.512 370.409 171.451 370.669 171.451 370.964V375H170.177ZM183.603 375.132C182.958 375.132 182.403 374.994 181.937 374.719C181.474 374.44 181.116 374.05 180.863 373.547C180.613 373.041 180.488 372.449 180.488 371.77C180.488 371.099 180.613 370.509 180.863 369.997C181.116 369.486 181.468 369.087 181.92 368.8C182.375 368.513 182.906 368.369 183.514 368.369C183.883 368.369 184.241 368.43 184.588 368.553C184.934 368.675 185.245 368.866 185.521 369.128C185.797 369.389 186.014 369.729 186.173 370.146C186.332 370.561 186.412 371.065 186.412 371.659V372.111H181.208V371.156H185.163C185.163 370.821 185.095 370.524 184.958 370.266C184.822 370.004 184.63 369.798 184.383 369.648C184.139 369.497 183.852 369.422 183.522 369.422C183.164 369.422 182.852 369.51 182.585 369.686C182.321 369.859 182.116 370.087 181.971 370.368C181.829 370.646 181.758 370.949 181.758 371.276V372.021C181.758 372.459 181.835 372.831 181.988 373.138C182.145 373.445 182.362 373.679 182.64 373.841C182.919 374 183.244 374.08 183.616 374.08C183.858 374.08 184.078 374.045 184.277 373.977C184.475 373.906 184.647 373.801 184.792 373.662C184.937 373.523 185.048 373.351 185.125 373.146L186.331 373.364C186.234 373.719 186.061 374.03 185.811 374.297C185.564 374.561 185.252 374.767 184.877 374.915C184.505 375.06 184.081 375.132 183.603 375.132ZM189.099 371.114V375H187.825V368.455H189.048V369.52H189.129C189.28 369.173 189.516 368.895 189.837 368.685C190.161 368.474 190.568 368.369 191.06 368.369C191.506 368.369 191.896 368.463 192.232 368.651C192.567 368.835 192.827 369.111 193.011 369.477C193.196 369.844 193.288 370.297 193.288 370.837V375H192.014V370.99C192.014 370.516 191.891 370.145 191.643 369.878C191.396 369.608 191.057 369.473 190.625 369.473C190.33 369.473 190.067 369.537 189.837 369.665C189.609 369.793 189.429 369.98 189.295 370.227C189.165 370.472 189.099 370.767 189.099 371.114ZM198.053 368.455V369.477H194.477V368.455H198.053ZM195.436 366.886H196.71V373.078C196.71 373.325 196.747 373.511 196.821 373.636C196.895 373.759 196.99 373.842 197.107 373.888C197.226 373.93 197.355 373.952 197.494 373.952C197.597 373.952 197.686 373.945 197.763 373.93C197.839 373.916 197.899 373.905 197.942 373.896L198.172 374.949C198.098 374.977 197.993 375.006 197.857 375.034C197.72 375.065 197.55 375.082 197.345 375.085C197.01 375.091 196.697 375.031 196.408 374.906C196.118 374.781 195.884 374.588 195.705 374.327C195.526 374.065 195.436 373.737 195.436 373.342V366.886Z" fill="black"/>
<line x1="56.5" y1="475" x2="56.5" y2="501" stroke="#C6C6C6"/>
<circle cx="52.5" cy="370.5" r="3.5" fill="#70D2F0"/>
<circle cx="49.5" cy="232.5" r="3.5" fill="#3E9F49"/>
<circle cx="56" cy="263" r="11" fill="#D4F1C8"/>
<path d="M61.3337 259L54.0003 266.333L50.667 263" stroke="#296D0C" stroke-width="1.6" stroke-linecap="round" stroke-linejoin="round"/>
<rect x="52" y="410" width="274" height="11" rx="2" fill="#EEEEEE"/>
<rect x="56" y="516" width="274" height="11" rx="2" fill="#EEEEEE"/>
<rect x="52" y="426" width="265" height="11" rx="2" fill="#EEEEEE"/>
<rect x="56" y="534" width="265" height="11" rx="2" fill="#EEEEEE"/>
<rect x="52" y="442" width="274" height="11" rx="2" fill="#EEEEEE"/>
<rect x="56" y="551" width="274" height="11" rx="2" fill="#EEEEEE"/>
<defs>
<filter id="filter0_d_3073_3520" x="1" y="0" width="376" height="230" filterUnits="userSpaceOnUse" color-interpolation-filters="sRGB">
<feFlood flood-opacity="0" result="BackgroundImageFix"/>
<feColorMatrix in="SourceAlpha" type="matrix" values="0 0 0 0 0 0 0 0 0 0 0 0 0 0 0 0 0 0 127 0" result="hardAlpha"/>
<feOffset dy="4"/>
<feGaussianBlur stdDeviation="12.5"/>
<feComposite in2="hardAlpha" operator="out"/>
<feColorMatrix type="matrix" values="0 0 0 0 0 0 0 0 0 0 0 0 0 0 0 0 0 0 0.1 0"/>
<feBlend mode="normal" in2="BackgroundImageFix" result="effect1_dropShadow_3073_3520"/>
<feBlend mode="normal" in="SourceGraphic" in2="effect1_dropShadow_3073_3520" result="shape"/>
</filter>
<filter id="filter1_d_3073_3520" x="1" y="193" width="376" height="171" filterUnits="userSpaceOnUse" color-interpolation-filters="sRGB">
<feFlood flood-opacity="0" result="BackgroundImageFix"/>
<feColorMatrix in="SourceAlpha" type="matrix" values="0 0 0 0 0 0 0 0 0 0 0 0 0 0 0 0 0 0 127 0" result="hardAlpha"/>
<feOffset dy="4"/>
<feGaussianBlur stdDeviation="12.5"/>
<feComposite in2="hardAlpha" operator="out"/>
<feColorMatrix type="matrix" values="0 0 0 0 0 0 0 0 0 0 0 0 0 0 0 0 0 0 0.1 0"/>
<feBlend mode="normal" in2="BackgroundImageFix" result="effect1_dropShadow_3073_3520"/>
<feBlend mode="normal" in="SourceGraphic" in2="effect1_dropShadow_3073_3520" result="shape"/>
</filter>
<filter id="filter2_d_3073_3520" x="0" y="330" width="377" height="299" filterUnits="userSpaceOnUse" color-interpolation-filters="sRGB">
<feFlood flood-opacity="0" result="BackgroundImageFix"/>
<feColorMatrix in="SourceAlpha" type="matrix" values="0 0 0 0 0 0 0 0 0 0 0 0 0 0 0 0 0 0 127 0" result="hardAlpha"/>
<feOffset dy="4"/>
<feGaussianBlur stdDeviation="12.5"/>
<feComposite in2="hardAlpha" operator="out"/>
<feColorMatrix type="matrix" values="0 0 0 0 0 0 0 0 0 0 0 0 0 0 0 0 0 0 0.1 0"/>
<feBlend mode="normal" in2="BackgroundImageFix" result="effect1_dropShadow_3073_3520"/>
<feBlend mode="normal" in="SourceGraphic" in2="effect1_dropShadow_3073_3520" result="shape"/>
</filter>
<clipPath id="clip0_3073_3520">
<rect width="24" height="24" fill="white" transform="translate(45 66)"/>
</clipPath>
<clipPath id="clip1_3073_3520">
<rect width="12" height="12" fill="white" transform="translate(265 572)"/>
</clipPath>
</defs>
</svg>
