<svg width="386" height="495" viewBox="0 0 386 495" fill="none" xmlns="http://www.w3.org/2000/svg">
<g filter="url(#filter0_d_2930_3690)">
<rect x="25.5" y="21.5" width="335" height="185" rx="9.5" fill="#FFF8F4" stroke="#C6C6C6"/>
<path d="M51.4205 45.6364C51.4205 46.5568 51.2543 47.3523 50.9219 48.0227C50.5895 48.6932 50.1335 49.2102 49.554 49.5739C48.9744 49.9375 48.3125 50.1193 47.5682 50.1193C46.8239 50.1193 46.1619 49.9375 45.5824 49.5739C45.0028 49.2102 44.5469 48.6932 44.2145 48.0227C43.8821 47.3523 43.7159 46.5568 43.7159 45.6364C43.7159 44.7159 43.8821 43.9205 44.2145 43.25C44.5469 42.5795 45.0028 42.0625 45.5824 41.6989C46.1619 41.3352 46.8239 41.1534 47.5682 41.1534C48.3125 41.1534 48.9744 41.3352 49.554 41.6989C50.1335 42.0625 50.5895 42.5795 50.9219 43.25C51.2543 43.9205 51.4205 44.7159 51.4205 45.6364ZM50.3977 45.6364C50.3977 44.8807 50.2713 44.2429 50.0185 43.723C49.7685 43.2031 49.429 42.8097 49 42.5426C48.5739 42.2756 48.0966 42.142 47.5682 42.142C47.0398 42.142 46.5611 42.2756 46.1321 42.5426C45.706 42.8097 45.3665 43.2031 45.1136 43.723C44.8636 44.2429 44.7386 44.8807 44.7386 45.6364C44.7386 46.392 44.8636 47.0298 45.1136 47.5497C45.3665 48.0696 45.706 48.4631 46.1321 48.7301C46.5611 48.9972 47.0398 49.1307 47.5682 49.1307C48.0966 49.1307 48.5739 48.9972 49 48.7301C49.429 48.4631 49.7685 48.0696 50.0185 47.5497C50.2713 47.0298 50.3977 46.392 50.3977 45.6364ZM58.4134 43.4545L55.9929 50H54.9702L52.5497 43.4545H53.6406L55.4474 48.6705H55.5156L57.3224 43.4545H58.4134ZM62.2507 50.1364C61.62 50.1364 61.076 49.9972 60.6186 49.7188C60.1641 49.4375 59.8132 49.0455 59.5661 48.5426C59.3217 48.0369 59.1996 47.4489 59.1996 46.7784C59.1996 46.108 59.3217 45.517 59.5661 45.0057C59.8132 44.4915 60.157 44.0909 60.5973 43.804C61.0405 43.5142 61.5575 43.3693 62.1484 43.3693C62.4893 43.3693 62.826 43.4261 63.1584 43.5398C63.4908 43.6534 63.7933 43.8381 64.0661 44.0938C64.3388 44.3466 64.5561 44.6818 64.718 45.0994C64.88 45.517 64.9609 46.0312 64.9609 46.642V47.0682H59.9155V46.1989H63.9382C63.9382 45.8295 63.8643 45.5 63.7166 45.2102C63.5717 44.9205 63.3643 44.6918 63.0945 44.5241C62.8274 44.3565 62.5121 44.2727 62.1484 44.2727C61.7479 44.2727 61.4013 44.3722 61.1087 44.571C60.8189 44.767 60.5959 45.0227 60.4396 45.3381C60.2834 45.6534 60.2053 45.9915 60.2053 46.3523V46.9318C60.2053 47.4261 60.2905 47.8452 60.4609 48.1889C60.6342 48.5298 60.8743 48.7898 61.1811 48.9688C61.4879 49.1449 61.8445 49.233 62.2507 49.233C62.5149 49.233 62.7536 49.196 62.9666 49.1222C63.1825 49.0455 63.3686 48.9318 63.5249 48.7812C63.6811 48.6278 63.8018 48.4375 63.8871 48.2102L64.8587 48.483C64.7564 48.8125 64.5845 49.1023 64.343 49.3523C64.1016 49.5994 63.8033 49.7926 63.4482 49.9318C63.093 50.0682 62.6939 50.1364 62.2507 50.1364ZM66.4908 50V43.4545H67.4624V44.4432H67.5305C67.6499 44.1193 67.8658 43.8565 68.1783 43.6548C68.4908 43.4531 68.843 43.3523 69.2351 43.3523C69.3089 43.3523 69.4013 43.3537 69.5121 43.3565C69.6229 43.3594 69.7067 43.3636 69.7635 43.3693V44.392C69.7294 44.3835 69.6513 44.3707 69.5291 44.3537C69.4098 44.3338 69.2834 44.3239 69.1499 44.3239C68.8317 44.3239 68.5476 44.3906 68.2976 44.5241C68.0504 44.6548 67.8544 44.8366 67.7095 45.0696C67.5675 45.2997 67.4964 45.5625 67.4964 45.858V50H66.4908ZM72.8817 50.1534C72.467 50.1534 72.0906 50.0753 71.7525 49.919C71.4144 49.7599 71.146 49.5312 70.9471 49.233C70.7482 48.9318 70.6488 48.5682 70.6488 48.142C70.6488 47.767 70.7227 47.4631 70.8704 47.2301C71.0181 46.9943 71.2156 46.8097 71.4627 46.6761C71.7099 46.5426 71.9826 46.4432 72.2809 46.3778C72.582 46.3097 72.8846 46.2557 73.1886 46.2159C73.5863 46.1648 73.9087 46.1264 74.1559 46.1009C74.4059 46.0724 74.5877 46.0256 74.7013 45.9602C74.8178 45.8949 74.8761 45.7812 74.8761 45.6193V45.5852C74.8761 45.1648 74.761 44.8381 74.5309 44.6051C74.3036 44.3722 73.9585 44.2557 73.4954 44.2557C73.0153 44.2557 72.6388 44.3608 72.3661 44.571C72.0934 44.7812 71.9016 45.0057 71.7908 45.2443L70.8363 44.9034C71.0067 44.5057 71.234 44.196 71.5181 43.9744C71.805 43.75 72.1175 43.5937 72.4556 43.5057C72.7965 43.4148 73.1317 43.3693 73.4613 43.3693C73.6715 43.3693 73.913 43.3949 74.1857 43.446C74.4613 43.4943 74.7269 43.5952 74.9826 43.7486C75.2411 43.902 75.4556 44.1335 75.6261 44.4432C75.7965 44.7528 75.8817 45.1676 75.8817 45.6875V50H74.8761V49.1136H74.8249C74.7567 49.2557 74.6431 49.4077 74.484 49.5696C74.3249 49.7315 74.1133 49.8693 73.8491 49.983C73.5849 50.0966 73.2624 50.1534 72.8817 50.1534ZM73.0352 49.25C73.4329 49.25 73.7681 49.1719 74.0408 49.0156C74.3164 48.8594 74.5238 48.6577 74.663 48.4105C74.805 48.1634 74.8761 47.9034 74.8761 47.6307V46.7102C74.8335 46.7614 74.7397 46.8082 74.5948 46.8509C74.4528 46.8906 74.288 46.9261 74.1005 46.9574C73.9158 46.9858 73.7354 47.0114 73.5593 47.0341C73.386 47.054 73.2454 47.071 73.1374 47.0852C72.8761 47.1193 72.6317 47.1747 72.4045 47.2514C72.18 47.3253 71.9982 47.4375 71.859 47.5881C71.7227 47.7358 71.6545 47.9375 71.6545 48.1932C71.6545 48.5426 71.7837 48.8068 72.0423 48.9858C72.3036 49.1619 72.6346 49.25 73.0352 49.25ZM78.723 41.2727V50H77.7173V41.2727H78.723ZM81.5707 41.2727V50H80.565V41.2727H81.5707ZM91.6967 43.4545C91.6456 43.0227 91.4382 42.6875 91.0746 42.4489C90.7109 42.2102 90.2649 42.0909 89.7365 42.0909C89.3501 42.0909 89.0121 42.1534 88.7223 42.2784C88.4354 42.4034 88.2109 42.5753 88.049 42.794C87.8899 43.0128 87.8104 43.2614 87.8104 43.5398C87.8104 43.7727 87.8658 43.973 87.9766 44.1406C88.0902 44.3054 88.2351 44.4432 88.4112 44.554C88.5874 44.6619 88.772 44.7514 88.9652 44.8224C89.1584 44.8906 89.3359 44.946 89.4979 44.9886L90.3842 45.2273C90.6115 45.2869 90.8643 45.3693 91.1428 45.4744C91.424 45.5795 91.6925 45.723 91.9482 45.9048C92.2067 46.0838 92.4197 46.3139 92.5874 46.5952C92.755 46.8764 92.8388 47.2216 92.8388 47.6307C92.8388 48.1023 92.7152 48.5284 92.468 48.9091C92.2237 49.2898 91.8658 49.5923 91.3942 49.8168C90.9254 50.0412 90.3558 50.1534 89.6854 50.1534C89.0604 50.1534 88.5192 50.0526 88.0618 49.8509C87.6072 49.6491 87.2493 49.3679 86.9879 49.0071C86.7294 48.6463 86.5831 48.2273 86.549 47.75H87.6399C87.6683 48.0795 87.7791 48.3523 87.9723 48.5682C88.1683 48.7812 88.4155 48.9403 88.7138 49.0455C89.0149 49.1477 89.3388 49.1989 89.6854 49.1989C90.0888 49.1989 90.451 49.1335 90.772 49.0028C91.093 48.8693 91.3473 48.6847 91.5348 48.4489C91.7223 48.2102 91.8161 47.9318 91.8161 47.6136C91.8161 47.3239 91.7351 47.0881 91.5732 46.9062C91.4112 46.7244 91.1982 46.5767 90.9339 46.4631C90.6697 46.3494 90.3842 46.25 90.0774 46.1648L89.0036 45.858C88.3217 45.6619 87.782 45.3821 87.3842 45.0185C86.9865 44.6548 86.7876 44.179 86.7876 43.5909C86.7876 43.1023 86.9197 42.6761 87.1839 42.3125C87.451 41.946 87.8089 41.6619 88.2578 41.4602C88.7095 41.2557 89.2138 41.1534 89.7706 41.1534C90.3331 41.1534 90.8331 41.2543 91.2706 41.456C91.7081 41.6548 92.0547 41.9276 92.3104 42.2741C92.5689 42.6207 92.7053 43.0142 92.7195 43.4545H91.6967ZM97.0991 50.1364C96.4854 50.1364 95.957 49.9915 95.5138 49.7017C95.0707 49.4119 94.7298 49.0128 94.4911 48.5043C94.2525 47.9957 94.1332 47.4148 94.1332 46.7614C94.1332 46.0966 94.2553 45.5099 94.4996 45.0014C94.7468 44.4901 95.0906 44.0909 95.5309 43.804C95.9741 43.5142 96.4911 43.3693 97.082 43.3693C97.5423 43.3693 97.957 43.4545 98.3263 43.625C98.6957 43.7955 98.9982 44.0341 99.234 44.3409C99.4698 44.6477 99.6161 45.0057 99.6729 45.4148H98.6673C98.5906 45.1165 98.4201 44.8523 98.1559 44.6222C97.8945 44.3892 97.5423 44.2727 97.0991 44.2727C96.707 44.2727 96.3633 44.375 96.0678 44.5795C95.7752 44.7812 95.5465 45.0668 95.3817 45.4361C95.2198 45.8026 95.1388 46.233 95.1388 46.7273C95.1388 47.233 95.2184 47.6733 95.3775 48.0483C95.5394 48.4233 95.7667 48.7145 96.0593 48.9219C96.3548 49.1293 96.7013 49.233 97.0991 49.233C97.3604 49.233 97.5977 49.1875 97.8107 49.0966C98.0238 49.0057 98.2042 48.875 98.3519 48.7045C98.4996 48.5341 98.6048 48.3295 98.6673 48.0909H99.6729C99.6161 48.4773 99.4755 48.8253 99.2511 49.1349C99.0295 49.4418 98.7354 49.6861 98.369 49.8679C98.0053 50.0469 97.582 50.1364 97.0991 50.1364ZM103.802 50.1364C103.211 50.1364 102.693 49.9957 102.247 49.7145C101.804 49.4332 101.457 49.0398 101.207 48.5341C100.96 48.0284 100.836 47.4375 100.836 46.7614C100.836 46.0795 100.96 45.4844 101.207 44.9759C101.457 44.4673 101.804 44.0724 102.247 43.7912C102.693 43.5099 103.211 43.3693 103.802 43.3693C104.393 43.3693 104.91 43.5099 105.353 43.7912C105.799 44.0724 106.146 44.4673 106.393 44.9759C106.643 45.4844 106.768 46.0795 106.768 46.7614C106.768 47.4375 106.643 48.0284 106.393 48.5341C106.146 49.0398 105.799 49.4332 105.353 49.7145C104.91 49.9957 104.393 50.1364 103.802 50.1364ZM103.802 49.233C104.251 49.233 104.62 49.1179 104.91 48.8878C105.2 48.6577 105.414 48.3551 105.554 47.9801C105.693 47.6051 105.762 47.1989 105.762 46.7614C105.762 46.3239 105.693 45.9162 105.554 45.5384C105.414 45.1605 105.2 44.8551 104.91 44.6222C104.62 44.3892 104.251 44.2727 103.802 44.2727C103.353 44.2727 102.984 44.3892 102.694 44.6222C102.404 44.8551 102.19 45.1605 102.051 45.5384C101.912 45.9162 101.842 46.3239 101.842 46.7614C101.842 47.1989 101.912 47.6051 102.051 47.9801C102.19 48.3551 102.404 48.6577 102.694 48.8878C102.984 49.1179 103.353 49.233 103.802 49.233ZM108.303 50V43.4545H109.275V44.4432H109.343C109.462 44.1193 109.678 43.8565 109.991 43.6548C110.303 43.4531 110.656 43.3523 111.048 43.3523C111.121 43.3523 111.214 43.3537 111.325 43.3565C111.435 43.3594 111.519 43.3636 111.576 43.3693V44.392C111.542 44.3835 111.464 44.3707 111.342 44.3537C111.222 44.3338 111.096 44.3239 110.962 44.3239C110.644 44.3239 110.36 44.3906 110.11 44.5241C109.863 44.6548 109.667 44.8366 109.522 45.0696C109.38 45.2997 109.309 45.5625 109.309 45.858V50H108.303ZM115.313 50.1364C114.683 50.1364 114.138 49.9972 113.681 49.7188C113.227 49.4375 112.876 49.0455 112.629 48.5426C112.384 48.0369 112.262 47.4489 112.262 46.7784C112.262 46.108 112.384 45.517 112.629 45.0057C112.876 44.4915 113.219 44.0909 113.66 43.804C114.103 43.5142 114.62 43.3693 115.211 43.3693C115.552 43.3693 115.888 43.4261 116.221 43.5398C116.553 43.6534 116.856 43.8381 117.129 44.0938C117.401 44.3466 117.619 44.6818 117.781 45.0994C117.942 45.517 118.023 46.0312 118.023 46.642V47.0682H112.978V46.1989H117.001C117.001 45.8295 116.927 45.5 116.779 45.2102C116.634 44.9205 116.427 44.6918 116.157 44.5241C115.89 44.3565 115.575 44.2727 115.211 44.2727C114.81 44.2727 114.464 44.3722 114.171 44.571C113.881 44.767 113.658 45.0227 113.502 45.3381C113.346 45.6534 113.268 45.9915 113.268 46.3523V46.9318C113.268 47.4261 113.353 47.8452 113.523 48.1889C113.697 48.5298 113.937 48.7898 114.244 48.9688C114.55 49.1449 114.907 49.233 115.313 49.233C115.577 49.233 115.816 49.196 116.029 49.1222C116.245 49.0455 116.431 48.9318 116.587 48.7812C116.744 48.6278 116.864 48.4375 116.95 48.2102L117.921 48.483C117.819 48.8125 117.647 49.1023 117.406 49.3523C117.164 49.5994 116.866 49.7926 116.511 49.9318C116.156 50.0682 115.756 50.1364 115.313 50.1364Z" fill="black"/>
<g clip-path="url(#clip0_2930_3690)">
<path d="M47 74H63V86H48.17L47 87.17V74ZM47 72C45.9 72 45.01 72.9 45.01 74L45 92L49 88H63C64.1 88 65 87.1 65 86V74C65 72.9 64.1 72 63 72H47ZM49 82H61V84H49V82ZM49 79H61V81H49V79ZM49 76H61V78H49V76Z" fill="#323232"/>
</g>
<path d="M82.1051 88L89.3409 73.6818V73.5625H80.9119V70.5455H93.1591V73.6051L85.9148 88H82.1051ZM108.879 69.7273L103.254 90.625H100.126L105.751 69.7273H108.879ZM123.743 70.5455V88H120.053V74.0483H119.95L115.953 76.554V73.2812L120.274 70.5455H123.743ZM134.735 88.3835C133.269 88.3778 132.008 88.017 130.951 87.3011C129.9 86.5852 129.09 85.5483 128.522 84.1903C127.96 82.8324 127.681 81.1989 127.687 79.2898C127.687 77.3864 127.968 75.7642 128.531 74.4233C129.099 73.0824 129.908 72.0625 130.96 71.3636C132.016 70.6591 133.275 70.3068 134.735 70.3068C136.195 70.3068 137.451 70.6591 138.502 71.3636C139.559 72.0682 140.371 73.0909 140.94 74.4318C141.508 75.767 141.789 77.3864 141.783 79.2898C141.783 81.2045 141.499 82.8409 140.931 84.1989C140.369 85.5568 139.562 86.5937 138.511 87.3097C137.46 88.0256 136.201 88.3835 134.735 88.3835ZM134.735 85.3239C135.735 85.3239 136.533 84.821 137.13 83.8153C137.727 82.8097 138.022 81.3011 138.016 79.2898C138.016 77.9659 137.88 76.8636 137.607 75.983C137.34 75.1023 136.96 74.4403 136.465 73.9972C135.977 73.554 135.4 73.3324 134.735 73.3324C133.741 73.3324 132.945 73.8295 132.349 74.8239C131.752 75.8182 131.451 77.3068 131.445 79.2898C131.445 80.6307 131.579 81.75 131.846 82.6477C132.119 83.5398 132.502 84.2102 132.996 84.6591C133.491 85.1023 134.07 85.3239 134.735 85.3239Z" fill="black"/>
<line x1="38" y1="107.5" x2="348" y2="107.5" stroke="#C6C6C6"/>
<rect x="38" y="120" width="293" height="10" rx="2" fill="#EEEEEE"/>
<rect x="38" y="135" width="285" height="10" rx="2" fill="#EEEEEE"/>
<rect x="38" y="150" width="281" height="10" rx="2" fill="#EEEEEE"/>
<rect x="38" y="165" width="293" height="10" rx="2" fill="#EEEEEE"/>
</g>
<g filter="url(#filter1_d_2930_3690)">
<rect x="25.5" y="227.5" width="335" height="238" rx="9.5" fill="#FAFAFA" stroke="#C6C6C6"/>
<line x1="69.5" y1="357" x2="69.5" y2="331" stroke="#C6C6C6"/>
<rect x="46.5" y="246.5" width="289" height="84" rx="9.5" fill="white" stroke="#C6C6C6"/>
<rect x="46.5" y="357.5" width="289" height="76" rx="9.5" fill="white" stroke="#C6C6C6"/>
<path d="M51 432.659C48.0119 430.93 46 427.702 46 424.001V367.001C46 363.3 48.0119 360.072 51 358.343V432.659Z" fill="#70D2F0"/>
<rect x="275" y="322" width="44" height="17" rx="8.5" fill="#F2F2F2"/>
<rect x="275.5" y="322.5" width="43" height="16" rx="8" stroke="#C6C6C6" stroke-opacity="0.423529"/>
<rect x="254" y="425" width="65" height="17" rx="8.5" fill="#F2F2F2"/>
<rect x="254.5" y="425.5" width="64" height="16" rx="8" stroke="#C6C6C6" stroke-opacity="0.423529"/>
<path d="M286.248 329.663H285.053C285.019 329.467 284.956 329.293 284.864 329.142C284.773 328.989 284.659 328.859 284.522 328.752C284.386 328.646 284.23 328.566 284.056 328.512C283.883 328.457 283.697 328.429 283.496 328.429C283.141 328.429 282.825 328.519 282.55 328.698C282.276 328.875 282.06 329.135 281.905 329.478C281.749 329.819 281.672 330.235 281.672 330.727C281.672 331.228 281.749 331.65 281.905 331.993C282.063 332.334 282.278 332.592 282.55 332.766C282.825 332.939 283.14 333.025 283.493 333.025C283.689 333.025 283.873 333 284.043 332.949C284.216 332.895 284.37 332.817 284.506 332.715C284.645 332.613 284.761 332.487 284.855 332.338C284.951 332.189 285.017 332.018 285.053 331.827L286.248 331.833C286.203 332.144 286.107 332.436 285.957 332.709C285.81 332.982 285.618 333.222 285.379 333.431C285.14 333.638 284.861 333.8 284.542 333.917C284.222 334.032 283.867 334.089 283.477 334.089C282.902 334.089 282.388 333.956 281.937 333.69C281.485 333.424 281.129 333.039 280.869 332.536C280.609 332.033 280.479 331.43 280.479 330.727C280.479 330.022 280.61 329.419 280.873 328.918C281.135 328.415 281.491 328.031 281.943 327.765C282.395 327.498 282.906 327.365 283.477 327.365C283.842 327.365 284.18 327.416 284.494 327.518C284.807 327.621 285.086 327.771 285.331 327.969C285.576 328.165 285.777 328.406 285.935 328.691C286.095 328.975 286.199 329.299 286.248 329.663ZM290.412 331.935V329.091H291.569V334H290.447V333.127H290.396C290.285 333.402 290.103 333.627 289.849 333.802C289.598 333.977 289.288 334.064 288.919 334.064C288.598 334.064 288.313 333.993 288.066 333.85C287.821 333.705 287.629 333.495 287.491 333.22C287.352 332.943 287.283 332.609 287.283 332.217V329.091H288.44V332.038C288.44 332.349 288.525 332.596 288.696 332.779C288.866 332.962 289.09 333.054 289.367 333.054C289.537 333.054 289.702 333.012 289.862 332.929C290.022 332.846 290.153 332.723 290.255 332.559C290.36 332.392 290.412 332.185 290.412 331.935ZM292.759 334V329.091H293.88V329.909H293.931C294.021 329.626 294.174 329.407 294.392 329.254C294.611 329.098 294.862 329.021 295.143 329.021C295.207 329.021 295.278 329.024 295.357 329.03C295.438 329.034 295.505 329.042 295.558 329.053V330.117C295.509 330.1 295.431 330.085 295.325 330.072C295.221 330.057 295.119 330.05 295.021 330.05C294.81 330.05 294.621 330.096 294.452 330.187C294.286 330.277 294.155 330.401 294.059 330.561C293.963 330.721 293.915 330.905 293.915 331.114V334H292.759ZM296.327 334V329.091H297.449V329.909H297.5C297.589 329.626 297.743 329.407 297.96 329.254C298.18 329.098 298.43 329.021 298.711 329.021C298.775 329.021 298.846 329.024 298.925 329.03C299.006 329.034 299.073 329.042 299.127 329.053V330.117C299.078 330.1 299 330.085 298.893 330.072C298.789 330.057 298.688 330.05 298.59 330.05C298.379 330.05 298.189 330.096 298.021 330.187C297.855 330.277 297.724 330.401 297.628 330.561C297.532 330.721 297.484 330.905 297.484 331.114V334H296.327ZM301.866 334.096C301.374 334.096 300.949 333.994 300.591 333.789C300.235 333.582 299.962 333.29 299.77 332.913C299.578 332.534 299.482 332.088 299.482 331.574C299.482 331.069 299.578 330.626 299.77 330.245C299.964 329.861 300.234 329.563 300.582 329.35C300.929 329.135 301.337 329.027 301.806 329.027C302.108 329.027 302.394 329.076 302.662 329.174C302.933 329.27 303.171 329.419 303.378 329.621C303.587 329.824 303.751 330.082 303.87 330.395C303.99 330.706 304.049 331.077 304.049 331.507V331.862H300.025V331.082H302.94C302.938 330.86 302.89 330.663 302.796 330.491C302.703 330.316 302.572 330.179 302.403 330.078C302.237 329.978 302.043 329.928 301.822 329.928C301.585 329.928 301.377 329.986 301.198 330.101C301.019 330.214 300.88 330.363 300.78 330.548C300.682 330.732 300.632 330.933 300.63 331.152V331.833C300.63 332.119 300.682 332.364 300.786 332.568C300.891 332.771 301.036 332.926 301.224 333.035C301.411 333.141 301.631 333.195 301.882 333.195C302.051 333.195 302.203 333.171 302.339 333.124C302.476 333.075 302.594 333.004 302.694 332.91C302.794 332.816 302.87 332.7 302.921 332.562L304.001 332.683C303.933 332.969 303.803 333.218 303.611 333.431C303.422 333.642 303.179 333.806 302.883 333.923C302.587 334.038 302.248 334.096 301.866 334.096ZM306.185 331.124V334H305.028V329.091H306.134V329.925H306.191C306.304 329.65 306.484 329.432 306.732 329.27C306.981 329.108 307.289 329.027 307.655 329.027C307.994 329.027 308.289 329.099 308.54 329.244C308.794 329.389 308.99 329.599 309.129 329.874C309.269 330.149 309.338 330.482 309.336 330.874V334H308.179V331.053C308.179 330.725 308.094 330.468 307.924 330.283C307.755 330.098 307.522 330.005 307.224 330.005C307.021 330.005 306.841 330.05 306.684 330.139C306.528 330.227 306.406 330.353 306.316 330.52C306.229 330.686 306.185 330.887 306.185 331.124ZM312.964 329.091V329.986H310.142V329.091H312.964ZM310.838 327.915H311.995V332.523C311.995 332.679 312.019 332.798 312.066 332.881C312.115 332.962 312.179 333.018 312.257 333.048C312.336 333.077 312.424 333.092 312.52 333.092C312.592 333.092 312.658 333.087 312.718 333.076C312.779 333.066 312.826 333.056 312.858 333.048L313.053 333.952C312.991 333.973 312.903 333.997 312.788 334.022C312.675 334.048 312.537 334.063 312.373 334.067C312.083 334.076 311.822 334.032 311.589 333.936C311.357 333.838 311.173 333.687 311.037 333.482C310.902 333.278 310.836 333.022 310.838 332.715V327.915Z" fill="#AAAAAA"/>
<path d="M274.831 430.455V437H273.646V430.455H274.831ZM276.064 437V432.091H277.17V432.925H277.228C277.33 432.644 277.499 432.424 277.736 432.267C277.972 432.107 278.255 432.027 278.583 432.027C278.915 432.027 279.195 432.108 279.423 432.27C279.653 432.43 279.815 432.648 279.909 432.925H279.96C280.069 432.652 280.252 432.435 280.51 432.273C280.77 432.109 281.078 432.027 281.434 432.027C281.885 432.027 282.254 432.17 282.539 432.455C282.825 432.741 282.968 433.157 282.968 433.705V437H281.807V433.884C281.807 433.579 281.726 433.357 281.565 433.216C281.403 433.073 281.204 433.002 280.97 433.002C280.691 433.002 280.473 433.089 280.315 433.264C280.159 433.436 280.082 433.661 280.082 433.938V437H278.947V433.836C278.947 433.582 278.87 433.38 278.717 433.229C278.566 433.077 278.367 433.002 278.122 433.002C277.956 433.002 277.805 433.044 277.669 433.13C277.532 433.213 277.424 433.331 277.343 433.484C277.262 433.636 277.221 433.812 277.221 434.015V437H276.064ZM284.141 438.841V432.091H285.279V432.903H285.346C285.406 432.783 285.49 432.657 285.599 432.522C285.707 432.386 285.854 432.27 286.04 432.174C286.225 432.076 286.462 432.027 286.749 432.027C287.129 432.027 287.471 432.124 287.775 432.318C288.082 432.51 288.325 432.794 288.504 433.171C288.685 433.546 288.776 434.006 288.776 434.552C288.776 435.091 288.687 435.549 288.51 435.926C288.333 436.303 288.093 436.591 287.788 436.789C287.483 436.987 287.138 437.086 286.752 437.086C286.471 437.086 286.238 437.039 286.053 436.946C285.867 436.852 285.718 436.739 285.605 436.607C285.494 436.473 285.408 436.346 285.346 436.227H285.298V438.841H284.141ZM285.276 434.545C285.276 434.863 285.321 435.141 285.41 435.38C285.502 435.618 285.633 435.805 285.803 435.939C285.976 436.071 286.185 436.137 286.43 436.137C286.685 436.137 286.9 436.069 287.072 435.933C287.245 435.794 287.375 435.605 287.462 435.367C287.551 435.126 287.596 434.852 287.596 434.545C287.596 434.241 287.553 433.97 287.465 433.734C287.378 433.497 287.248 433.312 287.075 433.178C286.903 433.043 286.688 432.976 286.43 432.976C286.183 432.976 285.973 433.041 285.8 433.171C285.627 433.301 285.496 433.483 285.407 433.718C285.32 433.952 285.276 434.228 285.276 434.545ZM289.766 437V432.091H290.888V432.909H290.939C291.029 432.626 291.182 432.407 291.4 432.254C291.619 432.098 291.869 432.021 292.151 432.021C292.214 432.021 292.286 432.024 292.365 432.03C292.446 432.034 292.513 432.042 292.566 432.053V433.117C292.517 433.1 292.439 433.085 292.333 433.072C292.228 433.057 292.127 433.05 292.029 433.05C291.818 433.05 291.629 433.096 291.46 433.187C291.294 433.277 291.163 433.401 291.067 433.561C290.971 433.721 290.923 433.905 290.923 434.114V437H289.766ZM295.274 437.096C294.794 437.096 294.379 436.99 294.027 436.779C293.676 436.569 293.403 436.273 293.209 435.894C293.017 435.515 292.922 435.072 292.922 434.565C292.922 434.058 293.017 433.613 293.209 433.232C293.403 432.85 293.676 432.554 294.027 432.343C294.379 432.132 294.794 432.027 295.274 432.027C295.753 432.027 296.169 432.132 296.52 432.343C296.872 432.554 297.144 432.85 297.335 433.232C297.529 433.613 297.626 434.058 297.626 434.565C297.626 435.072 297.529 435.515 297.335 435.894C297.144 436.273 296.872 436.569 296.52 436.779C296.169 436.99 295.753 437.096 295.274 437.096ZM295.28 436.169C295.54 436.169 295.758 436.098 295.932 435.955C296.107 435.81 296.237 435.616 296.322 435.373C296.41 435.13 296.453 434.86 296.453 434.561C296.453 434.261 296.41 433.989 296.322 433.746C296.237 433.501 296.107 433.306 295.932 433.162C295.758 433.017 295.54 432.944 295.28 432.944C295.014 432.944 294.792 433.017 294.616 433.162C294.441 433.306 294.31 433.501 294.222 433.746C294.137 433.989 294.095 434.261 294.095 434.561C294.095 434.86 294.137 435.13 294.222 435.373C294.31 435.616 294.441 435.81 294.616 435.955C294.792 436.098 295.014 436.169 295.28 436.169ZM302.826 432.091L301.078 437H299.799L298.051 432.091H299.285L300.413 435.738H300.464L301.596 432.091H302.826ZM305.633 437.096C305.141 437.096 304.716 436.994 304.358 436.789C304.002 436.582 303.728 436.29 303.536 435.913C303.345 435.534 303.249 435.088 303.249 434.574C303.249 434.069 303.345 433.626 303.536 433.245C303.73 432.861 304.001 432.563 304.348 432.35C304.695 432.135 305.104 432.027 305.572 432.027C305.875 432.027 306.16 432.076 306.429 432.174C306.699 432.27 306.938 432.419 307.145 432.621C307.354 432.824 307.518 433.082 307.637 433.395C307.756 433.706 307.816 434.077 307.816 434.507V434.862H303.792V434.082H306.707C306.705 433.86 306.657 433.663 306.563 433.491C306.469 433.316 306.338 433.179 306.17 433.078C306.004 432.978 305.81 432.928 305.588 432.928C305.352 432.928 305.144 432.986 304.965 433.101C304.786 433.214 304.646 433.363 304.546 433.548C304.448 433.732 304.398 433.933 304.396 434.152V434.833C304.396 435.119 304.448 435.364 304.553 435.568C304.657 435.771 304.803 435.926 304.991 436.035C305.178 436.141 305.398 436.195 305.649 436.195C305.817 436.195 305.97 436.171 306.106 436.124C306.242 436.075 306.361 436.004 306.461 435.91C306.561 435.816 306.637 435.7 306.688 435.562L307.768 435.683C307.7 435.969 307.57 436.218 307.378 436.431C307.188 436.642 306.945 436.806 306.649 436.923C306.353 437.038 306.014 437.096 305.633 437.096ZM310.616 437.086C310.231 437.086 309.886 436.987 309.581 436.789C309.276 436.591 309.035 436.303 308.859 435.926C308.682 435.549 308.593 435.091 308.593 434.552C308.593 434.006 308.683 433.546 308.862 433.171C309.043 432.794 309.287 432.51 309.594 432.318C309.9 432.124 310.242 432.027 310.62 432.027C310.907 432.027 311.144 432.076 311.329 432.174C311.514 432.27 311.661 432.386 311.77 432.522C311.879 432.657 311.963 432.783 312.023 432.903H312.071V430.455H313.231V437H312.093V436.227H312.023C311.963 436.346 311.877 436.473 311.764 436.607C311.651 436.739 311.502 436.852 311.316 436.946C311.131 437.039 310.898 437.086 310.616 437.086ZM310.939 436.137C311.184 436.137 311.393 436.071 311.566 435.939C311.738 435.805 311.869 435.618 311.959 435.38C312.048 435.141 312.093 434.863 312.093 434.545C312.093 434.228 312.048 433.952 311.959 433.718C311.871 433.483 311.741 433.301 311.569 433.171C311.398 433.041 311.188 432.976 310.939 432.976C310.681 432.976 310.466 433.043 310.294 433.178C310.121 433.312 309.991 433.497 309.904 433.734C309.816 433.97 309.773 434.241 309.773 434.545C309.773 434.852 309.816 435.126 309.904 435.367C309.993 435.605 310.124 435.794 310.297 435.933C310.472 436.069 310.686 436.137 310.939 436.137Z" fill="#70D2F0"/>
<g clip-path="url(#clip1_2930_3690)">
<path d="M267.425 431.425L268.145 432.145L265.705 434.585L264.06 432.94C263.865 432.745 263.55 432.745 263.355 432.94L260.355 435.945C260.16 436.14 260.16 436.455 260.355 436.65C260.55 436.845 260.865 436.845 261.06 436.65L263.705 434L265.35 435.645C265.545 435.84 265.86 435.84 266.055 435.645L268.85 432.855L269.57 433.575C269.725 433.73 269.995 433.62 269.995 433.4V431.25C270 431.11 269.89 431 269.75 431H267.605C267.38 431 267.27 431.27 267.425 431.425V431.425Z" fill="#70D2F0"/>
</g>
<rect x="59" y="259" width="255" height="10" rx="2" fill="#EEEEEE"/>
<rect x="59" y="373" width="255" height="10" rx="2" fill="#EEEEEE"/>
<rect x="59" y="276" width="260" height="10" rx="2" fill="#EEEEEE"/>
<rect x="59" y="390" width="221" height="10" rx="2" fill="#EEEEEE"/>
<rect x="59" y="407" width="246" height="10" rx="2" fill="#EEEEEE"/>
<rect x="59" y="293" width="126" height="10" rx="2" fill="#EEEEEE"/>
</g>
<defs>
<filter id="filter0_d_2930_3690" x="0" y="0" width="386" height="236" filterUnits="userSpaceOnUse" color-interpolation-filters="sRGB">
<feFlood flood-opacity="0" result="BackgroundImageFix"/>
<feColorMatrix in="SourceAlpha" type="matrix" values="0 0 0 0 0 0 0 0 0 0 0 0 0 0 0 0 0 0 127 0" result="hardAlpha"/>
<feOffset dy="4"/>
<feGaussianBlur stdDeviation="12.5"/>
<feComposite in2="hardAlpha" operator="out"/>
<feColorMatrix type="matrix" values="0 0 0 0 0 0 0 0 0 0 0 0 0 0 0 0 0 0 0.1 0"/>
<feBlend mode="normal" in2="BackgroundImageFix" result="effect1_dropShadow_2930_3690"/>
<feBlend mode="normal" in="SourceGraphic" in2="effect1_dropShadow_2930_3690" result="shape"/>
</filter>
<filter id="filter1_d_2930_3690" x="0" y="206" width="386" height="289" filterUnits="userSpaceOnUse" color-interpolation-filters="sRGB">
<feFlood flood-opacity="0" result="BackgroundImageFix"/>
<feColorMatrix in="SourceAlpha" type="matrix" values="0 0 0 0 0 0 0 0 0 0 0 0 0 0 0 0 0 0 127 0" result="hardAlpha"/>
<feOffset dy="4"/>
<feGaussianBlur stdDeviation="12.5"/>
<feComposite in2="hardAlpha" operator="out"/>
<feColorMatrix type="matrix" values="0 0 0 0 0 0 0 0 0 0 0 0 0 0 0 0 0 0 0.1 0"/>
<feBlend mode="normal" in2="BackgroundImageFix" result="effect1_dropShadow_2930_3690"/>
<feBlend mode="normal" in="SourceGraphic" in2="effect1_dropShadow_2930_3690" result="shape"/>
</filter>
<clipPath id="clip0_2930_3690">
<rect width="24" height="24" fill="white" transform="translate(43 70)"/>
</clipPath>
<clipPath id="clip1_2930_3690">
<rect width="12" height="12" fill="white" transform="translate(259 428)"/>
</clipPath>
</defs>
</svg>
