<svg width="312" height="273" viewBox="0 0 312 273" fill="none" xmlns="http://www.w3.org/2000/svg">
<path d="M130.028 67H258.4C264.167 67 268.285 67.0033 271.392 67.2881C274.507 67.5736 276.132 68.1126 277.167 68.8477C279.437 70.4606 280.932 72.9474 281.292 75.709C281.456 76.9677 281.17 78.6564 279.961 81.542C278.755 84.4196 276.826 88.057 274.121 93.1494L208.58 216.55C206.349 220.751 205.527 222.218 204.422 223.264C203.369 224.259 202.113 225.015 200.74 225.478C199.299 225.963 197.617 226 192.86 226H62.1748C56.3262 226 52.147 225.997 48.9971 225.708C45.836 225.418 44.1943 224.87 43.1572 224.127C40.8776 222.492 39.3886 219.976 39.0547 217.19C38.9028 215.923 39.2143 214.221 40.4834 211.312C41.748 208.412 43.759 204.748 46.5771 199.623L114.431 76.2236C116.687 72.1201 117.517 70.6873 118.617 69.667C119.665 68.6951 120.91 67.959 122.267 67.5088C123.691 67.0362 125.346 67 130.028 67Z" stroke="white" stroke-width="6"/>
<path d="M111.604 47H244.402C251.939 47 256.767 55.0206 253.239 61.6807L185.965 188.681C184.231 191.953 180.832 194 177.129 194H41.9561C34.3555 194 29.5328 185.856 33.1875 179.191L102.836 52.1914C104.592 48.9899 107.953 47 111.604 47Z" stroke="white" stroke-width="6"/>
</svg>
