<svg width="243" height="162" viewBox="0 0 243 162" fill="none" xmlns="http://www.w3.org/2000/svg">
<path d="M92.0356 1H216.5C222.216 1 226.435 1.0013 229.65 1.2959C232.867 1.59075 234.921 2.16981 236.392 3.21387C239.115 5.14605 240.91 8.12534 241.345 11.4355C241.58 13.2241 241.132 15.3103 239.889 18.292C238.647 21.2714 236.676 25.0019 234.003 30.0557L170.341 150.455C168.179 154.544 167.196 156.378 165.795 157.706C164.532 158.905 163.022 159.813 161.372 160.37C159.543 160.987 157.463 161 152.837 161H26.1255C20.327 161 16.0468 160.999 12.7896 160.7C9.52893 160.401 7.45398 159.814 5.97705 158.756C3.24305 156.798 1.45603 153.783 1.05127 150.444C0.832643 148.641 1.3132 146.538 2.6167 143.534C3.9188 140.534 5.97389 136.779 8.7583 131.692L74.6675 11.292C76.854 7.29772 77.8482 5.50733 79.2427 4.21094C80.5012 3.04099 81.9969 2.15542 83.6274 1.61328C85.4342 1.01264 87.482 1 92.0356 1Z" fill="#FF844F" stroke="white" stroke-width="2"/>
</svg>
