<svg width="312" height="273" viewBox="0 0 312 273" fill="none" xmlns="http://www.w3.org/2000/svg">
<rect x="0.5" y="0.5" width="311" height="272" rx="1.5" stroke="black" stroke-opacity="0.1"/>
<path d="M130.028 65H258.4C264.127 65 268.354 65.0008 271.574 65.2959C274.797 65.5913 276.853 66.172 278.325 67.2178C281.049 69.1532 282.844 72.1365 283.275 75.4502C283.509 77.2408 283.056 79.3296 281.805 82.3145C280.555 85.2966 278.574 89.03 275.888 94.0879L210.347 217.487C208.181 221.564 207.196 223.391 205.797 224.716C204.534 225.911 203.026 226.818 201.378 227.373C199.552 227.988 197.476 228 192.86 228H62.1748C56.3655 228 52.0774 227.999 48.8145 227.7C45.5477 227.401 43.469 226.812 41.9912 225.752C39.2559 223.791 37.4701 220.771 37.0693 217.429C36.8529 215.623 37.3389 213.519 38.6504 210.512C39.9604 207.508 42.0251 203.751 44.8242 198.66L112.679 75.2598C114.868 71.2776 115.863 69.4925 117.257 68.2002C118.515 67.0339 120.009 66.1506 121.637 65.6104C123.441 65.0118 125.484 65 130.028 65Z" fill="#FF844F" stroke="white" stroke-width="2"/>
<path d="M111.604 45H244.402C253.446 45 259.24 54.6251 255.007 62.6172L187.732 189.617C185.652 193.544 181.573 196 177.129 196H41.9561C32.8353 196 27.0489 186.227 31.4346 178.229L101.083 51.2295C103.19 47.388 107.223 45 111.604 45Z" fill="#ACDDEC" fill-opacity="0.59" stroke="white" stroke-width="2"/>
</svg>
