<svg width="14" height="14" viewBox="0 0 14 14" fill="none" xmlns="http://www.w3.org/2000/svg">
<path d="M6.12408 13.4903C5.85764 13.4903 5.62604 13.4124 5.42928 13.2567C5.23252 13.105 5.10545 12.9021 5.04806 12.6479L4.80212 11.6027L4.66685 11.5596L3.763 12.113C3.53345 12.2565 3.29365 12.3098 3.0436 12.2729C2.79766 12.2401 2.58245 12.1294 2.398 11.9409L1.53104 11.08C1.33838 10.8874 1.22565 10.6681 1.19286 10.4221C1.16417 10.1721 1.22155 9.93639 1.36502 9.71504L1.92455 8.81734L1.87536 8.68822L0.842387 8.44227C0.588243 8.38079 0.383288 8.25166 0.227522 8.05491C0.0758556 7.85815 2.22181e-05 7.62655 2.22181e-05 7.36011V6.15498C2.22181e-05 5.88853 0.0758556 5.65693 0.227522 5.46018C0.379189 5.26342 0.584144 5.1343 0.842387 5.07281L1.86921 4.82072L1.9184 4.68545L1.35887 3.78775C1.2195 3.56639 1.16417 3.33275 1.19286 3.0868C1.22565 2.84085 1.33838 2.6195 1.53104 2.42275L2.39185 1.55579C2.58041 1.37133 2.79766 1.2627 3.0436 1.22991C3.28955 1.19302 3.52525 1.24425 3.7507 1.38362L4.65455 1.94315L4.80212 1.88781L5.04806 0.842543C5.10545 0.592498 5.23252 0.389592 5.42928 0.233827C5.62604 0.0780608 5.85764 0.000177938 6.12408 0.000177938H7.3784C7.64484 0.000177938 7.87644 0.0780608 8.0732 0.233827C8.26996 0.385493 8.39703 0.588399 8.45441 0.842543L8.69421 1.88781L8.84178 1.94315L9.75178 1.38362C9.97313 1.24425 10.2068 1.19302 10.4527 1.22991C10.7028 1.2627 10.92 1.37133 11.1045 1.55579L11.9714 2.42275C12.1641 2.6195 12.2748 2.84085 12.3035 3.0868C12.3363 3.33275 12.283 3.56639 12.1436 3.78775L11.5779 4.68545L11.6333 4.82072L12.6601 5.07281C12.9142 5.1343 13.1171 5.26342 13.2688 5.46018C13.4246 5.65693 13.5025 5.88853 13.5025 6.15498V7.36011C13.5025 7.62655 13.4246 7.85815 13.2688 8.05491C13.1171 8.25166 12.9142 8.38079 12.6601 8.44227L11.6271 8.68822L11.5718 8.81734L12.1375 9.71504C12.2768 9.93639 12.3301 10.1721 12.2973 10.4221C12.2686 10.6681 12.16 10.8874 11.9714 11.08L11.1045 11.9409C10.9159 12.1294 10.6966 12.2401 10.4466 12.2729C10.2006 12.3098 9.96698 12.2565 9.74563 12.113L8.83563 11.5596L8.69421 11.6027L8.45441 12.6479C8.39703 12.9021 8.26996 13.105 8.0732 13.2567C7.87644 13.4124 7.64484 13.4903 7.3784 13.4903H6.12408ZM6.32083 12.2606H7.18164C7.28002 12.2606 7.33536 12.2134 7.34766 12.1192L7.71658 10.6127C7.92563 10.5677 8.12239 10.5062 8.30685 10.4283C8.49131 10.3504 8.66552 10.2602 8.82948 10.1577L10.1453 10.9632C10.2232 11.0165 10.297 11.0083 10.3666 10.9386L10.9692 10.3361C11.0348 10.2746 11.0409 10.2028 10.9877 10.1209L10.176 8.80504C10.2703 8.64928 10.3564 8.47712 10.4343 8.28856C10.5122 8.0959 10.5757 7.90119 10.6249 7.70444L12.1375 7.34781C12.2276 7.33142 12.2727 7.27403 12.2727 7.17565V6.33329C12.2727 6.23901 12.2276 6.18367 12.1375 6.16727L10.6249 5.79835C10.5798 5.5934 10.5163 5.39664 10.4343 5.20808C10.3523 5.01543 10.2683 4.84531 10.1822 4.69775L10.9938 3.38193C11.0471 3.29995 11.0409 3.22617 10.9754 3.16058L10.3728 2.56416C10.3031 2.50268 10.2273 2.49448 10.1453 2.53957L8.82948 3.33889C8.66962 3.24462 8.49541 3.15648 8.30685 3.0745C8.12239 2.99252 7.92563 2.92898 7.71658 2.88389L7.34766 1.37133C7.33536 1.27705 7.28002 1.22991 7.18164 1.22991H6.32083C6.22245 1.22991 6.16507 1.27705 6.14867 1.37133L5.79205 2.8716C5.58709 2.92079 5.38214 2.98842 5.17718 3.0745C4.97633 3.15648 4.80417 3.24257 4.6607 3.33275L3.35104 2.53342C3.26905 2.48833 3.19322 2.49858 3.12354 2.56416L2.51482 3.15443C2.45333 3.22002 2.44923 3.29585 2.50252 3.38193L3.31414 4.69775C3.22806 4.84531 3.14403 5.01543 3.06205 5.20808C2.98007 5.39664 2.91653 5.59545 2.87144 5.8045L1.36502 6.16727C1.27484 6.18367 1.22975 6.23901 1.22975 6.33329V7.17565C1.22975 7.27403 1.27484 7.33142 1.36502 7.34781L2.87759 7.70444C2.92268 7.90529 2.98417 8.1 3.06205 8.28856C3.13993 8.47302 3.22601 8.64518 3.32029 8.80504L2.50252 10.1209C2.45743 10.2069 2.46563 10.2807 2.52712 10.3422L3.12968 10.9448C3.20347 11.0145 3.27725 11.0227 3.35104 10.9694L4.673 10.1577C4.83286 10.2602 5.00707 10.3525 5.19563 10.4344C5.38829 10.5123 5.58504 10.5718 5.7859 10.6127L6.14867 12.1192C6.16507 12.2134 6.22245 12.2606 6.32083 12.2606ZM6.75124 9.07558C6.32493 9.07558 5.93552 8.97106 5.583 8.762C5.23047 8.54885 4.94764 8.26601 4.73448 7.91349C4.52543 7.56097 4.4209 7.17155 4.4209 6.74525C4.4209 6.32304 4.52543 5.93567 4.73448 5.58315C4.94764 5.23063 5.23047 4.94984 5.583 4.74079C5.93552 4.53173 6.32493 4.42721 6.75124 4.42721C7.17755 4.42721 7.56696 4.53173 7.91948 4.74079C8.272 4.94984 8.55279 5.23063 8.76185 5.58315C8.9709 5.93567 9.07543 6.32304 9.07543 6.74525C9.07543 7.17155 8.9709 7.56097 8.76185 7.91349C8.55279 8.26601 8.272 8.54885 7.91948 8.762C7.56696 8.97106 7.17755 9.07558 6.75124 9.07558ZM6.75124 7.94423C6.96439 7.94423 7.1591 7.89094 7.33536 7.78437C7.51572 7.67369 7.65919 7.52817 7.76577 7.34781C7.87644 7.16335 7.93178 6.9625 7.93178 6.74525C7.93178 6.52799 7.87644 6.33124 7.76577 6.15498C7.65919 5.97462 7.51572 5.83115 7.33536 5.72457C7.1591 5.61389 6.96439 5.55856 6.75124 5.55856C6.53399 5.55856 6.33518 5.61184 6.15482 5.71842C5.97446 5.825 5.82894 5.96847 5.71827 6.14883C5.61169 6.32919 5.5584 6.52799 5.5584 6.74525C5.5584 6.9666 5.61169 7.16745 5.71827 7.34781C5.82894 7.52817 5.97446 7.67369 6.15482 7.78437C6.33518 7.89094 6.53399 7.94423 6.75124 7.94423Z" fill="black"/>
</svg>
