<svg width="14" height="11" viewBox="0 0 14 11" fill="none" xmlns="http://www.w3.org/2000/svg">
<path d="M1.96796 10.955C1.32549 10.955 0.8359 10.7886 0.499184 10.4558C0.16634 10.1268 -8.29119e-05 9.64494 -8.29119e-05 9.01021V1.93339C-8.29119e-05 1.30253 0.160534 0.822616 0.481768 0.493642C0.803002 0.164667 1.24809 0.000179861 1.81702 0.000179861H3.44835C3.65734 0.000179861 3.83731 0.015661 3.98825 0.0466233C4.14306 0.0737154 4.28239 0.120159 4.40624 0.185954C4.53396 0.251749 4.66942 0.340765 4.81262 0.453004L5.12612 0.708443C5.29641 0.843903 5.45703 0.94066 5.60797 0.998715C5.75891 1.0529 5.94275 1.07999 6.15948 1.07999H11.4308C12.0694 1.07999 12.5551 1.24641 12.888 1.57926C13.2247 1.9121 13.3931 2.39589 13.3931 3.03062V9.01021C13.3931 9.64494 13.2305 10.1268 12.9054 10.4558C12.5842 10.7886 12.1333 10.955 11.5527 10.955H1.96796ZM2.07246 9.66623H11.3205C11.5721 9.66623 11.7656 9.60237 11.9011 9.47465C12.0365 9.34306 12.1042 9.14374 12.1042 8.87669V3.16995C12.1042 2.89903 12.0365 2.69971 11.9011 2.57199C11.7656 2.4404 11.5721 2.3746 11.3205 2.3746H5.81116C5.60216 2.3746 5.42026 2.36106 5.26545 2.33396C5.11451 2.303 4.97324 2.25462 4.84165 2.18883C4.71393 2.12303 4.58041 2.03402 4.44107 1.92178L4.12758 1.66634C3.95729 1.52701 3.79667 1.43025 3.64573 1.37607C3.49866 1.31801 3.31869 1.28899 3.10582 1.28899H2.06665C1.81895 1.28899 1.62737 1.35672 1.49191 1.49218C1.35645 1.62377 1.28872 1.81341 1.28872 2.06111V8.87669C1.28872 9.14374 1.35452 9.34306 1.48611 9.47465C1.62157 9.60237 1.81702 9.66623 2.07246 9.66623ZM0.818483 4.60969V3.51247H12.5919V4.60969H0.818483Z" fill="black"/>
</svg>
