<svg width="16" height="16" viewBox="0 0 16 16" fill="none" xmlns="http://www.w3.org/2000/svg">
<path d="M11.8768 12.7858L7.25495 8.27481C7.181 8.20579 7.12923 8.13431 7.09965 8.06036C7.07007 7.98641 7.05528 7.89767 7.05528 7.79414V1.16823H8.23848V6.88455L13.0896 4.10404L13.6886 5.13194L8.71916 7.97162L12.7716 11.9575L11.8768 12.7858ZM7.63949 15.2779C6.59433 15.2779 5.61079 15.0782 4.68889 14.6789C3.76698 14.2845 2.95353 13.7348 2.24854 13.0298C1.54848 12.3248 0.998785 11.5114 0.599456 10.5894C0.200126 9.66754 0.000461264 8.684 0.000461264 7.63884C0.000461264 6.59368 0.200126 5.61015 0.599456 4.68824C0.998785 3.76633 1.54848 2.95535 2.24854 2.25529C2.95353 1.5503 3.76451 0.998141 4.68149 0.598812C5.6034 0.199482 6.58693 -0.000182474 7.63209 -0.000182474C8.68218 -0.000182474 9.66818 0.199482 10.5901 0.598812C11.512 0.998141 12.3254 1.5503 13.0304 2.25529C13.7354 2.95535 14.2876 3.76633 14.6869 4.68824C15.0862 5.61015 15.2859 6.59368 15.2859 7.63884C15.2859 8.684 15.0862 9.66754 14.6869 10.5894C14.2876 11.5114 13.7354 12.3248 13.0304 13.0298C12.3254 13.7348 11.512 14.2845 10.5901 14.6789C9.66818 15.0782 8.68465 15.2779 7.63949 15.2779ZM7.63949 13.7693C8.49238 13.7693 9.28857 13.6115 10.0281 13.296C10.7676 12.9805 11.4183 12.5417 11.9803 11.9797C12.5424 11.4177 12.9811 10.7669 13.2967 10.0274C13.6122 9.28793 13.7699 8.49173 13.7699 7.63884C13.7699 6.79088 13.6122 5.99716 13.2967 5.25766C12.9811 4.51323 12.5424 3.86 11.9803 3.29798C11.4183 2.73596 10.7651 2.29719 10.0207 1.98168C9.28118 1.66616 8.48498 1.5084 7.63209 1.5084C6.78413 1.5084 5.98794 1.66616 5.24351 1.98168C4.50401 2.29719 3.85572 2.73596 3.29863 3.29798C2.74154 3.86 2.30523 4.51323 1.98971 5.25766C1.67419 5.99716 1.51643 6.79088 1.51643 7.63884C1.51643 8.49173 1.67419 9.28793 1.98971 10.0274C2.30523 10.7669 2.74154 11.4177 3.29863 11.9797C3.86065 12.5417 4.51141 12.9805 5.25091 13.296C5.99533 13.6115 6.79153 13.7693 7.63949 13.7693Z" fill="#70D2F0"/>
</svg>
