<svg width="18" height="18" viewBox="0 0 18 18" fill="none" xmlns="http://www.w3.org/2000/svg">
<path d="M6.74609 10.6812H11.2434" stroke="#70D2F0" stroke-width="1.34919" stroke-linecap="round" stroke-linejoin="round"/>
<path d="M6.74609 8.43262H11.2434" stroke="#70D2F0" stroke-width="1.34919" stroke-linecap="round" stroke-linejoin="round"/>
<path d="M11.2435 2.81104H14.0541C14.2032 2.81104 14.3462 2.87026 14.4516 2.97569C14.5571 3.08111 14.6163 3.2241 14.6163 3.3732V15.1786C14.6163 15.3277 14.5571 15.4707 14.4516 15.5761C14.3462 15.6815 14.2032 15.7408 14.0541 15.7408H3.93521C3.78611 15.7408 3.64313 15.6815 3.5377 15.5761C3.43227 15.4707 3.37305 15.3277 3.37305 15.1786V3.3732C3.37305 3.2241 3.43227 3.08111 3.5377 2.97569C3.64313 2.87026 3.78611 2.81104 3.93521 2.81104H6.74587" stroke="#70D2F0" stroke-width="1.34919" stroke-linecap="round" stroke-linejoin="round"/>
<path d="M6.18359 5.0595V4.49733C6.18359 3.75186 6.47973 3.03692 7.00686 2.50979C7.53399 1.98266 8.24893 1.68652 8.9944 1.68652C9.73988 1.68652 10.4548 1.98266 10.9819 2.50979C11.5091 3.03692 11.8052 3.75186 11.8052 4.49733V5.0595H6.18359Z" stroke="#70D2F0" stroke-width="1.34919" stroke-linecap="round" stroke-linejoin="round"/>
</svg>
