<svg width="24" height="24" viewBox="0 0 24 24" fill="none" xmlns="http://www.w3.org/2000/svg">
<g clip-path="url(#clip0_2569_2184)">
<path d="M7.46973 5.7998H16.5303C18.1237 5.80003 19.4746 6.96943 19.6982 8.54297L20.7881 16.2031C20.939 17.2595 20.1247 18.2002 19.0498 18.2002C18.5941 18.2002 18.1469 18.016 17.8154 17.6846L15.3311 15.2002H8.66992L8.43555 15.4326L6.17578 17.6826L6.17383 17.6846C5.84122 18.017 5.40341 18.2002 4.93945 18.2002C3.94346 18.2 3.16357 17.3754 3.19434 16.4004L3.21191 16.2031L4.30176 8.54297C4.52542 6.96931 5.87614 5.79985 7.46973 5.7998ZM7.46973 6.2002C6.08077 6.20024 4.89908 7.23228 4.68945 8.58789L4.6875 8.59766L3.59766 16.2568C3.52578 16.76 3.73104 17.1271 3.92188 17.3418C4.10121 17.5435 4.43268 17.7997 4.93945 17.7998C5.30249 17.7998 5.64609 17.6547 5.89551 17.4053L8.50098 14.7998H15.498L18.1045 17.4053C18.3538 17.6546 18.6966 17.7997 19.0596 17.7998C19.5667 17.7998 19.8988 17.5436 20.0781 17.3418L20.0947 17.3223L20.1113 17.3008C20.2347 17.1421 20.4137 16.8487 20.4062 16.4424L20.3906 16.2617L19.3018 8.60742V8.60645C19.1055 7.23425 17.9196 6.20042 16.5303 6.2002H7.46973Z" fill="white" stroke="white" stroke-width="1.6"/>
<mask id="path-2-inside-1_2569_2184" fill="white">
<path d="M9 8H8V10H6V11H8V13H9V11H11V10H9V8Z"/>
</mask>
<path d="M9 8H8V10H6V11H8V13H9V11H11V10H9V8Z" fill="white"/>
<path d="M9 8H10.6V6.4H9V8ZM8 8V6.4H6.4V8H8ZM8 10V11.6H9.6V10H8ZM6 10V8.4H4.4V10H6ZM6 11H4.4V12.6H6V11ZM8 11H9.6V9.4H8V11ZM8 13H6.4V14.6H8V13ZM9 13V14.6H10.6V13H9ZM9 11V9.4H7.4V11H9ZM11 11V12.6H12.6V11H11ZM11 10H12.6V8.4H11V10ZM9 10H7.4V11.6H9V10ZM9 8V6.4H8V8V9.6H9V8ZM8 8H6.4V10H8H9.6V8H8ZM8 10V8.4H6V10V11.6H8V10ZM6 10H4.4V11H6H7.6V10H6ZM6 11V12.6H8V11V9.4H6V11ZM8 11H6.4V13H8H9.6V11H8ZM8 13V14.6H9V13V11.4H8V13ZM9 13H10.6V11H9H7.4V13H9ZM9 11V12.6H11V11V9.4H9V11ZM11 11H12.6V10H11H9.4V11H11ZM11 10V8.4H9V10V11.6H11V10ZM9 10H10.6V8H9H7.4V10H9Z" fill="white" mask="url(#path-2-inside-1_2569_2184)"/>
<path d="M17 13C17.5523 13 18 12.5523 18 12C18 11.4477 17.5523 11 17 11C16.4477 11 16 11.4477 16 12C16 12.5523 16.4477 13 17 13Z" fill="white"/>
<path d="M15 10C15.5523 10 16 9.55228 16 9C16 8.44772 15.5523 8 15 8C14.4477 8 14 8.44772 14 9C14 9.55228 14.4477 10 15 10Z" fill="white"/>
</g>
<defs>
<clipPath id="clip0_2569_2184">
<rect width="24" height="24" fill="white"/>
</clipPath>
</defs>
</svg>
