<svg width="17" height="17" viewBox="0 0 17 17" fill="none" xmlns="http://www.w3.org/2000/svg">
<g clip-path="url(#clip0_2569_2204)">
<path d="M2.83366 4.24984H1.41699V14.1665C1.41699 14.9457 2.05449 15.5832 2.83366 15.5832H12.7503V14.1665H2.83366V4.24984ZM14.167 1.4165H5.66699C4.88783 1.4165 4.25033 2.054 4.25033 2.83317V11.3332C4.25033 12.1123 4.88783 12.7498 5.66699 12.7498H14.167C14.9462 12.7498 15.5837 12.1123 15.5837 11.3332V2.83317C15.5837 2.054 14.9462 1.4165 14.167 1.4165ZM14.167 11.3332H5.66699V2.83317H14.167V11.3332ZM8.50033 3.89567V10.2707L12.7503 7.08317L8.50033 3.89567Z" fill="white"/>
</g>
<defs>
<clipPath id="clip0_2569_2204">
<rect width="17" height="17" fill="white"/>
</clipPath>
</defs>
</svg>
