<svg width="17" height="17" viewBox="0 0 17 17" fill="none" xmlns="http://www.w3.org/2000/svg">
<path d="M13.4587 11.3332V9.9165C13.4587 7.91305 13.4587 6.9113 12.8362 6.2889C12.2138 5.6665 11.2121 5.6665 9.20866 5.6665H7.79199C5.78852 5.6665 4.78679 5.6665 4.16439 6.2889C3.54199 6.9113 3.54199 7.91305 3.54199 9.9165V11.3332C3.54199 13.3366 3.54199 14.3383 4.16439 14.9608C4.78679 15.5832 5.78852 15.5832 7.79199 15.5832H9.20866C11.2121 15.5832 12.2138 15.5832 12.8362 14.9608C13.4587 14.3383 13.4587 13.3366 13.4587 11.3332Z" stroke="white" stroke-width="1.5" stroke-linejoin="round"/>
<path d="M13.458 12.75C14.4597 12.75 14.9606 12.75 15.2718 12.4388C15.583 12.1276 15.583 11.6267 15.583 10.625C15.583 9.62328 15.583 9.12241 15.2718 8.81117C14.9606 8.5 14.4597 8.5 13.458 8.5" stroke="white" stroke-width="1.5" stroke-linejoin="round"/>
<path d="M3.54199 12.75C2.54026 12.75 2.03939 12.75 1.72819 12.4388C1.41699 12.1276 1.41699 11.6267 1.41699 10.625C1.41699 9.62328 1.41699 9.12241 1.72819 8.81117C2.03939 8.5 2.54026 8.5 3.54199 8.5" stroke="white" stroke-width="1.5" stroke-linejoin="round"/>
<path d="M9.5625 2.479C9.5625 3.06581 9.08678 3.5415 8.5 3.5415C7.91322 3.5415 7.4375 3.06581 7.4375 2.479C7.4375 1.8922 7.91322 1.4165 8.5 1.4165C9.08678 1.4165 9.5625 1.8922 9.5625 2.479Z" stroke="white" stroke-width="1.5"/>
<path d="M8.5 3.5415V5.6665" stroke="white" stroke-width="1.5" stroke-linecap="round" stroke-linejoin="round"/>
<path d="M6.375 9.2085V9.91683" stroke="white" stroke-width="1.5" stroke-linecap="round" stroke-linejoin="round"/>
<path d="M10.625 9.2085V9.91683" stroke="white" stroke-width="1.5" stroke-linecap="round" stroke-linejoin="round"/>
<path d="M7.08301 12.396C7.08301 12.396 7.55525 12.7502 8.49967 12.7502C9.4441 12.7502 9.91634 12.396 9.91634 12.396" stroke="white" stroke-width="1.5" stroke-linecap="round"/>
</svg>
