<svg width="482" height="929" viewBox="0 0 482 929" fill="none" xmlns="http://www.w3.org/2000/svg">
<g filter="url(#filter0_d_2922_3270)">
<g clip-path="url(#clip0_2922_3270)">
<rect x="25" y="21" width="432" height="879" rx="10" fill="#FBFBFB"/>
<circle cx="78" cy="87" r="20" fill="#FFC4AC"/>
<path d="M78.088 96V81.096L78.544 81.288C78.336 81.736 77.976 82.176 77.464 82.608C76.952 83.04 76.36 83.416 75.688 83.736C75.016 84.04 74.304 84.256 73.552 84.384V81.936C74.256 81.824 74.944 81.616 75.616 81.312C76.288 80.992 76.888 80.608 77.416 80.16C77.944 79.696 78.336 79.216 78.592 78.72H80.56V96H78.088Z" fill="black"/>
<rect x="38" y="778" width="364" height="108" rx="9" fill="white" stroke="#C6C6C6" stroke-width="2"/>
<path d="M72.25 816H67.7614V801.455H72.4489C73.8598 801.455 75.0672 801.746 76.071 802.328C77.0748 802.906 77.8442 803.737 78.3793 804.821C78.9143 805.901 79.1818 807.193 79.1818 808.699C79.1818 810.214 78.9119 811.518 78.3722 812.612C77.8324 813.701 77.0464 814.539 76.0142 815.126C74.982 815.709 73.7273 816 72.25 816ZM69.5227 814.438H72.1364C73.339 814.438 74.3357 814.205 75.1264 813.741C75.9171 813.277 76.5066 812.617 76.8949 811.76C77.2831 810.903 77.4773 809.883 77.4773 808.699C77.4773 807.525 77.2855 806.514 76.902 805.666C76.5185 804.814 75.9455 804.161 75.1832 803.706C74.4209 803.247 73.4716 803.017 72.3352 803.017H69.5227V814.438ZM86.483 816.227C85.4318 816.227 84.5251 815.995 83.7628 815.531C83.0052 815.062 82.4205 814.409 82.0085 813.571C81.6013 812.728 81.3977 811.748 81.3977 810.631C81.3977 809.513 81.6013 808.528 82.0085 807.676C82.4205 806.819 82.9934 806.152 83.7273 805.673C84.4659 805.19 85.3277 804.949 86.3125 804.949C86.8807 804.949 87.4418 805.044 87.9957 805.233C88.5497 805.422 89.054 805.73 89.5085 806.156C89.9631 806.578 90.3253 807.136 90.5952 807.832C90.8651 808.528 91 809.385 91 810.403V811.114H82.5909V809.665H89.2955C89.2955 809.049 89.1723 808.5 88.9261 808.017C88.6847 807.534 88.339 807.153 87.8892 806.874C87.4441 806.594 86.9186 806.455 86.3125 806.455C85.6449 806.455 85.0672 806.62 84.5795 806.952C84.0966 807.278 83.7249 807.705 83.4645 808.23C83.2041 808.756 83.0739 809.319 83.0739 809.92V810.886C83.0739 811.71 83.2159 812.409 83.5 812.982C83.7888 813.55 84.1889 813.983 84.7003 814.281C85.2116 814.575 85.8059 814.722 86.483 814.722C86.9233 814.722 87.321 814.66 87.6761 814.537C88.036 814.409 88.3461 814.22 88.6065 813.969C88.867 813.713 89.0682 813.396 89.2102 813.017L90.8295 813.472C90.6591 814.021 90.3726 814.504 89.9702 814.92C89.5677 815.332 89.0705 815.654 88.4787 815.886C87.8868 816.114 87.2216 816.227 86.483 816.227ZM101.277 807.534L99.7713 807.96C99.6766 807.709 99.5369 807.465 99.3523 807.229C99.1723 806.987 98.9261 806.788 98.6136 806.632C98.3011 806.476 97.901 806.398 97.4134 806.398C96.7457 806.398 96.1894 806.552 95.7443 806.859C95.304 807.162 95.0838 807.548 95.0838 808.017C95.0838 808.434 95.2353 808.763 95.5384 809.004C95.8414 809.246 96.3149 809.447 96.9588 809.608L98.5781 810.006C99.5535 810.242 100.28 810.605 100.759 811.092C101.237 811.575 101.476 812.198 101.476 812.96C101.476 813.585 101.296 814.144 100.936 814.636C100.581 815.129 100.084 815.517 99.4446 815.801C98.8054 816.085 98.062 816.227 97.2145 816.227C96.1018 816.227 95.1809 815.986 94.4517 815.503C93.7225 815.02 93.2609 814.314 93.0668 813.386L94.6577 812.989C94.8092 813.576 95.0956 814.016 95.517 814.31C95.9432 814.603 96.4995 814.75 97.1861 814.75C97.9673 814.75 98.5876 814.584 99.0469 814.253C99.5109 813.917 99.7429 813.514 99.7429 813.045C99.7429 812.667 99.6103 812.349 99.3452 812.094C99.08 811.833 98.6728 811.639 98.1236 811.511L96.3054 811.085C95.3063 810.848 94.5724 810.482 94.1037 809.984C93.6397 809.482 93.4077 808.855 93.4077 808.102C93.4077 807.487 93.5805 806.942 93.9261 806.469C94.2765 805.995 94.7524 805.624 95.3537 805.354C95.9598 805.084 96.6463 804.949 97.4134 804.949C98.4929 804.949 99.3404 805.186 99.956 805.659C100.576 806.133 101.017 806.758 101.277 807.534ZM108.431 816.227C107.408 816.227 106.527 815.986 105.789 815.503C105.05 815.02 104.482 814.355 104.084 813.507C103.686 812.66 103.488 811.691 103.488 810.602C103.488 809.494 103.691 808.517 104.098 807.669C104.51 806.817 105.083 806.152 105.817 805.673C106.556 805.19 107.417 804.949 108.402 804.949C109.169 804.949 109.861 805.091 110.476 805.375C111.092 805.659 111.596 806.057 111.989 806.568C112.382 807.08 112.626 807.676 112.721 808.358H111.044C110.917 807.861 110.632 807.42 110.192 807.037C109.757 806.649 109.169 806.455 108.431 806.455C107.777 806.455 107.204 806.625 106.712 806.966C106.224 807.302 105.843 807.778 105.569 808.393C105.299 809.004 105.164 809.722 105.164 810.545C105.164 811.388 105.296 812.122 105.561 812.747C105.831 813.372 106.21 813.857 106.698 814.203C107.19 814.549 107.768 814.722 108.431 814.722C108.866 814.722 109.262 814.646 109.617 814.494C109.972 814.343 110.273 814.125 110.519 813.841C110.765 813.557 110.94 813.216 111.044 812.818H112.721C112.626 813.462 112.391 814.042 112.017 814.558C111.648 815.07 111.158 815.477 110.547 815.78C109.941 816.078 109.236 816.227 108.431 816.227ZM115.171 816V805.091H116.79V806.739H116.904C117.103 806.199 117.462 805.761 117.983 805.425C118.504 805.089 119.091 804.92 119.745 804.92C119.868 804.92 120.022 804.923 120.206 804.928C120.391 804.932 120.531 804.939 120.625 804.949V806.653C120.569 806.639 120.438 806.618 120.235 806.589C120.036 806.556 119.825 806.54 119.603 806.54C119.072 806.54 118.599 806.651 118.182 806.874C117.77 807.091 117.444 807.394 117.202 807.783C116.965 808.166 116.847 808.604 116.847 809.097V816H115.171ZM122.612 816V805.091H124.288V816H122.612ZM123.464 803.273C123.138 803.273 122.856 803.161 122.619 802.939C122.387 802.716 122.271 802.449 122.271 802.136C122.271 801.824 122.387 801.556 122.619 801.334C122.856 801.111 123.138 801 123.464 801C123.791 801 124.071 801.111 124.303 801.334C124.539 801.556 124.658 801.824 124.658 802.136C124.658 802.449 124.539 802.716 124.303 802.939C124.071 803.161 123.791 803.273 123.464 803.273ZM127.586 816V801.455H129.262V806.824H129.404C129.527 806.634 129.697 806.393 129.915 806.099C130.138 805.801 130.455 805.536 130.867 805.304C131.283 805.067 131.847 804.949 132.557 804.949C133.476 804.949 134.285 805.179 134.986 805.638C135.687 806.097 136.234 806.748 136.627 807.591C137.02 808.434 137.216 809.428 137.216 810.574C137.216 811.729 137.02 812.731 136.627 813.578C136.234 814.421 135.689 815.074 134.993 815.538C134.297 815.998 133.495 816.227 132.586 816.227C131.885 816.227 131.324 816.111 130.902 815.879C130.481 815.643 130.157 815.375 129.929 815.077C129.702 814.774 129.527 814.523 129.404 814.324H129.205V816H127.586ZM129.233 810.545C129.233 811.369 129.354 812.096 129.596 812.726C129.837 813.351 130.19 813.841 130.654 814.196C131.118 814.546 131.686 814.722 132.358 814.722C133.059 814.722 133.644 814.537 134.113 814.168C134.586 813.794 134.941 813.292 135.178 812.662C135.419 812.027 135.54 811.322 135.54 810.545C135.54 809.778 135.422 809.087 135.185 808.472C134.953 807.851 134.6 807.361 134.127 807.001C133.658 806.637 133.069 806.455 132.358 806.455C131.676 806.455 131.104 806.627 130.64 806.973C130.176 807.314 129.825 807.792 129.588 808.408C129.352 809.018 129.233 809.731 129.233 810.545ZM144.354 816.227C143.303 816.227 142.396 815.995 141.634 815.531C140.876 815.062 140.292 814.409 139.88 813.571C139.472 812.728 139.269 811.748 139.269 810.631C139.269 809.513 139.472 808.528 139.88 807.676C140.292 806.819 140.864 806.152 141.598 805.673C142.337 805.19 143.199 804.949 144.184 804.949C144.752 804.949 145.313 805.044 145.867 805.233C146.421 805.422 146.925 805.73 147.38 806.156C147.834 806.578 148.196 807.136 148.466 807.832C148.736 808.528 148.871 809.385 148.871 810.403V811.114H140.462V809.665H147.167C147.167 809.049 147.043 808.5 146.797 808.017C146.556 807.534 146.21 807.153 145.76 806.874C145.315 806.594 144.79 806.455 144.184 806.455C143.516 806.455 142.938 806.62 142.451 806.952C141.968 807.278 141.596 807.705 141.336 808.23C141.075 808.756 140.945 809.319 140.945 809.92V810.886C140.945 811.71 141.087 812.409 141.371 812.982C141.66 813.55 142.06 813.983 142.571 814.281C143.083 814.575 143.677 814.722 144.354 814.722C144.794 814.722 145.192 814.66 145.547 814.537C145.907 814.409 146.217 814.22 146.478 813.969C146.738 813.713 146.939 813.396 147.081 813.017L148.701 813.472C148.53 814.021 148.244 814.504 147.841 814.92C147.439 815.332 146.942 815.654 146.35 815.886C145.758 816.114 145.093 816.227 144.354 816.227ZM158.125 820.091C157.841 820.091 157.588 820.067 157.365 820.02C157.143 819.977 156.989 819.935 156.904 819.892L157.33 818.415C157.737 818.519 158.097 818.557 158.409 818.528C158.722 818.5 158.999 818.36 159.24 818.109C159.487 817.863 159.712 817.463 159.915 816.909L160.228 816.057L156.194 805.091H158.012L161.023 813.784H161.137L164.148 805.091H165.966L161.336 817.591C161.127 818.154 160.869 818.621 160.561 818.99C160.254 819.364 159.896 819.641 159.489 819.821C159.087 820.001 158.632 820.091 158.125 820.091ZM172.22 816.227C171.235 816.227 170.371 815.993 169.627 815.524C168.889 815.055 168.311 814.4 167.895 813.557C167.483 812.714 167.277 811.729 167.277 810.602C167.277 809.466 167.483 808.474 167.895 807.626C168.311 806.779 168.889 806.121 169.627 805.652C170.371 805.183 171.235 804.949 172.22 804.949C173.205 804.949 174.066 805.183 174.805 805.652C175.548 806.121 176.126 806.779 176.538 807.626C176.955 808.474 177.163 809.466 177.163 810.602C177.163 811.729 176.955 812.714 176.538 813.557C176.126 814.4 175.548 815.055 174.805 815.524C174.066 815.993 173.205 816.227 172.22 816.227ZM172.22 814.722C172.968 814.722 173.583 814.53 174.066 814.146C174.549 813.763 174.907 813.259 175.139 812.634C175.371 812.009 175.487 811.331 175.487 810.602C175.487 809.873 175.371 809.194 175.139 808.564C174.907 807.934 174.549 807.425 174.066 807.037C173.583 806.649 172.968 806.455 172.22 806.455C171.472 806.455 170.856 806.649 170.373 807.037C169.89 807.425 169.533 807.934 169.301 808.564C169.069 809.194 168.953 809.873 168.953 810.602C168.953 811.331 169.069 812.009 169.301 812.634C169.533 813.259 169.89 813.763 170.373 814.146C170.856 814.53 171.472 814.722 172.22 814.722ZM186.597 811.54V805.091H188.273V816H186.597V814.153H186.483C186.227 814.707 185.83 815.179 185.29 815.567C184.75 815.95 184.068 816.142 183.244 816.142C182.562 816.142 181.956 815.993 181.426 815.695C180.896 815.392 180.479 814.937 180.176 814.331C179.873 813.72 179.722 812.951 179.722 812.023V805.091H181.398V811.909C181.398 812.705 181.62 813.339 182.065 813.812C182.515 814.286 183.088 814.523 183.784 814.523C184.201 814.523 184.625 814.416 185.055 814.203C185.491 813.99 185.856 813.663 186.149 813.223C186.447 812.783 186.597 812.222 186.597 811.54ZM191.343 816V805.091H192.962V806.739H193.076C193.275 806.199 193.634 805.761 194.155 805.425C194.676 805.089 195.263 804.92 195.917 804.92C196.04 804.92 196.194 804.923 196.378 804.928C196.563 804.932 196.703 804.939 196.797 804.949V806.653C196.74 806.639 196.61 806.618 196.407 806.589C196.208 806.556 195.997 806.54 195.775 806.54C195.244 806.54 194.771 806.651 194.354 806.874C193.942 807.091 193.615 807.394 193.374 807.783C193.137 808.166 193.019 808.604 193.019 809.097V816H191.343ZM204.409 816V805.091H206.085V816H204.409ZM205.261 803.273C204.935 803.273 204.653 803.161 204.416 802.939C204.184 802.716 204.068 802.449 204.068 802.136C204.068 801.824 204.184 801.556 204.416 801.334C204.653 801.111 204.935 801 205.261 801C205.588 801 205.867 801.111 206.099 801.334C206.336 801.556 206.455 801.824 206.455 802.136C206.455 802.449 206.336 802.716 206.099 802.939C205.867 803.161 205.588 803.273 205.261 803.273ZM213.275 816.227C212.365 816.227 211.563 815.998 210.867 815.538C210.171 815.074 209.626 814.421 209.233 813.578C208.84 812.731 208.644 811.729 208.644 810.574C208.644 809.428 208.84 808.434 209.233 807.591C209.626 806.748 210.173 806.097 210.874 805.638C211.575 805.179 212.384 804.949 213.303 804.949C214.013 804.949 214.574 805.067 214.986 805.304C215.403 805.536 215.72 805.801 215.938 806.099C216.16 806.393 216.333 806.634 216.456 806.824H216.598V801.455H218.275V816H216.655V814.324H216.456C216.333 814.523 216.158 814.774 215.931 815.077C215.703 815.375 215.379 815.643 214.958 815.879C214.536 816.111 213.975 816.227 213.275 816.227ZM213.502 814.722C214.174 814.722 214.742 814.546 215.206 814.196C215.67 813.841 216.023 813.351 216.265 812.726C216.506 812.096 216.627 811.369 216.627 810.545C216.627 809.731 216.508 809.018 216.272 808.408C216.035 807.792 215.685 807.314 215.221 806.973C214.757 806.627 214.184 806.455 213.502 806.455C212.792 806.455 212.2 806.637 211.726 807.001C211.257 807.361 210.905 807.851 210.668 808.472C210.436 809.087 210.32 809.778 210.32 810.545C210.32 811.322 210.438 812.027 210.675 812.662C210.917 813.292 211.272 813.794 211.74 814.168C212.214 814.537 212.801 814.722 213.502 814.722ZM226.151 816.227C225.1 816.227 224.193 815.995 223.431 815.531C222.673 815.062 222.088 814.409 221.676 813.571C221.269 812.728 221.066 811.748 221.066 810.631C221.066 809.513 221.269 808.528 221.676 807.676C222.088 806.819 222.661 806.152 223.395 805.673C224.134 805.19 224.996 804.949 225.98 804.949C226.549 804.949 227.11 805.044 227.664 805.233C228.218 805.422 228.722 805.73 229.176 806.156C229.631 806.578 229.993 807.136 230.263 807.832C230.533 808.528 230.668 809.385 230.668 810.403V811.114H222.259V809.665H228.963C228.963 809.049 228.84 808.5 228.594 808.017C228.353 807.534 228.007 807.153 227.557 806.874C227.112 806.594 226.587 806.455 225.98 806.455C225.313 806.455 224.735 806.62 224.248 806.952C223.765 807.278 223.393 807.705 223.132 808.23C222.872 808.756 222.742 809.319 222.742 809.92V810.886C222.742 811.71 222.884 812.409 223.168 812.982C223.457 813.55 223.857 813.983 224.368 814.281C224.88 814.575 225.474 814.722 226.151 814.722C226.591 814.722 226.989 814.66 227.344 814.537C227.704 814.409 228.014 814.22 228.275 813.969C228.535 813.713 228.736 813.396 228.878 813.017L230.498 813.472C230.327 814.021 230.041 814.504 229.638 814.92C229.236 815.332 228.739 815.654 228.147 815.886C227.555 816.114 226.89 816.227 226.151 816.227ZM236.428 816.256C235.737 816.256 235.109 816.125 234.546 815.865C233.982 815.6 233.535 815.219 233.203 814.722C232.872 814.22 232.706 813.614 232.706 812.903C232.706 812.278 232.829 811.772 233.076 811.384C233.322 810.991 233.651 810.683 234.063 810.46C234.475 810.238 234.929 810.072 235.426 809.963C235.928 809.849 236.433 809.759 236.939 809.693C237.602 809.608 238.14 809.544 238.551 809.501C238.968 809.454 239.271 809.376 239.461 809.267C239.655 809.158 239.752 808.969 239.752 808.699V808.642C239.752 807.941 239.56 807.397 239.176 807.009C238.798 806.62 238.222 806.426 237.451 806.426C236.65 806.426 236.023 806.601 235.569 806.952C235.114 807.302 234.794 807.676 234.61 808.074L233.019 807.506C233.303 806.843 233.682 806.327 234.155 805.957C234.633 805.583 235.154 805.323 235.718 805.176C236.286 805.025 236.845 804.949 237.394 804.949C237.744 804.949 238.147 804.991 238.601 805.077C239.06 805.157 239.503 805.325 239.929 805.581C240.36 805.837 240.718 806.223 241.002 806.739C241.286 807.255 241.428 807.946 241.428 808.812V816H239.752V814.523H239.667C239.553 814.759 239.364 815.013 239.098 815.283C238.833 815.553 238.48 815.782 238.04 815.972C237.6 816.161 237.062 816.256 236.428 816.256ZM236.684 814.75C237.346 814.75 237.905 814.62 238.36 814.359C238.819 814.099 239.165 813.763 239.397 813.351C239.633 812.939 239.752 812.506 239.752 812.051V810.517C239.681 810.602 239.525 810.68 239.283 810.751C239.046 810.818 238.772 810.877 238.459 810.929C238.151 810.976 237.851 811.019 237.557 811.057C237.268 811.09 237.034 811.118 236.854 811.142C236.418 811.199 236.011 811.291 235.632 811.419C235.258 811.542 234.955 811.729 234.723 811.98C234.496 812.226 234.382 812.562 234.382 812.989C234.382 813.571 234.598 814.011 235.029 814.31C235.464 814.603 236.016 814.75 236.684 814.75Z" fill="#989898"/>
<line x1="313.5" y1="845" x2="313.5" y2="876" stroke="#C6C6C6"/>
<path d="M74.7605 859.669L66.7192 867.71C65.7341 868.695 64.398 869.249 63.0049 869.249C61.6117 869.249 60.2756 868.695 59.2905 867.71C58.3054 866.725 57.752 865.389 57.752 863.996C57.752 862.603 58.3054 861.266 59.2905 860.281L67.3317 852.24C67.9885 851.583 68.8792 851.214 69.808 851.214C70.7368 851.214 71.6275 851.583 72.2842 852.24C72.941 852.897 73.3099 853.788 73.3099 854.716C73.3099 855.645 72.941 856.536 72.2842 857.193L64.2342 865.234C63.9059 865.562 63.4605 865.747 62.9961 865.747C62.5317 865.747 62.0864 865.562 61.758 865.234C61.4296 864.905 61.2451 864.46 61.2451 863.996C61.2451 863.531 61.4296 863.086 61.758 862.758L69.1867 855.338" stroke="#1E1E1E" stroke-width="2.1" stroke-linecap="round" stroke-linejoin="round"/>
<path d="M98.108 858.29H95.983C95.9223 857.941 95.8106 857.633 95.6477 857.364C95.4848 857.091 95.2822 856.86 95.0398 856.67C94.7973 856.481 94.5208 856.339 94.2102 856.244C93.9034 856.146 93.572 856.097 93.2159 856.097C92.5833 856.097 92.0227 856.256 91.5341 856.574C91.0455 856.888 90.6629 857.35 90.3864 857.96C90.1098 858.566 89.9716 859.307 89.9716 860.182C89.9716 861.072 90.1098 861.822 90.3864 862.432C90.6667 863.038 91.0492 863.496 91.5341 863.807C92.0227 864.114 92.5814 864.267 93.2102 864.267C93.5587 864.267 93.8845 864.222 94.1875 864.131C94.4943 864.036 94.7689 863.898 95.0114 863.716C95.2576 863.534 95.464 863.311 95.6307 863.045C95.8011 862.78 95.9186 862.477 95.983 862.136L98.108 862.148C98.0284 862.701 97.8561 863.22 97.5909 863.705C97.3295 864.189 96.9867 864.617 96.5625 864.989C96.1383 865.356 95.642 865.644 95.0739 865.852C94.5057 866.057 93.875 866.159 93.1818 866.159C92.1591 866.159 91.2462 865.922 90.4432 865.449C89.6402 864.975 89.0076 864.292 88.5455 863.398C88.0833 862.504 87.8523 861.432 87.8523 860.182C87.8523 858.928 88.0852 857.856 88.5511 856.966C89.017 856.072 89.6515 855.388 90.4545 854.915C91.2576 854.441 92.1667 854.205 93.1818 854.205C93.8295 854.205 94.4318 854.295 94.9886 854.477C95.5455 854.659 96.0417 854.926 96.4773 855.278C96.9129 855.627 97.2708 856.055 97.5511 856.562C97.8352 857.066 98.0208 857.642 98.108 858.29ZM102.004 860.886V866H99.9474V854.364H101.959V858.756H102.061C102.266 858.263 102.582 857.875 103.01 857.591C103.442 857.303 103.991 857.159 104.658 857.159C105.264 857.159 105.792 857.286 106.243 857.54C106.694 857.794 107.042 858.165 107.288 858.653C107.538 859.142 107.663 859.739 107.663 860.443V866H105.607V860.761C105.607 860.174 105.455 859.718 105.152 859.392C104.853 859.062 104.432 858.898 103.891 858.898C103.527 858.898 103.201 858.977 102.913 859.136C102.629 859.292 102.406 859.517 102.243 859.812C102.084 860.108 102.004 860.466 102.004 860.886ZM113.567 866.17C112.714 866.17 111.976 865.983 111.351 865.608C110.726 865.233 110.241 864.708 109.896 864.034C109.555 863.36 109.385 862.572 109.385 861.67C109.385 860.769 109.555 859.979 109.896 859.301C110.241 858.623 110.726 858.097 111.351 857.722C111.976 857.347 112.714 857.159 113.567 857.159C114.419 857.159 115.158 857.347 115.783 857.722C116.408 858.097 116.891 858.623 117.232 859.301C117.576 859.979 117.749 860.769 117.749 861.67C117.749 862.572 117.576 863.36 117.232 864.034C116.891 864.708 116.408 865.233 115.783 865.608C115.158 865.983 114.419 866.17 113.567 866.17ZM113.578 864.523C114.04 864.523 114.427 864.396 114.737 864.142C115.048 863.884 115.279 863.54 115.43 863.108C115.586 862.676 115.663 862.195 115.663 861.665C115.663 861.131 115.586 860.648 115.43 860.216C115.279 859.78 115.048 859.434 114.737 859.176C114.427 858.919 114.04 858.79 113.578 858.79C113.105 858.79 112.711 858.919 112.396 859.176C112.086 859.434 111.853 859.78 111.697 860.216C111.546 860.648 111.47 861.131 111.47 861.665C111.47 862.195 111.546 862.676 111.697 863.108C111.853 863.54 112.086 863.884 112.396 864.142C112.711 864.396 113.105 864.523 113.578 864.523ZM123.301 866.17C122.449 866.17 121.71 865.983 121.085 865.608C120.46 865.233 119.975 864.708 119.631 864.034C119.29 863.36 119.119 862.572 119.119 861.67C119.119 860.769 119.29 859.979 119.631 859.301C119.975 858.623 120.46 858.097 121.085 857.722C121.71 857.347 122.449 857.159 123.301 857.159C124.153 857.159 124.892 857.347 125.517 857.722C126.142 858.097 126.625 858.623 126.966 859.301C127.311 859.979 127.483 860.769 127.483 861.67C127.483 862.572 127.311 863.36 126.966 864.034C126.625 864.708 126.142 865.233 125.517 865.608C124.892 865.983 124.153 866.17 123.301 866.17ZM123.312 864.523C123.775 864.523 124.161 864.396 124.472 864.142C124.782 863.884 125.013 863.54 125.165 863.108C125.32 862.676 125.398 862.195 125.398 861.665C125.398 861.131 125.32 860.648 125.165 860.216C125.013 859.78 124.782 859.434 124.472 859.176C124.161 858.919 123.775 858.79 123.312 858.79C122.839 858.79 122.445 858.919 122.131 859.176C121.82 859.434 121.587 859.78 121.432 860.216C121.28 860.648 121.205 861.131 121.205 861.665C121.205 862.195 121.28 862.676 121.432 863.108C121.587 863.54 121.82 863.884 122.131 864.142C122.445 864.396 122.839 864.523 123.312 864.523ZM136.126 859.58L134.251 859.784C134.198 859.595 134.106 859.417 133.973 859.25C133.844 859.083 133.67 858.949 133.45 858.847C133.231 858.744 132.962 858.693 132.643 858.693C132.215 858.693 131.856 858.786 131.564 858.972C131.276 859.157 131.134 859.398 131.138 859.693C131.134 859.947 131.227 860.153 131.416 860.312C131.609 860.472 131.928 860.602 132.371 860.705L133.859 861.023C134.685 861.201 135.299 861.483 135.7 861.869C136.106 862.256 136.31 862.761 136.314 863.386C136.31 863.936 136.149 864.42 135.831 864.841C135.517 865.258 135.079 865.583 134.518 865.818C133.958 866.053 133.314 866.17 132.587 866.17C131.518 866.17 130.659 865.947 130.007 865.5C129.356 865.049 128.967 864.422 128.842 863.619L130.848 863.426C130.939 863.82 131.132 864.117 131.428 864.318C131.723 864.519 132.107 864.619 132.581 864.619C133.07 864.619 133.462 864.519 133.757 864.318C134.056 864.117 134.206 863.869 134.206 863.574C134.206 863.324 134.109 863.117 133.916 862.955C133.727 862.792 133.431 862.667 133.03 862.58L131.541 862.267C130.704 862.093 130.085 861.799 129.683 861.386C129.282 860.97 129.083 860.443 129.087 859.807C129.083 859.269 129.229 858.803 129.524 858.409C129.823 858.011 130.238 857.705 130.768 857.489C131.303 857.269 131.918 857.159 132.615 857.159C133.638 857.159 134.443 857.377 135.03 857.812C135.621 858.248 135.986 858.837 136.126 859.58ZM141.874 866.17C140.999 866.17 140.243 865.989 139.607 865.625C138.974 865.258 138.487 864.739 138.146 864.068C137.805 863.394 137.635 862.6 137.635 861.688C137.635 860.79 137.805 860.002 138.146 859.324C138.491 858.642 138.972 858.112 139.589 857.733C140.207 857.35 140.932 857.159 141.766 857.159C142.304 857.159 142.811 857.246 143.288 857.42C143.769 857.591 144.194 857.856 144.561 858.216C144.932 858.576 145.224 859.034 145.436 859.591C145.648 860.144 145.754 860.803 145.754 861.568V862.199H138.601V860.812H143.783C143.779 860.419 143.694 860.068 143.527 859.761C143.36 859.451 143.127 859.206 142.828 859.028C142.533 858.85 142.188 858.761 141.794 858.761C141.374 858.761 141.004 858.864 140.686 859.068C140.368 859.269 140.12 859.534 139.942 859.864C139.768 860.189 139.679 860.547 139.675 860.938V862.148C139.675 862.655 139.768 863.091 139.953 863.455C140.139 863.814 140.398 864.091 140.732 864.284C141.065 864.473 141.455 864.568 141.902 864.568C142.201 864.568 142.472 864.527 142.714 864.443C142.957 864.356 143.167 864.229 143.345 864.062C143.523 863.896 143.658 863.689 143.749 863.443L145.669 863.659C145.548 864.167 145.317 864.61 144.976 864.989C144.639 865.364 144.207 865.655 143.68 865.864C143.154 866.068 142.552 866.17 141.874 866.17ZM151.554 866V854.364H155.918C156.812 854.364 157.562 854.519 158.168 854.83C158.777 855.14 159.238 855.576 159.548 856.136C159.863 856.693 160.02 857.343 160.02 858.085C160.02 858.831 159.861 859.479 159.543 860.028C159.228 860.574 158.764 860.996 158.151 861.295C157.537 861.591 156.783 861.739 155.889 861.739H152.781V859.989H155.605C156.128 859.989 156.556 859.917 156.889 859.773C157.223 859.625 157.469 859.411 157.628 859.131C157.791 858.847 157.872 858.498 157.872 858.085C157.872 857.672 157.791 857.32 157.628 857.028C157.465 856.733 157.217 856.509 156.884 856.358C156.55 856.203 156.12 856.125 155.594 856.125H153.662V866H151.554ZM157.565 860.727L160.446 866H158.094L155.264 860.727H157.565ZM165.608 866.17C164.733 866.17 163.977 865.989 163.341 865.625C162.708 865.258 162.222 864.739 161.881 864.068C161.54 863.394 161.369 862.6 161.369 861.688C161.369 860.79 161.54 860.002 161.881 859.324C162.225 858.642 162.706 858.112 163.324 857.733C163.941 857.35 164.667 857.159 165.5 857.159C166.038 857.159 166.545 857.246 167.023 857.42C167.504 857.591 167.928 857.856 168.295 858.216C168.667 858.576 168.958 859.034 169.17 859.591C169.383 860.144 169.489 860.803 169.489 861.568V862.199H162.335V860.812H167.517C167.513 860.419 167.428 860.068 167.261 859.761C167.095 859.451 166.862 859.206 166.562 859.028C166.267 858.85 165.922 858.761 165.528 858.761C165.108 858.761 164.739 858.864 164.42 859.068C164.102 859.269 163.854 859.534 163.676 859.864C163.502 860.189 163.413 860.547 163.409 860.938V862.148C163.409 862.655 163.502 863.091 163.688 863.455C163.873 863.814 164.133 864.091 164.466 864.284C164.799 864.473 165.189 864.568 165.636 864.568C165.936 864.568 166.206 864.527 166.449 864.443C166.691 864.356 166.902 864.229 167.08 864.062C167.258 863.896 167.392 863.689 167.483 863.443L169.403 863.659C169.282 864.167 169.051 864.61 168.71 864.989C168.373 865.364 167.941 865.655 167.415 865.864C166.888 866.068 166.286 866.17 165.608 866.17ZM175.649 857.273V858.864H170.49V857.273H175.649ZM171.78 866V856.449C171.78 855.862 171.901 855.373 172.143 854.983C172.39 854.593 172.719 854.301 173.132 854.108C173.545 853.915 174.003 853.818 174.507 853.818C174.863 853.818 175.179 853.847 175.456 853.903C175.732 853.96 175.937 854.011 176.07 854.057L175.661 855.648C175.573 855.621 175.464 855.595 175.331 855.568C175.198 855.538 175.051 855.523 174.888 855.523C174.505 855.523 174.234 855.616 174.075 855.801C173.92 855.983 173.842 856.244 173.842 856.585V866H171.78ZM180.795 866.17C179.92 866.17 179.165 865.989 178.528 865.625C177.896 865.258 177.409 864.739 177.068 864.068C176.727 863.394 176.557 862.6 176.557 861.688C176.557 860.79 176.727 860.002 177.068 859.324C177.413 858.642 177.894 858.112 178.511 857.733C179.129 857.35 179.854 857.159 180.688 857.159C181.225 857.159 181.733 857.246 182.21 857.42C182.691 857.591 183.116 857.856 183.483 858.216C183.854 858.576 184.146 859.034 184.358 859.591C184.57 860.144 184.676 860.803 184.676 861.568V862.199H177.523V860.812H182.705C182.701 860.419 182.616 860.068 182.449 859.761C182.282 859.451 182.049 859.206 181.75 859.028C181.455 858.85 181.11 858.761 180.716 858.761C180.295 858.761 179.926 858.864 179.608 859.068C179.29 859.269 179.042 859.534 178.864 859.864C178.689 860.189 178.6 860.547 178.597 860.938V862.148C178.597 862.655 178.689 863.091 178.875 863.455C179.061 863.814 179.32 864.091 179.653 864.284C179.987 864.473 180.377 864.568 180.824 864.568C181.123 864.568 181.394 864.527 181.636 864.443C181.879 864.356 182.089 864.229 182.267 864.062C182.445 863.896 182.58 863.689 182.67 863.443L184.591 863.659C184.47 864.167 184.239 864.61 183.898 864.989C183.561 865.364 183.129 865.655 182.602 865.864C182.076 866.068 181.473 866.17 180.795 866.17ZM186.416 866V857.273H188.411V858.727H188.501C188.661 858.223 188.933 857.835 189.32 857.562C189.71 857.286 190.155 857.148 190.655 857.148C190.768 857.148 190.895 857.153 191.036 857.165C191.179 857.172 191.299 857.186 191.393 857.205V859.097C191.306 859.066 191.168 859.04 190.979 859.017C190.793 858.991 190.613 858.977 190.439 858.977C190.064 858.977 189.727 859.059 189.428 859.222C189.132 859.381 188.899 859.602 188.729 859.886C188.558 860.17 188.473 860.498 188.473 860.869V866H186.416ZM196.264 866.17C195.389 866.17 194.634 865.989 193.997 865.625C193.365 865.258 192.878 864.739 192.537 864.068C192.196 863.394 192.026 862.6 192.026 861.688C192.026 860.79 192.196 860.002 192.537 859.324C192.882 858.642 193.363 858.112 193.98 857.733C194.598 857.35 195.323 857.159 196.156 857.159C196.694 857.159 197.202 857.246 197.679 857.42C198.16 857.591 198.584 857.856 198.952 858.216C199.323 858.576 199.615 859.034 199.827 859.591C200.039 860.144 200.145 860.803 200.145 861.568V862.199H192.991V860.812H198.173C198.17 860.419 198.084 860.068 197.918 859.761C197.751 859.451 197.518 859.206 197.219 859.028C196.923 858.85 196.579 858.761 196.185 858.761C195.764 858.761 195.395 858.864 195.077 859.068C194.759 859.269 194.51 859.534 194.332 859.864C194.158 860.189 194.069 860.547 194.065 860.938V862.148C194.065 862.655 194.158 863.091 194.344 863.455C194.529 863.814 194.789 864.091 195.122 864.284C195.455 864.473 195.846 864.568 196.293 864.568C196.592 864.568 196.863 864.527 197.105 864.443C197.348 864.356 197.558 864.229 197.736 864.062C197.914 863.896 198.048 863.689 198.139 863.443L200.06 863.659C199.938 864.167 199.707 864.61 199.366 864.989C199.029 865.364 198.598 865.655 198.071 865.864C197.545 866.068 196.942 866.17 196.264 866.17ZM203.942 860.886V866H201.885V857.273H203.851V858.756H203.953C204.154 858.267 204.474 857.879 204.913 857.591C205.357 857.303 205.904 857.159 206.555 857.159C207.158 857.159 207.682 857.288 208.129 857.545C208.58 857.803 208.929 858.176 209.175 858.665C209.425 859.153 209.548 859.746 209.544 860.443V866H207.487V860.761C207.487 860.178 207.336 859.722 207.033 859.392C206.733 859.062 206.319 858.898 205.788 858.898C205.429 858.898 205.108 858.977 204.828 859.136C204.552 859.292 204.334 859.517 204.175 859.812C204.019 860.108 203.942 860.466 203.942 860.886ZM215.442 866.17C214.571 866.17 213.822 865.979 213.197 865.597C212.576 865.214 212.097 864.686 211.76 864.011C211.427 863.333 211.26 862.553 211.26 861.67C211.26 860.784 211.43 860.002 211.771 859.324C212.112 858.642 212.593 858.112 213.214 857.733C213.839 857.35 214.578 857.159 215.43 857.159C216.139 857.159 216.766 857.29 217.311 857.551C217.86 857.809 218.298 858.174 218.624 858.648C218.949 859.117 219.135 859.667 219.18 860.295H217.214C217.135 859.875 216.946 859.525 216.646 859.244C216.351 858.96 215.955 858.818 215.459 858.818C215.038 858.818 214.669 858.932 214.351 859.159C214.033 859.383 213.785 859.705 213.607 860.125C213.432 860.545 213.345 861.049 213.345 861.636C213.345 862.231 213.432 862.742 213.607 863.17C213.781 863.595 214.025 863.922 214.339 864.153C214.658 864.381 215.031 864.494 215.459 864.494C215.762 864.494 216.033 864.437 216.271 864.324C216.514 864.206 216.716 864.038 216.879 863.818C217.042 863.598 217.154 863.331 217.214 863.017H219.18C219.131 863.634 218.949 864.182 218.635 864.659C218.321 865.133 217.893 865.504 217.351 865.773C216.809 866.038 216.173 866.17 215.442 866.17ZM224.733 866.17C223.858 866.17 223.102 865.989 222.466 865.625C221.833 865.258 221.347 864.739 221.006 864.068C220.665 863.394 220.494 862.6 220.494 861.688C220.494 860.79 220.665 860.002 221.006 859.324C221.35 858.642 221.831 858.112 222.449 857.733C223.066 857.35 223.792 857.159 224.625 857.159C225.163 857.159 225.67 857.246 226.148 857.42C226.629 857.591 227.053 857.856 227.42 858.216C227.792 858.576 228.083 859.034 228.295 859.591C228.508 860.144 228.614 860.803 228.614 861.568V862.199H221.46V860.812H226.642C226.638 860.419 226.553 860.068 226.386 859.761C226.22 859.451 225.987 859.206 225.688 859.028C225.392 858.85 225.047 858.761 224.653 858.761C224.233 858.761 223.864 858.864 223.545 859.068C223.227 859.269 222.979 859.534 222.801 859.864C222.627 860.189 222.538 860.547 222.534 860.938V862.148C222.534 862.655 222.627 863.091 222.812 863.455C222.998 863.814 223.258 864.091 223.591 864.284C223.924 864.473 224.314 864.568 224.761 864.568C225.061 864.568 225.331 864.527 225.574 864.443C225.816 864.356 226.027 864.229 226.205 864.062C226.383 863.896 226.517 863.689 226.608 863.443L228.528 863.659C228.407 864.167 228.176 864.61 227.835 864.989C227.498 865.364 227.066 865.655 226.54 865.864C226.013 866.068 225.411 866.17 224.733 866.17ZM234.413 854.364H236.993L240.447 862.795H240.584L244.038 854.364H246.618V866H244.595V858.006H244.487L241.271 865.966H239.76L236.544 857.989H236.436V866H234.413V854.364ZM251.334 866.176C250.781 866.176 250.283 866.078 249.839 865.881C249.4 865.68 249.052 865.384 248.794 864.994C248.54 864.604 248.413 864.123 248.413 863.551C248.413 863.059 248.504 862.652 248.686 862.33C248.868 862.008 249.116 861.75 249.43 861.557C249.745 861.364 250.099 861.218 250.493 861.119C250.891 861.017 251.302 860.943 251.726 860.898C252.237 860.845 252.652 860.797 252.97 860.756C253.288 860.71 253.519 860.642 253.663 860.551C253.811 860.456 253.885 860.311 253.885 860.114V860.08C253.885 859.652 253.758 859.32 253.504 859.085C253.25 858.85 252.885 858.733 252.408 858.733C251.904 858.733 251.504 858.843 251.209 859.062C250.917 859.282 250.72 859.542 250.618 859.841L248.697 859.568C248.849 859.038 249.099 858.595 249.447 858.239C249.796 857.879 250.222 857.61 250.726 857.432C251.23 857.25 251.786 857.159 252.396 857.159C252.817 857.159 253.235 857.208 253.652 857.307C254.069 857.405 254.449 857.568 254.794 857.795C255.139 858.019 255.415 858.324 255.624 858.71C255.836 859.097 255.942 859.58 255.942 860.159V866H253.964V864.801H253.896C253.771 865.044 253.595 865.271 253.368 865.483C253.144 865.691 252.862 865.86 252.521 865.989C252.184 866.114 251.788 866.176 251.334 866.176ZM251.868 864.665C252.281 864.665 252.639 864.583 252.942 864.42C253.245 864.254 253.478 864.034 253.641 863.761C253.807 863.489 253.891 863.191 253.891 862.869V861.841C253.826 861.894 253.716 861.943 253.561 861.989C253.41 862.034 253.239 862.074 253.05 862.108C252.86 862.142 252.673 862.172 252.487 862.199C252.302 862.225 252.141 862.248 252.004 862.267C251.697 862.309 251.423 862.377 251.18 862.472C250.938 862.566 250.747 862.699 250.607 862.869C250.466 863.036 250.396 863.252 250.396 863.517C250.396 863.896 250.535 864.182 250.811 864.375C251.088 864.568 251.44 864.665 251.868 864.665ZM262.368 857.273V858.864H257.351V857.273H262.368ZM258.589 855.182H260.646V863.375C260.646 863.652 260.688 863.864 260.771 864.011C260.858 864.155 260.972 864.254 261.112 864.307C261.252 864.36 261.408 864.386 261.578 864.386C261.707 864.386 261.824 864.377 261.93 864.358C262.04 864.339 262.124 864.322 262.18 864.307L262.527 865.915C262.417 865.953 262.26 865.994 262.055 866.04C261.855 866.085 261.608 866.112 261.317 866.119C260.802 866.134 260.338 866.057 259.925 865.886C259.512 865.712 259.184 865.443 258.942 865.08C258.703 864.716 258.586 864.261 258.589 863.716V855.182ZM267.858 866.17C266.983 866.17 266.227 865.989 265.591 865.625C264.958 865.258 264.472 864.739 264.131 864.068C263.79 863.394 263.619 862.6 263.619 861.688C263.619 860.79 263.79 860.002 264.131 859.324C264.475 858.642 264.956 858.112 265.574 857.733C266.191 857.35 266.917 857.159 267.75 857.159C268.288 857.159 268.795 857.246 269.273 857.42C269.754 857.591 270.178 857.856 270.545 858.216C270.917 858.576 271.208 859.034 271.42 859.591C271.633 860.144 271.739 860.803 271.739 861.568V862.199H264.585V860.812H269.767C269.763 860.419 269.678 860.068 269.511 859.761C269.345 859.451 269.112 859.206 268.812 859.028C268.517 858.85 268.172 858.761 267.778 858.761C267.358 858.761 266.989 858.864 266.67 859.068C266.352 859.269 266.104 859.534 265.926 859.864C265.752 860.189 265.663 860.547 265.659 860.938V862.148C265.659 862.655 265.752 863.091 265.938 863.455C266.123 863.814 266.383 864.091 266.716 864.284C267.049 864.473 267.439 864.568 267.886 864.568C268.186 864.568 268.456 864.527 268.699 864.443C268.941 864.356 269.152 864.229 269.33 864.062C269.508 863.896 269.642 863.689 269.733 863.443L271.653 863.659C271.532 864.167 271.301 864.61 270.96 864.989C270.623 865.364 270.191 865.655 269.665 865.864C269.138 866.068 268.536 866.17 267.858 866.17ZM273.479 866V857.273H275.473V858.727H275.564C275.723 858.223 275.996 857.835 276.382 857.562C276.772 857.286 277.217 857.148 277.717 857.148C277.831 857.148 277.958 857.153 278.098 857.165C278.242 857.172 278.361 857.186 278.456 857.205V859.097C278.369 859.066 278.231 859.04 278.041 859.017C277.856 858.991 277.676 858.977 277.501 858.977C277.126 858.977 276.789 859.059 276.49 859.222C276.195 859.381 275.962 859.602 275.791 859.886C275.621 860.17 275.536 860.498 275.536 860.869V866H273.479ZM279.822 866V857.273H281.879V866H279.822ZM280.857 856.034C280.531 856.034 280.25 855.926 280.016 855.71C279.781 855.491 279.663 855.227 279.663 854.92C279.663 854.61 279.781 854.347 280.016 854.131C280.25 853.911 280.531 853.801 280.857 853.801C281.186 853.801 281.466 853.911 281.697 854.131C281.932 854.347 282.05 854.61 282.05 854.92C282.05 855.227 281.932 855.491 281.697 855.71C281.466 855.926 281.186 856.034 280.857 856.034ZM286.506 866.176C285.953 866.176 285.455 866.078 285.011 865.881C284.572 865.68 284.223 865.384 283.966 864.994C283.712 864.604 283.585 864.123 283.585 863.551C283.585 863.059 283.676 862.652 283.858 862.33C284.04 862.008 284.288 861.75 284.602 861.557C284.917 861.364 285.271 861.218 285.665 861.119C286.063 861.017 286.473 860.943 286.898 860.898C287.409 860.845 287.824 860.797 288.142 860.756C288.46 860.71 288.691 860.642 288.835 860.551C288.983 860.456 289.057 860.311 289.057 860.114V860.08C289.057 859.652 288.93 859.32 288.676 859.085C288.422 858.85 288.057 858.733 287.58 858.733C287.076 858.733 286.676 858.843 286.381 859.062C286.089 859.282 285.892 859.542 285.79 859.841L283.869 859.568C284.021 859.038 284.271 858.595 284.619 858.239C284.968 857.879 285.394 857.61 285.898 857.432C286.402 857.25 286.958 857.159 287.568 857.159C287.989 857.159 288.407 857.208 288.824 857.307C289.241 857.405 289.621 857.568 289.966 857.795C290.311 858.019 290.587 858.324 290.795 858.71C291.008 859.097 291.114 859.58 291.114 860.159V866H289.136V864.801H289.068C288.943 865.044 288.767 865.271 288.54 865.483C288.316 865.691 288.034 865.86 287.693 865.989C287.356 866.114 286.96 866.176 286.506 866.176ZM287.04 864.665C287.453 864.665 287.811 864.583 288.114 864.42C288.417 864.254 288.65 864.034 288.812 863.761C288.979 863.489 289.062 863.191 289.062 862.869V861.841C288.998 861.894 288.888 861.943 288.733 861.989C288.581 862.034 288.411 862.074 288.222 862.108C288.032 862.142 287.845 862.172 287.659 862.199C287.473 862.225 287.313 862.248 287.176 862.267C286.869 862.309 286.595 862.377 286.352 862.472C286.11 862.566 285.919 862.699 285.778 862.869C285.638 863.036 285.568 863.252 285.568 863.517C285.568 863.896 285.706 864.182 285.983 864.375C286.259 864.568 286.612 864.665 287.04 864.665ZM295.239 854.364V866H293.182V854.364H295.239Z" fill="black"/>
<g clip-path="url(#clip1_2922_3270)">
<path d="M345.625 859.75V861.5C345.625 863.124 344.98 864.682 343.831 865.831C342.682 866.98 341.124 867.625 339.5 867.625M339.5 867.625C337.876 867.625 336.318 866.98 335.169 865.831C334.02 864.682 333.375 863.124 333.375 861.5V859.75M339.5 867.625V871.125M336 871.125H343M339.5 851.875C338.804 851.875 338.136 852.152 337.644 852.644C337.152 853.136 336.875 853.804 336.875 854.5V861.5C336.875 862.196 337.152 862.864 337.644 863.356C338.136 863.848 338.804 864.125 339.5 864.125C340.196 864.125 340.864 863.848 341.356 863.356C341.848 862.864 342.125 862.196 342.125 861.5V854.5C342.125 853.804 341.848 853.136 341.356 852.644C340.864 852.152 340.196 851.875 339.5 851.875Z" stroke="#1E1E1E" stroke-width="2.1" stroke-linecap="round" stroke-linejoin="round"/>
</g>
<rect x="38" y="778" width="401" height="108" rx="9" fill="white" stroke="#C6C6C6" stroke-width="2"/>
<path d="M425 794L408.5 810.5M425 794L414.5 824L408.5 810.5M425 794L395 804.5L408.5 810.5" stroke="#1E1E1E" stroke-width="2.4" stroke-linecap="round" stroke-linejoin="round"/>
<path d="M51.72 816L57.28 801.6H58.72L53.3 816H51.72ZM63.16 816L57.74 801.6H59.28L64.84 816H63.16ZM54.48 810.18H62V811.62H54.48V810.18ZM67.1508 816V805.8H68.6508V808.2H68.7508V816H67.1508ZM74.4508 816V809.32C74.4508 808.547 74.2574 807.967 73.8708 807.58C73.4841 807.193 72.9108 807 72.1508 807C71.4841 807 70.8908 807.147 70.3708 807.44C69.8641 807.733 69.4641 808.14 69.1708 808.66C68.8908 809.18 68.7508 809.787 68.7508 810.48L68.4908 808.06C68.8374 807.3 69.3641 806.7 70.0708 806.26C70.7908 805.82 71.6041 805.6 72.5108 805.6C73.5774 805.6 74.4308 805.907 75.0708 806.52C75.7241 807.12 76.0508 807.913 76.0508 808.9V816H74.4508ZM79.5738 820.1L81.8538 814.8L82.2138 814.24L85.5538 805.8H87.1937L81.2738 820.1H79.5738ZM82.0338 816.1L77.4538 805.8H79.2138L83.1538 815.02L82.0338 816.1ZM100.486 820.1V813.62L100.786 813.68C100.533 814.453 100.066 815.067 99.3864 815.52C98.7197 815.973 97.9197 816.2 96.9864 816.2C96.0664 816.2 95.2597 815.987 94.5664 815.56C93.8864 815.12 93.3531 814.507 92.9664 813.72C92.5931 812.92 92.4064 811.993 92.4064 810.94C92.4064 809.873 92.5997 808.94 92.9864 808.14C93.3731 807.34 93.9131 806.72 94.6064 806.28C95.2997 805.84 96.1131 805.62 97.0464 805.62C98.0064 805.62 98.8131 805.853 99.4664 806.32C100.12 806.787 100.566 807.447 100.806 808.3L100.586 808.34V805.8H102.086V820.1H100.486ZM97.2864 814.8C98.3131 814.8 99.1131 814.453 99.6864 813.76C100.273 813.053 100.566 812.093 100.566 810.88C100.566 809.693 100.273 808.753 99.6864 808.06C99.0997 807.367 98.2997 807.02 97.2864 807.02C96.2731 807.02 95.4797 807.367 94.9064 808.06C94.3331 808.753 94.0464 809.713 94.0464 810.94C94.0464 812.14 94.3331 813.087 94.9064 813.78C95.4797 814.46 96.2731 814.8 97.2864 814.8ZM108.615 816.2C107.949 816.2 107.355 816.067 106.835 815.8C106.315 815.52 105.909 815.133 105.615 814.64C105.322 814.133 105.175 813.553 105.175 812.9V805.8H106.775V812.48C106.775 813.253 106.962 813.833 107.335 814.22C107.722 814.607 108.269 814.8 108.975 814.8C109.615 814.8 110.182 814.653 110.675 814.36C111.169 814.067 111.555 813.66 111.835 813.14C112.129 812.607 112.275 812 112.275 811.32L112.535 813.74C112.202 814.5 111.682 815.1 110.975 815.54C110.269 815.98 109.482 816.2 108.615 816.2ZM112.375 816V813.6H112.275V805.8H113.875V816H112.375ZM121.214 816.2C120.24 816.2 119.38 815.973 118.634 815.52C117.887 815.053 117.3 814.42 116.874 813.62C116.447 812.82 116.234 811.9 116.234 810.86C116.234 809.82 116.44 808.907 116.854 808.12C117.28 807.32 117.874 806.7 118.634 806.26C119.394 805.82 120.267 805.6 121.254 805.6C122.2 805.6 123.02 805.807 123.714 806.22C124.42 806.633 124.96 807.213 125.334 807.96C125.72 808.707 125.914 809.587 125.914 810.6C125.914 810.733 125.907 810.86 125.894 810.98C125.894 811.1 125.88 811.233 125.854 811.38H117.434V810.04H124.874L124.354 810.78C124.354 809.553 124.08 808.613 123.534 807.96C123 807.293 122.24 806.96 121.254 806.96C120.24 806.96 119.42 807.313 118.794 808.02C118.18 808.713 117.874 809.653 117.874 810.84C117.874 812.053 118.18 813.027 118.794 813.76C119.42 814.48 120.254 814.84 121.294 814.84C121.947 814.84 122.52 814.7 123.014 814.42C123.507 814.127 123.867 813.713 124.094 813.18H125.614C125.28 814.113 124.72 814.853 123.934 815.4C123.16 815.933 122.254 816.2 121.214 816.2ZM131.783 816.2C130.529 816.2 129.529 815.913 128.783 815.34C128.036 814.753 127.609 813.927 127.503 812.86H129.043C129.136 813.513 129.423 814.013 129.903 814.36C130.383 814.707 131.023 814.88 131.823 814.88C132.529 814.88 133.083 814.747 133.483 814.48C133.883 814.213 134.083 813.833 134.083 813.34C134.083 812.993 133.969 812.693 133.743 812.44C133.516 812.173 133.063 811.953 132.383 811.78L130.743 811.36C129.809 811.12 129.109 810.753 128.643 810.26C128.176 809.753 127.943 809.153 127.943 808.46C127.943 807.58 128.269 806.887 128.923 806.38C129.576 805.86 130.463 805.6 131.583 805.6C132.689 805.6 133.589 805.867 134.283 806.4C134.976 806.933 135.369 807.673 135.463 808.62H133.923C133.829 808.073 133.576 807.653 133.163 807.36C132.749 807.067 132.203 806.92 131.523 806.92C130.869 806.92 130.363 807.047 130.003 807.3C129.643 807.54 129.463 807.887 129.463 808.34C129.463 808.687 129.589 808.987 129.843 809.24C130.109 809.493 130.549 809.707 131.163 809.88L132.763 810.32C133.709 810.573 134.423 810.96 134.903 811.48C135.383 812 135.623 812.627 135.623 813.36C135.623 814.253 135.283 814.953 134.603 815.46C133.923 815.953 132.983 816.2 131.783 816.2ZM141.856 816.18C140.722 816.18 139.896 815.927 139.376 815.42C138.869 814.9 138.616 814.153 138.616 813.18V803.42L140.216 802.82V813.16C140.216 813.733 140.362 814.153 140.656 814.42C140.949 814.687 141.429 814.82 142.096 814.82C142.362 814.82 142.589 814.807 142.776 814.78C142.976 814.74 143.136 814.693 143.256 814.64V816C143.122 816.053 142.929 816.093 142.676 816.12C142.436 816.16 142.162 816.18 141.856 816.18ZM136.516 807.16V805.8H143.256V807.16H136.516ZM145.315 816V805.8H146.915V816H145.315ZM145.195 803.48V801.6H147.035V803.48H145.195ZM154.32 816.2C153.32 816.2 152.44 815.967 151.68 815.5C150.92 815.033 150.327 814.4 149.9 813.6C149.487 812.787 149.28 811.873 149.28 810.86C149.28 809.833 149.494 808.927 149.92 808.14C150.347 807.353 150.934 806.733 151.68 806.28C152.44 805.827 153.32 805.6 154.32 805.6C155.334 805.6 156.214 805.827 156.96 806.28C157.72 806.733 158.307 807.353 158.72 808.14C159.147 808.927 159.36 809.833 159.36 810.86C159.36 811.873 159.147 812.787 158.72 813.6C158.307 814.4 157.72 815.033 156.96 815.5C156.214 815.967 155.334 816.2 154.32 816.2ZM154.32 814.84C155.014 814.84 155.614 814.673 156.12 814.34C156.627 813.993 157.02 813.52 157.3 812.92C157.58 812.32 157.72 811.627 157.72 810.84C157.72 809.667 157.407 808.727 156.78 808.02C156.167 807.313 155.347 806.96 154.32 806.96C153.307 806.96 152.487 807.313 151.86 808.02C151.234 808.727 150.92 809.667 150.92 810.84C150.92 811.627 151.06 812.32 151.34 812.92C151.62 813.52 152.014 813.993 152.52 814.34C153.04 814.673 153.64 814.84 154.32 814.84ZM161.76 816V805.8H163.26V808.2H163.36V816H161.76ZM169.06 816V809.32C169.06 808.547 168.867 807.967 168.48 807.58C168.093 807.193 167.52 807 166.76 807C166.093 807 165.5 807.147 164.98 807.44C164.473 807.733 164.073 808.14 163.78 808.66C163.5 809.18 163.36 809.787 163.36 810.48L163.1 808.06C163.447 807.3 163.973 806.7 164.68 806.26C165.4 805.82 166.213 805.6 167.12 805.6C168.187 805.6 169.04 805.907 169.68 806.52C170.333 807.12 170.66 807.913 170.66 808.9V816H169.06ZM177.154 816.2C175.9 816.2 174.9 815.913 174.154 815.34C173.407 814.753 172.98 813.927 172.874 812.86H174.414C174.507 813.513 174.794 814.013 175.274 814.36C175.754 814.707 176.394 814.88 177.194 814.88C177.9 814.88 178.454 814.747 178.854 814.48C179.254 814.213 179.454 813.833 179.454 813.34C179.454 812.993 179.34 812.693 179.114 812.44C178.887 812.173 178.434 811.953 177.754 811.78L176.114 811.36C175.18 811.12 174.48 810.753 174.014 810.26C173.547 809.753 173.314 809.153 173.314 808.46C173.314 807.58 173.64 806.887 174.294 806.38C174.947 805.86 175.834 805.6 176.954 805.6C178.06 805.6 178.96 805.867 179.654 806.4C180.347 806.933 180.74 807.673 180.834 808.62H179.294C179.2 808.073 178.947 807.653 178.534 807.36C178.12 807.067 177.574 806.92 176.894 806.92C176.24 806.92 175.734 807.047 175.374 807.3C175.014 807.54 174.834 807.887 174.834 808.34C174.834 808.687 174.96 808.987 175.214 809.24C175.48 809.493 175.92 809.707 176.534 809.88L178.134 810.32C179.08 810.573 179.794 810.96 180.274 811.48C180.754 812 180.994 812.627 180.994 813.36C180.994 814.253 180.654 814.953 179.974 815.46C179.294 815.953 178.354 816.2 177.154 816.2ZM185.396 811.8C185.396 811.04 185.489 810.4 185.676 809.88C185.876 809.36 186.129 808.927 186.436 808.58C186.756 808.22 187.089 807.907 187.436 807.64C187.783 807.373 188.109 807.113 188.416 806.86C188.736 806.593 188.989 806.3 189.176 805.98C189.376 805.66 189.476 805.267 189.476 804.8C189.476 804.093 189.203 803.527 188.656 803.1C188.109 802.66 187.363 802.44 186.416 802.44C185.416 802.44 184.603 802.7 183.976 803.22C183.349 803.727 182.963 804.447 182.816 805.38H181.216C181.309 804.487 181.583 803.713 182.036 803.06C182.503 802.407 183.116 801.9 183.876 801.54C184.636 801.18 185.503 801 186.476 801C187.396 801 188.196 801.16 188.876 801.48C189.569 801.787 190.109 802.227 190.496 802.8C190.883 803.373 191.076 804.053 191.076 804.84C191.076 805.467 190.976 805.987 190.776 806.4C190.576 806.813 190.316 807.167 189.996 807.46C189.689 807.753 189.356 808.027 188.996 808.28C188.636 808.533 188.296 808.807 187.976 809.1C187.669 809.393 187.416 809.753 187.216 810.18C187.016 810.607 186.916 811.147 186.916 811.8H185.396ZM185.116 816V813.94H187.176V816H185.116Z" fill="#989898"/>
<path d="M439 835V877C439 881.971 434.971 886 430 886H47C42.0294 886 38 881.971 38 877V835H439Z" fill="#F1FCFF" stroke="#C6C6C6" stroke-width="2"/>
<g clip-path="url(#clip2_2922_3270)">
<path d="M63 867H65V855H63V867ZM67 871H69V851H67V871ZM59 863H61V859H59V863ZM71 867H73V855H71V867ZM75 859V863H77V859H75Z" fill="#323232"/>
</g>
<path d="M91.688 868L87.448 856.48H89.624L93.096 866.528H92.744L96.216 856.48H98.28L94.056 868H91.688ZM102.347 868.16C101.483 868.16 100.72 867.979 100.059 867.616C99.4078 867.253 98.9012 866.752 98.5385 866.112C98.1758 865.461 97.9945 864.72 97.9945 863.888C97.9945 863.056 98.1758 862.325 98.5385 861.696C98.9012 861.067 99.4078 860.576 100.059 860.224C100.72 859.861 101.483 859.68 102.347 859.68C103.221 859.68 103.984 859.861 104.635 860.224C105.285 860.576 105.792 861.067 106.155 861.696C106.517 862.325 106.699 863.056 106.699 863.888C106.699 864.72 106.512 865.461 106.139 866.112C105.776 866.752 105.269 867.253 104.619 867.616C103.968 867.979 103.211 868.16 102.347 868.16ZM102.347 866.544C102.773 866.544 103.157 866.437 103.499 866.224C103.84 866 104.107 865.691 104.299 865.296C104.491 864.891 104.587 864.416 104.587 863.872C104.587 863.072 104.373 862.443 103.947 861.984C103.531 861.525 102.997 861.296 102.347 861.296C101.696 861.296 101.157 861.525 100.731 861.984C100.304 862.443 100.091 863.072 100.091 863.872C100.091 864.416 100.187 864.891 100.379 865.296C100.581 865.691 100.848 866 101.179 866.224C101.52 866.437 101.909 866.544 102.347 866.544ZM108.166 868V859.84H110.182V868H108.166ZM108.07 858.496V856.272H110.262V858.496H108.07ZM115.827 868.16C115.005 868.16 114.28 867.979 113.651 867.616C113.032 867.253 112.541 866.752 112.179 866.112C111.827 865.461 111.651 864.725 111.651 863.904C111.651 863.083 111.827 862.357 112.179 861.728C112.541 861.088 113.032 860.587 113.651 860.224C114.28 859.861 115.005 859.68 115.827 859.68C116.499 859.68 117.107 859.808 117.651 860.064C118.195 860.309 118.643 860.661 118.995 861.12C119.347 861.568 119.571 862.091 119.667 862.688H117.731C117.613 862.251 117.389 861.909 117.059 861.664C116.728 861.419 116.328 861.296 115.859 861.296C115.421 861.296 115.043 861.403 114.723 861.616C114.413 861.829 114.173 862.133 114.003 862.528C113.832 862.923 113.747 863.381 113.747 863.904C113.747 864.437 113.832 864.901 114.003 865.296C114.173 865.691 114.419 866 114.739 866.224C115.059 866.437 115.432 866.544 115.859 866.544C116.328 866.544 116.728 866.421 117.059 866.176C117.389 865.931 117.613 865.589 117.731 865.152H119.667C119.571 865.749 119.341 866.277 118.979 866.736C118.627 867.184 118.179 867.536 117.635 867.792C117.101 868.037 116.499 868.16 115.827 868.16ZM124.736 868.16C123.872 868.16 123.115 867.979 122.464 867.616C121.824 867.253 121.323 866.752 120.96 866.112C120.608 865.472 120.432 864.736 120.432 863.904C120.432 863.072 120.608 862.341 120.96 861.712C121.323 861.072 121.824 860.576 122.464 860.224C123.104 859.861 123.851 859.68 124.704 859.68C125.515 859.68 126.219 859.851 126.816 860.192C127.413 860.523 127.877 860.992 128.208 861.6C128.539 862.208 128.704 862.917 128.704 863.728C128.704 863.877 128.699 864.016 128.688 864.144C128.677 864.272 128.661 864.4 128.64 864.528H121.68V863.12H127.088L126.672 863.504C126.672 862.736 126.496 862.16 126.144 861.776C125.792 861.392 125.301 861.2 124.672 861.2C123.989 861.2 123.445 861.435 123.04 861.904C122.645 862.373 122.448 863.051 122.448 863.936C122.448 864.811 122.645 865.483 123.04 865.952C123.445 866.411 124.016 866.64 124.752 866.64C125.179 866.64 125.552 866.56 125.872 866.4C126.192 866.24 126.427 865.995 126.576 865.664H128.48C128.213 866.432 127.76 867.04 127.12 867.488C126.491 867.936 125.696 868.16 124.736 868.16ZM133.226 868V856.48H136.458L139.978 867.584H138.842L142.362 856.48H145.61V868H143.562V857.168H143.898L140.474 868H138.25L134.858 857.264H135.178V868H133.226ZM151.345 868.16C150.481 868.16 149.724 867.979 149.073 867.616C148.433 867.253 147.932 866.752 147.569 866.112C147.217 865.472 147.041 864.736 147.041 863.904C147.041 863.072 147.217 862.341 147.569 861.712C147.932 861.072 148.433 860.576 149.073 860.224C149.713 859.861 150.46 859.68 151.313 859.68C152.124 859.68 152.828 859.851 153.425 860.192C154.023 860.523 154.487 860.992 154.817 861.6C155.148 862.208 155.313 862.917 155.313 863.728C155.313 863.877 155.308 864.016 155.297 864.144C155.287 864.272 155.271 864.4 155.249 864.528H148.289V863.12H153.697L153.281 863.504C153.281 862.736 153.105 862.16 152.753 861.776C152.401 861.392 151.911 861.2 151.281 861.2C150.599 861.2 150.055 861.435 149.649 861.904C149.255 862.373 149.057 863.051 149.057 863.936C149.057 864.811 149.255 865.483 149.649 865.952C150.055 866.411 150.625 866.64 151.361 866.64C151.788 866.64 152.161 866.56 152.481 866.4C152.801 866.24 153.036 865.995 153.185 865.664H155.089C154.823 866.432 154.369 867.04 153.729 867.488C153.1 867.936 152.305 868.16 151.345 868.16ZM159.989 868.16C158.858 868.16 157.957 867.925 157.285 867.456C156.613 866.976 156.245 866.315 156.181 865.472H158.021C158.074 865.888 158.272 866.203 158.613 866.416C158.954 866.629 159.413 866.736 159.989 866.736C160.512 866.736 160.901 866.656 161.157 866.496C161.424 866.325 161.557 866.085 161.557 865.776C161.557 865.552 161.482 865.371 161.333 865.232C161.184 865.083 160.901 864.96 160.485 864.864L159.173 864.56C158.277 864.368 157.61 864.069 157.173 863.664C156.746 863.248 156.533 862.731 156.533 862.112C156.533 861.355 156.821 860.763 157.397 860.336C157.984 859.899 158.789 859.68 159.813 859.68C160.826 859.68 161.637 859.899 162.245 860.336C162.864 860.763 163.205 861.355 163.269 862.112H161.429C161.376 861.781 161.205 861.531 160.917 861.36C160.64 861.189 160.256 861.104 159.765 861.104C159.306 861.104 158.96 861.179 158.725 861.328C158.49 861.467 158.373 861.675 158.373 861.952C158.373 862.165 158.464 862.347 158.645 862.496C158.826 862.635 159.13 862.757 159.557 862.864L160.965 863.184C161.765 863.365 162.368 863.68 162.773 864.128C163.189 864.576 163.397 865.104 163.397 865.712C163.397 866.491 163.098 867.093 162.501 867.52C161.904 867.947 161.066 868.16 159.989 868.16ZM168.036 868.16C166.905 868.16 166.004 867.925 165.332 867.456C164.66 866.976 164.292 866.315 164.228 865.472H166.068C166.121 865.888 166.318 866.203 166.66 866.416C167.001 866.629 167.46 866.736 168.036 866.736C168.558 866.736 168.948 866.656 169.204 866.496C169.47 866.325 169.604 866.085 169.604 865.776C169.604 865.552 169.529 865.371 169.38 865.232C169.23 865.083 168.948 864.96 168.532 864.864L167.22 864.56C166.324 864.368 165.657 864.069 165.22 863.664C164.793 863.248 164.58 862.731 164.58 862.112C164.58 861.355 164.868 860.763 165.444 860.336C166.03 859.899 166.836 859.68 167.86 859.68C168.873 859.68 169.684 859.899 170.292 860.336C170.91 860.763 171.252 861.355 171.316 862.112H169.476C169.422 861.781 169.252 861.531 168.964 861.36C168.686 861.189 168.302 861.104 167.812 861.104C167.353 861.104 167.006 861.179 166.772 861.328C166.537 861.467 166.42 861.675 166.42 861.952C166.42 862.165 166.51 862.347 166.692 862.496C166.873 862.635 167.177 862.757 167.604 862.864L169.012 863.184C169.812 863.365 170.414 863.68 170.82 864.128C171.236 864.576 171.444 865.104 171.444 865.712C171.444 866.491 171.145 867.093 170.548 867.52C169.95 867.947 169.113 868.16 168.036 868.16ZM178.051 868C177.997 867.787 177.955 867.552 177.923 867.296C177.901 867.04 177.891 866.731 177.891 866.368H177.827V862.496C177.827 862.069 177.704 861.749 177.459 861.536C177.224 861.312 176.861 861.2 176.371 861.2C175.891 861.2 175.507 861.291 175.219 861.472C174.941 861.643 174.771 861.893 174.707 862.224H172.771C172.856 861.467 173.219 860.853 173.859 860.384C174.499 859.915 175.357 859.68 176.435 859.68C177.555 859.68 178.403 859.936 178.979 860.448C179.555 860.949 179.843 861.691 179.843 862.672V866.368C179.843 866.624 179.859 866.885 179.891 867.152C179.933 867.419 179.992 867.701 180.067 868H178.051ZM175.219 868.16C174.397 868.16 173.741 867.957 173.251 867.552C172.771 867.136 172.531 866.581 172.531 865.888C172.531 865.141 172.803 864.549 173.347 864.112C173.891 863.675 174.659 863.381 175.651 863.232L178.195 862.848V864.128L175.987 864.464C175.507 864.539 175.144 864.672 174.899 864.864C174.664 865.056 174.547 865.323 174.547 865.664C174.547 865.973 174.659 866.213 174.883 866.384C175.107 866.544 175.416 866.624 175.811 866.624C176.387 866.624 176.867 866.48 177.251 866.192C177.635 865.904 177.827 865.552 177.827 865.136L178.051 866.368C177.837 866.955 177.485 867.403 176.995 867.712C176.515 868.011 175.923 868.16 175.219 868.16ZM185.344 871.44C184.266 871.44 183.381 871.205 182.688 870.736C182.005 870.267 181.6 869.632 181.472 868.832H183.392C183.488 869.109 183.696 869.323 184.016 869.472C184.346 869.632 184.773 869.712 185.296 869.712C186.053 869.712 186.613 869.541 186.976 869.2C187.338 868.869 187.52 868.363 187.52 867.68V865.92L187.664 865.952C187.536 866.549 187.21 867.029 186.688 867.392C186.165 867.744 185.525 867.92 184.768 867.92C184.042 867.92 183.408 867.749 182.864 867.408C182.33 867.067 181.914 866.592 181.616 865.984C181.317 865.365 181.168 864.645 181.168 863.824C181.168 862.992 181.322 862.267 181.632 861.648C181.941 861.029 182.373 860.549 182.928 860.208C183.493 859.856 184.149 859.68 184.896 859.68C185.664 859.68 186.293 859.867 186.784 860.24C187.285 860.603 187.594 861.109 187.712 861.76L187.584 861.776V859.84H189.552V867.664C189.552 868.827 189.173 869.744 188.416 870.416C187.669 871.099 186.645 871.44 185.344 871.44ZM185.424 866.32C186.074 866.32 186.592 866.101 186.976 865.664C187.37 865.216 187.568 864.592 187.568 863.792C187.568 862.992 187.37 862.373 186.976 861.936C186.581 861.499 186.058 861.28 185.408 861.28C184.768 861.28 184.25 861.504 183.856 861.952C183.461 862.389 183.264 863.008 183.264 863.808C183.264 864.608 183.461 865.227 183.856 865.664C184.25 866.101 184.773 866.32 185.424 866.32ZM195.361 868.16C194.497 868.16 193.74 867.979 193.089 867.616C192.449 867.253 191.948 866.752 191.585 866.112C191.233 865.472 191.057 864.736 191.057 863.904C191.057 863.072 191.233 862.341 191.585 861.712C191.948 861.072 192.449 860.576 193.089 860.224C193.729 859.861 194.476 859.68 195.329 859.68C196.14 859.68 196.844 859.851 197.441 860.192C198.038 860.523 198.502 860.992 198.833 861.6C199.164 862.208 199.329 862.917 199.329 863.728C199.329 863.877 199.324 864.016 199.313 864.144C199.302 864.272 199.286 864.4 199.265 864.528H192.305V863.12H197.713L197.297 863.504C197.297 862.736 197.121 862.16 196.769 861.776C196.417 861.392 195.926 861.2 195.297 861.2C194.614 861.2 194.07 861.435 193.665 861.904C193.27 862.373 193.073 863.051 193.073 863.936C193.073 864.811 193.27 865.483 193.665 865.952C194.07 866.411 194.641 866.64 195.377 866.64C195.804 866.64 196.177 866.56 196.497 866.4C196.817 866.24 197.052 865.995 197.201 865.664H199.105C198.838 866.432 198.385 867.04 197.745 867.488C197.116 867.936 196.321 868.16 195.361 868.16Z" fill="black"/>
<rect x="118" y="74" width="260" height="22" rx="2" fill="#E7E4E4"/>
<rect x="58" y="185" width="305" height="14" rx="2" fill="#E7E4E4"/>
<rect x="58" y="210" width="366" height="14" rx="2" fill="#E7E4E4"/>
<rect x="58" y="235" width="338" height="14" rx="2" fill="#E7E4E4"/>
<rect x="58" y="260" width="356" height="14" rx="2" fill="#E7E4E4"/>
<rect x="58" y="285" width="356" height="14" rx="2" fill="#E7E4E4"/>
<path d="M64.256 171.16C63.424 171.16 62.656 171.016 61.952 170.728C61.248 170.429 60.6347 170.013 60.112 169.48C59.6 168.947 59.2 168.317 58.912 167.592C58.624 166.856 58.48 166.056 58.48 165.192C58.48 164.328 58.6187 163.539 58.896 162.824C59.184 162.109 59.584 161.491 60.096 160.968C60.6187 160.435 61.232 160.029 61.936 159.752C62.64 159.464 63.4133 159.32 64.256 159.32C65.2053 159.32 66.0587 159.507 66.816 159.88C67.584 160.243 68.208 160.76 68.688 161.432C69.1787 162.093 69.4773 162.872 69.584 163.768H67.184C67.0453 162.947 66.7093 162.328 66.176 161.912C65.6427 161.485 65.008 161.272 64.272 161.272C63.6213 161.272 63.0453 161.427 62.544 161.736C62.0533 162.045 61.6693 162.493 61.392 163.08C61.1147 163.656 60.976 164.355 60.976 165.176C60.976 166.008 61.1147 166.728 61.392 167.336C61.68 167.933 62.0747 168.397 62.576 168.728C63.0773 169.048 63.6533 169.208 64.304 169.208C64.9973 169.208 65.6107 169 66.144 168.584C66.6773 168.168 67.024 167.549 67.184 166.728H69.616C69.4773 167.624 69.1627 168.408 68.672 169.08C68.1813 169.741 67.5573 170.253 66.8 170.616C66.0427 170.979 65.1947 171.16 64.256 171.16ZM74.8008 171.16C73.9048 171.16 73.1154 170.984 72.4328 170.632C71.7608 170.269 71.2328 169.768 70.8488 169.128C70.4754 168.477 70.2888 167.731 70.2888 166.888C70.2888 166.045 70.4754 165.309 70.8488 164.68C71.2328 164.051 71.7608 163.56 72.4328 163.208C73.1154 162.856 73.9048 162.68 74.8008 162.68C75.7074 162.68 76.4968 162.856 77.1688 163.208C77.8514 163.56 78.3794 164.051 78.7528 164.68C79.1261 165.309 79.3128 166.045 79.3128 166.888C79.3128 167.731 79.1208 168.477 78.7368 169.128C78.3634 169.768 77.8354 170.269 77.1528 170.632C76.4808 170.984 75.6968 171.16 74.8008 171.16ZM74.8008 169.272C75.1741 169.272 75.5101 169.176 75.8088 168.984C76.1181 168.792 76.3634 168.52 76.5448 168.168C76.7261 167.805 76.8168 167.373 76.8168 166.872C76.8168 166.136 76.6194 165.571 76.2248 165.176C75.8408 164.771 75.3661 164.568 74.8008 164.568C74.2354 164.568 73.7554 164.771 73.3608 165.176C72.9768 165.581 72.7848 166.147 72.7848 166.872C72.7848 167.373 72.8754 167.805 73.0568 168.168C73.2381 168.52 73.4781 168.792 73.7768 168.984C74.0861 169.176 74.4274 169.272 74.8008 169.272ZM84.4231 174.44C83.2925 174.44 82.3698 174.2 81.6551 173.72C80.9511 173.24 80.5351 172.589 80.4071 171.768H82.6791C82.7645 171.971 82.9458 172.125 83.2231 172.232C83.5111 172.339 83.8738 172.392 84.3111 172.392C85.0365 172.392 85.5645 172.253 85.8951 171.976C86.2258 171.699 86.3911 171.267 86.3911 170.68V168.904L86.5191 168.936C86.4125 169.533 86.1031 170.008 85.5911 170.36C85.0791 170.701 84.4445 170.872 83.6871 170.872C82.9618 170.872 82.3271 170.707 81.7831 170.376C81.2498 170.035 80.8338 169.56 80.5351 168.952C80.2365 168.344 80.0871 167.629 80.0871 166.808C80.0871 165.976 80.2418 165.251 80.5511 164.632C80.8605 164.013 81.2925 163.533 81.8471 163.192C82.4125 162.851 83.0685 162.68 83.8151 162.68C84.5831 162.68 85.2071 162.861 85.6871 163.224C86.1778 163.587 86.4658 164.083 86.5511 164.712L86.4391 164.728V162.84H88.7911V170.648C88.7911 171.821 88.4018 172.744 87.6231 173.416C86.8445 174.099 85.7778 174.44 84.4231 174.44ZM84.5191 169.032C85.0845 169.032 85.5431 168.84 85.8951 168.456C86.2471 168.061 86.4231 167.501 86.4231 166.776C86.4231 166.051 86.2418 165.496 85.8791 165.112C85.5271 164.717 85.0631 164.52 84.4871 164.52C83.9325 164.52 83.4738 164.717 83.1111 165.112C82.7591 165.507 82.5831 166.067 82.5831 166.792C82.5831 167.517 82.7591 168.072 83.1111 168.456C83.4738 168.84 83.9431 169.032 84.5191 169.032ZM90.71 171V162.84H93.062V164.76H93.11V171H90.71ZM96.39 171V165.944C96.39 165.496 96.2727 165.16 96.038 164.936C95.814 164.712 95.4833 164.6 95.046 164.6C94.6727 164.6 94.3367 164.685 94.038 164.856C93.75 165.027 93.5207 165.261 93.35 165.56C93.19 165.859 93.11 166.211 93.11 166.616L92.902 164.648C93.1687 164.051 93.558 163.576 94.07 163.224C94.5927 162.861 95.2327 162.68 95.99 162.68C96.8967 162.68 97.59 162.936 98.07 163.448C98.55 163.949 98.79 164.627 98.79 165.48V171H96.39ZM100.523 171V162.84H102.923V171H100.523ZM100.443 161.752V159.16H103.003V161.752H100.443ZM108.582 171.176C107.537 171.176 106.758 170.925 106.246 170.424C105.745 169.912 105.494 169.139 105.494 168.104V161.016L107.894 160.12V168.184C107.894 168.547 107.995 168.819 108.198 169C108.401 169.181 108.715 169.272 109.142 169.272C109.302 169.272 109.451 169.256 109.59 169.224C109.729 169.192 109.867 169.155 110.006 169.112V170.936C109.867 171.011 109.67 171.069 109.414 171.112C109.169 171.155 108.891 171.176 108.582 171.176ZM103.974 164.664V162.84H110.006V164.664H103.974ZM111.366 171V162.84H113.766V171H111.366ZM111.286 161.752V159.16H113.846V161.752H111.286ZM119.52 171.16C118.624 171.16 117.834 170.984 117.152 170.632C116.48 170.269 115.952 169.768 115.568 169.128C115.194 168.477 115.008 167.731 115.008 166.888C115.008 166.045 115.194 165.309 115.568 164.68C115.952 164.051 116.48 163.56 117.152 163.208C117.834 162.856 118.624 162.68 119.52 162.68C120.426 162.68 121.216 162.856 121.888 163.208C122.57 163.56 123.098 164.051 123.472 164.68C123.845 165.309 124.032 166.045 124.032 166.888C124.032 167.731 123.84 168.477 123.456 169.128C123.082 169.768 122.554 170.269 121.872 170.632C121.2 170.984 120.416 171.16 119.52 171.16ZM119.52 169.272C119.893 169.272 120.229 169.176 120.528 168.984C120.837 168.792 121.082 168.52 121.264 168.168C121.445 167.805 121.536 167.373 121.536 166.872C121.536 166.136 121.338 165.571 120.944 165.176C120.56 164.771 120.085 164.568 119.52 164.568C118.954 164.568 118.474 164.771 118.08 165.176C117.696 165.581 117.504 166.147 117.504 166.872C117.504 167.373 117.594 167.805 117.776 168.168C117.957 168.52 118.197 168.792 118.496 168.984C118.805 169.176 119.146 169.272 119.52 169.272ZM125.304 171V162.84H127.656V164.76H127.704V171H125.304ZM130.984 171V165.944C130.984 165.496 130.866 165.16 130.632 164.936C130.408 164.712 130.077 164.6 129.64 164.6C129.266 164.6 128.93 164.685 128.632 164.856C128.344 165.027 128.114 165.261 127.944 165.56C127.784 165.859 127.704 166.211 127.704 166.616L127.496 164.648C127.762 164.051 128.152 163.576 128.664 163.224C129.186 162.861 129.826 162.68 130.584 162.68C131.49 162.68 132.184 162.936 132.664 163.448C133.144 163.949 133.384 164.627 133.384 165.48V171H130.984Z" fill="black"/>
</g>
<rect x="25.5" y="21.5" width="431" height="878" rx="9.5" stroke="#C6C6C6"/>
</g>
<defs>
<filter id="filter0_d_2922_3270" x="0" y="0" width="482" height="929" filterUnits="userSpaceOnUse" color-interpolation-filters="sRGB">
<feFlood flood-opacity="0" result="BackgroundImageFix"/>
<feColorMatrix in="SourceAlpha" type="matrix" values="0 0 0 0 0 0 0 0 0 0 0 0 0 0 0 0 0 0 127 0" result="hardAlpha"/>
<feOffset dy="4"/>
<feGaussianBlur stdDeviation="12.5"/>
<feComposite in2="hardAlpha" operator="out"/>
<feColorMatrix type="matrix" values="0 0 0 0 0 0 0 0 0 0 0 0 0 0 0 0 0 0 0.1 0"/>
<feBlend mode="normal" in2="BackgroundImageFix" result="effect1_dropShadow_2922_3270"/>
<feBlend mode="normal" in="SourceGraphic" in2="effect1_dropShadow_2922_3270" result="shape"/>
</filter>
<clipPath id="clip0_2922_3270">
<rect x="25" y="21" width="432" height="879" rx="10" fill="white"/>
</clipPath>
<clipPath id="clip1_2922_3270">
<rect width="21" height="21" fill="white" transform="translate(329 851)"/>
</clipPath>
<clipPath id="clip2_2922_3270">
<rect width="24" height="24" fill="white" transform="translate(56 849)"/>
</clipPath>
</defs>
</svg>
